<svg width="52" height="52" viewBox="0 0 52 52" fill="none" xmlns="http://www.w3.org/2000/svg">
<g clip-path="url(#clip0_124_4384)">
<path d="M26 52C40.3594 52 52 40.3594 52 26C52 11.6406 40.3594 0 26 0C11.6406 0 0 11.6406 0 26C0 40.3594 11.6406 52 26 52Z" fill="#F0F0F0"/>
<path d="M51.9999 25.9999C51.9999 15.692 46.0011 6.78533 37.3042 2.57983V49.4199C46.0011 45.2146 51.9999 36.3079 51.9999 25.9999Z" fill="#D80027"/>
<path d="M0 25.9999C0 36.3079 5.99879 45.2146 14.6957 49.4201V2.57983C5.99879 6.78533 0 15.692 0 25.9999Z" fill="#D80027"/>
<path d="M30.5217 29.3912L35.0434 27.1303L32.7826 26V23.7391L28.2609 26L30.5217 21.4782H28.2609L26 18.0869L23.7391 21.4782H21.4782L23.7391 26L19.2173 23.7391V26L16.9565 27.1303L21.4782 29.3912L20.3478 31.6521H24.8696V35.0434H27.1304V31.6521H31.6521L30.5217 29.3912Z" fill="#D80027"/>
</g>
<defs>
<clipPath id="clip0_124_4384">
<rect width="52" height="52" fill="white"/>
</clipPath>
</defs>
</svg>
