<svg width="430" height="183" viewBox="0 0 430 183" fill="none" xmlns="http://www.w3.org/2000/svg">
<g opacity="0.6" filter="url(#filter0_bd_3_308)">
<rect x="6.6333" y="6" width="417.367" height="170.003" rx="8" fill="#2B2D50"/>
</g>
<path d="M38.4258 144.035H35.8987V146.629H34.1337V144.035H31.6066V142.404H34.1337V139.81H35.8987V142.404H38.4258V144.035ZM40.496 142.979C40.496 141.437 40.7723 140.229 41.325 139.355C41.8866 138.482 42.8136 138.045 44.1062 138.045C45.3987 138.045 46.3213 138.482 46.874 139.355C47.4355 140.229 47.7163 141.437 47.7163 142.979C47.7163 144.53 47.4355 145.747 46.874 146.629C46.3213 147.512 45.3987 147.953 44.1062 147.953C42.8136 147.953 41.8866 147.512 41.325 146.629C40.7723 145.747 40.496 144.53 40.496 142.979ZM45.8711 142.979C45.8711 142.319 45.8266 141.767 45.7374 141.321C45.6572 140.866 45.4878 140.496 45.2293 140.211C44.9797 139.926 44.6053 139.783 44.1062 139.783C43.607 139.783 43.2281 139.926 42.9696 140.211C42.72 140.496 42.5507 140.866 42.4615 141.321C42.3813 141.767 42.3412 142.319 42.3412 142.979C42.3412 143.656 42.3813 144.227 42.4615 144.69C42.5417 145.145 42.7111 145.515 42.9696 145.8C43.2281 146.077 43.607 146.215 44.1062 146.215C44.6053 146.215 44.9842 146.077 45.2427 145.8C45.5012 145.515 45.6706 145.145 45.7508 144.69C45.831 144.227 45.8711 143.656 45.8711 142.979ZM50.4505 148.073C50.1118 148.073 49.831 147.971 49.6081 147.766C49.3942 147.552 49.2872 147.289 49.2872 146.977C49.2872 146.665 49.3942 146.406 49.6081 146.201C49.831 145.987 50.1118 145.88 50.4505 145.88C50.7803 145.88 51.0522 145.987 51.2661 146.201C51.4801 146.406 51.587 146.665 51.587 146.977C51.587 147.289 51.4801 147.552 51.2661 147.766C51.0522 147.971 50.7803 148.073 50.4505 148.073ZM53.7366 145.867C54.5924 145.154 55.2743 144.561 55.7824 144.089C56.2905 143.607 56.7139 143.108 57.0526 142.591C57.3914 142.074 57.5607 141.566 57.5607 141.067C57.5607 140.612 57.4538 140.256 57.2398 139.997C57.0259 139.739 56.6961 139.609 56.2504 139.609C55.8047 139.609 55.4615 139.761 55.2208 140.064C54.9801 140.358 54.8553 140.764 54.8464 141.281H53.028C53.0636 140.211 53.3801 139.4 53.9773 138.847C54.5835 138.295 55.3501 138.018 56.2771 138.018C57.2933 138.018 58.0733 138.29 58.617 138.834C59.1608 139.369 59.4327 140.077 59.4327 140.96C59.4327 141.655 59.2455 142.319 58.8711 142.952C58.4967 143.585 58.0688 144.138 57.5875 144.61C57.1061 145.074 56.4777 145.635 55.7022 146.295H59.6466V147.846H53.0413V146.455L53.7366 145.867ZM67.6454 139.85H63.3132V142.137C63.5004 141.905 63.7678 141.718 64.1155 141.575C64.4631 141.423 64.833 141.348 65.2253 141.348C65.9384 141.348 66.5222 141.504 66.9769 141.816C67.4315 142.128 67.7613 142.529 67.9663 143.019C68.1713 143.5 68.2738 144.017 68.2738 144.57C68.2738 145.595 67.9797 146.42 67.3914 147.044C66.812 147.668 65.9829 147.98 64.9044 147.98C63.8882 147.98 63.077 147.726 62.4708 147.218C61.8647 146.709 61.5215 146.045 61.4413 145.225H63.2597C63.3399 145.582 63.5182 145.867 63.7946 146.081C64.0798 146.295 64.4408 146.402 64.8776 146.402C65.4035 146.402 65.8002 146.237 66.0676 145.907C66.3351 145.577 66.4688 145.141 66.4688 144.597C66.4688 144.044 66.3306 143.625 66.0543 143.34C65.7868 143.046 65.3902 142.899 64.8642 142.899C64.4899 142.899 64.1779 142.992 63.9283 143.179C63.6787 143.367 63.5004 143.616 63.3934 143.928H61.6017V138.205H67.6454V139.85ZM69.7521 140.626C69.7521 139.948 69.9482 139.418 70.3404 139.034C70.7415 138.651 71.2541 138.46 71.8781 138.46C72.502 138.46 73.0101 138.651 73.4024 139.034C73.8035 139.418 74.0041 139.948 74.0041 140.626C74.0041 141.312 73.8035 141.847 73.4024 142.23C73.0101 142.613 72.502 142.805 71.8781 142.805C71.2541 142.805 70.7415 142.613 70.3404 142.23C69.9482 141.847 69.7521 141.312 69.7521 140.626ZM78.3363 138.62L73.0815 147.98H71.263L76.5044 138.62H78.3363ZM71.8647 139.583C71.3744 139.583 71.1293 139.93 71.1293 140.626C71.1293 141.33 71.3744 141.682 71.8647 141.682C72.1054 141.682 72.2926 141.597 72.4263 141.428C72.56 141.25 72.6268 140.982 72.6268 140.626C72.6268 139.93 72.3728 139.583 71.8647 139.583ZM75.622 145.961C75.622 145.274 75.8181 144.744 76.2103 144.37C76.6114 143.986 77.124 143.795 77.7479 143.795C78.3719 143.795 78.8756 143.986 79.2589 144.37C79.6511 144.744 79.8472 145.274 79.8472 145.961C79.8472 146.647 79.6511 147.182 79.2589 147.565C78.8756 147.948 78.3719 148.14 77.7479 148.14C77.115 148.14 76.6025 147.948 76.2103 147.565C75.8181 147.182 75.622 146.647 75.622 145.961ZM77.7346 144.918C77.2265 144.918 76.9724 145.265 76.9724 145.961C76.9724 146.665 77.2265 147.017 77.7346 147.017C78.2338 147.017 78.4833 146.665 78.4833 145.961C78.4833 145.265 78.2338 144.918 77.7346 144.918Z" fill="#1ECB4F"/>
<path d="M42.8373 109.925C42.8373 110.62 42.6568 111.276 42.2957 111.891C41.9481 112.492 41.4266 112.994 40.7313 113.395C40.0494 113.783 39.2405 114.01 38.3045 114.077V115.701H37.0209V114.057C35.6838 113.936 34.6074 113.535 33.7918 112.853C32.9761 112.158 32.5549 111.222 32.5282 110.045H35.5367C35.6169 111.008 36.1116 111.59 37.0209 111.79V107.96C36.0582 107.719 35.2826 107.478 34.6943 107.238C34.106 106.997 33.5979 106.609 33.17 106.074C32.7421 105.539 32.5282 104.811 32.5282 103.888C32.5282 102.725 32.9427 101.775 33.7717 101.04C34.6141 100.305 35.6971 99.8835 37.0209 99.7765V98.1519H38.3045V99.7765C39.5881 99.8835 40.611 100.271 41.3731 100.94C42.1487 101.608 42.5832 102.531 42.6768 103.708H39.6483C39.6082 103.32 39.4678 102.986 39.2271 102.705C38.9998 102.411 38.6922 102.203 38.3045 102.083V105.874C39.3073 106.128 40.0962 106.375 40.6712 106.616C41.2595 106.843 41.7676 107.224 42.1954 107.759C42.6233 108.28 42.8373 109.003 42.8373 109.925ZM35.4565 103.748C35.4565 104.189 35.5902 104.55 35.8576 104.831C36.125 105.098 36.5128 105.319 37.0209 105.493V102.023C36.5395 102.09 36.1584 102.27 35.8776 102.564C35.5969 102.859 35.4565 103.253 35.4565 103.748ZM38.3045 111.83C38.8126 111.737 39.207 111.53 39.4878 111.209C39.782 110.888 39.9291 110.5 39.9291 110.045C39.9291 109.604 39.7887 109.25 39.5079 108.982C39.2271 108.715 38.826 108.494 38.3045 108.321V111.83ZM55.88 101.762H49.3816V105.192C49.6624 104.844 50.0636 104.563 50.585 104.349C51.1065 104.122 51.6614 104.008 52.2497 104.008C53.3194 104.008 54.1952 104.242 54.8771 104.71C55.559 105.178 56.0538 105.78 56.3613 106.516C56.6688 107.238 56.8226 108.013 56.8226 108.842C56.8226 110.38 56.3814 111.617 55.4989 112.553C54.6298 113.488 53.3863 113.956 51.7684 113.956C50.2441 113.956 49.0273 113.575 48.1181 112.813C47.2088 112.051 46.6941 111.055 46.5737 109.825H49.3014C49.4218 110.36 49.6892 110.788 50.1037 111.108C50.5315 111.429 51.0731 111.59 51.7283 111.59C52.5171 111.59 53.1122 111.342 53.5133 110.848C53.9144 110.353 54.115 109.698 54.115 108.882C54.115 108.053 53.9077 107.425 53.4932 106.997C53.0921 106.556 52.4971 106.335 51.7082 106.335C51.1466 106.335 50.6786 106.475 50.3042 106.756C49.9299 107.037 49.6624 107.411 49.502 107.879H46.8144V99.2952H55.88V101.762ZM60.2433 110.788C61.527 109.718 62.5498 108.829 63.312 108.12C64.0741 107.398 64.7093 106.649 65.2174 105.874C65.7255 105.098 65.9795 104.336 65.9795 103.587C65.9795 102.905 65.8191 102.37 65.4982 101.983C65.1772 101.595 64.6825 101.401 64.014 101.401C63.3454 101.401 62.8306 101.628 62.4696 102.083C62.1086 102.524 61.9214 103.133 61.908 103.908H59.1803C59.2338 102.304 59.7085 101.087 60.6044 100.258C61.5136 99.4289 62.6635 99.0144 64.0541 99.0144C65.5784 99.0144 66.7483 99.4222 67.564 100.238C68.3796 101.04 68.7874 102.103 68.7874 103.427C68.7874 104.47 68.5066 105.466 67.945 106.415C67.3835 107.365 66.7417 108.194 66.0196 108.902C65.2976 109.598 64.3549 110.44 63.1917 111.429H69.1083V113.756H59.2004V111.67L60.2433 110.788ZM74.6684 111.008L72.3218 116.644H70.5167L71.8203 111.008H74.6684ZM77.6549 110.788C78.9385 109.718 79.9614 108.829 80.7236 108.12C81.4857 107.398 82.1208 106.649 82.6289 105.874C83.137 105.098 83.3911 104.336 83.3911 103.587C83.3911 102.905 83.2306 102.37 82.9097 101.983C82.5888 101.595 82.0941 101.401 81.4255 101.401C80.757 101.401 80.2422 101.628 79.8812 102.083C79.5202 102.524 79.333 103.133 79.3196 103.908H76.5919C76.6454 102.304 77.1201 101.087 78.0159 100.258C78.9252 99.4289 80.0751 99.0144 81.4656 99.0144C82.9899 99.0144 84.1599 99.4222 84.9755 100.238C85.7912 101.04 86.199 102.103 86.199 103.427C86.199 104.47 85.9182 105.466 85.3566 106.415C84.795 107.365 84.1532 108.194 83.4312 108.902C82.7092 109.598 81.7665 110.44 80.6032 111.429H86.5199V113.756H76.612V111.67L77.6549 110.788ZM91.9395 109.845C92.0465 110.433 92.2872 110.888 92.6616 111.209C93.0493 111.516 93.5641 111.67 94.2059 111.67C95.0349 111.67 95.6366 111.329 96.011 110.647C96.3854 109.952 96.5726 108.789 96.5726 107.157C96.2651 107.585 95.8305 107.919 95.2689 108.16C94.7207 108.401 94.1257 108.521 93.4839 108.521C92.6282 108.521 91.8526 108.347 91.1573 108C90.4754 107.639 89.9339 107.111 89.5328 106.415C89.1316 105.707 88.9311 104.851 88.9311 103.848C88.9311 102.364 89.3723 101.187 90.2548 100.318C91.1373 99.4356 92.3407 98.9943 93.865 98.9943C95.7637 98.9943 97.1008 99.6027 97.8763 100.819C98.6652 102.036 99.0596 103.868 99.0596 106.315C99.0596 108.053 98.9058 109.477 98.5983 110.587C98.3041 111.697 97.7894 112.539 97.054 113.114C96.3319 113.689 95.3425 113.977 94.0856 113.977C93.0961 113.977 92.2538 113.789 91.5585 113.415C90.8632 113.027 90.3283 112.526 89.9539 111.911C89.5929 111.282 89.3857 110.594 89.3322 109.845H91.9395ZM94.0655 106.235C94.7608 106.235 95.309 106.021 95.7102 105.593C96.1113 105.165 96.3119 104.59 96.3119 103.868C96.3119 103.079 96.0979 102.471 95.6701 102.043C95.2556 101.602 94.6873 101.381 93.9653 101.381C93.2432 101.381 92.6683 101.608 92.2404 102.063C91.8259 102.504 91.6186 103.093 91.6186 103.828C91.6186 104.537 91.8192 105.118 92.2203 105.573C92.6348 106.014 93.2499 106.235 94.0655 106.235ZM101.305 101.923V99.3353H106.139V113.956H103.251V101.923H101.305Z" fill="white"/>
<path d="M98.9926 36.2105V37.9373H96.1503V46.8768H94.011V37.9373H91.1687V36.2105H98.9926ZM104.313 47.0143C103.498 47.0143 102.764 46.836 102.112 46.4795C101.46 46.1127 100.946 45.5982 100.569 44.9361C100.202 44.2739 100.019 43.5098 100.019 42.6439C100.019 41.778 100.207 41.0139 100.584 40.3517C100.971 39.6895 101.496 39.1802 102.158 38.8236C102.82 38.4569 103.559 38.2735 104.374 38.2735C105.189 38.2735 105.927 38.4569 106.59 38.8236C107.252 39.1802 107.771 39.6895 108.148 40.3517C108.535 41.0139 108.729 41.778 108.729 42.6439C108.729 43.5098 108.53 44.2739 108.133 44.9361C107.746 45.5982 107.216 46.1127 106.544 46.4795C105.882 46.836 105.138 47.0143 104.313 47.0143ZM104.313 45.15C104.7 45.15 105.062 45.0583 105.398 44.8749C105.744 44.6814 106.019 44.3961 106.223 44.0192C106.427 43.6423 106.529 43.1838 106.529 42.6439C106.529 41.8391 106.315 41.2227 105.887 40.7949C105.469 40.3568 104.955 40.1378 104.343 40.1378C103.732 40.1378 103.218 40.3568 102.8 40.7949C102.392 41.2227 102.189 41.8391 102.189 42.6439C102.189 43.4487 102.387 44.0701 102.785 44.5082C103.192 44.9361 103.702 45.15 104.313 45.15ZM112.789 40.1683V44.2637C112.789 44.5489 112.855 44.7578 112.988 44.8902C113.13 45.0125 113.365 45.0736 113.691 45.0736H114.684V46.8768H113.339C111.536 46.8768 110.634 46.0007 110.634 44.2484V40.1683H109.626V38.411H110.634V36.3175H112.789V38.411H114.684V40.1683H112.789ZM115.673 42.6133C115.673 41.7576 115.841 40.9986 116.177 40.3364C116.523 39.6742 116.987 39.1649 117.567 38.8083C118.158 38.4518 118.815 38.2735 119.539 38.2735C120.17 38.2735 120.72 38.4008 121.189 38.6555C121.668 38.9102 122.05 39.2311 122.335 39.6182V38.411H124.49V46.8768H122.335V45.639C122.06 46.0363 121.678 46.3674 121.189 46.6323C120.71 46.887 120.155 47.0143 119.523 47.0143C118.81 47.0143 118.158 46.8309 117.567 46.4642C116.987 46.0974 116.523 45.583 116.177 44.9208C115.841 44.2484 115.673 43.4793 115.673 42.6133ZM122.335 42.6439C122.335 42.1243 122.233 41.6812 122.03 41.3144C121.826 40.9375 121.551 40.6522 121.204 40.4587C120.858 40.2549 120.486 40.1531 120.089 40.1531C119.692 40.1531 119.325 40.2498 118.989 40.4434C118.652 40.637 118.377 40.9222 118.163 41.2991C117.96 41.6659 117.858 42.104 117.858 42.6133C117.858 43.1227 117.96 43.5709 118.163 43.9581C118.377 44.335 118.652 44.6253 118.989 44.8291C119.335 45.0328 119.702 45.1347 120.089 45.1347C120.486 45.1347 120.858 45.0379 121.204 44.8444C121.551 44.6406 121.826 44.3554 122.03 43.9886C122.233 43.6117 122.335 43.1634 122.335 42.6439ZM128.719 35.5687V46.8768H126.579V35.5687H128.719ZM141.732 36.2105V37.9373H138.89V46.8768H136.75V37.9373H133.908V36.2105H141.732ZM145.432 39.7252C145.708 39.2769 146.064 38.9255 146.502 38.6708C146.95 38.4161 147.46 38.2888 148.03 38.2888V40.5351H147.465C146.792 40.5351 146.283 40.693 145.937 41.0088C145.601 41.3246 145.432 41.8747 145.432 42.6592V46.8768H143.293V38.411H145.432V39.7252ZM148.921 42.6133C148.921 41.7576 149.089 40.9986 149.425 40.3364C149.772 39.6742 150.235 39.1649 150.816 38.8083C151.407 38.4518 152.064 38.2735 152.787 38.2735C153.419 38.2735 153.969 38.4008 154.438 38.6555C154.916 38.9102 155.298 39.2311 155.584 39.6182V38.411H157.738V46.8768H155.584V45.639C155.309 46.0363 154.927 46.3674 154.438 46.6323C153.959 46.887 153.404 47.0143 152.772 47.0143C152.059 47.0143 151.407 46.8309 150.816 46.4642C150.235 46.0974 149.772 45.583 149.425 44.9208C149.089 44.2484 148.921 43.4793 148.921 42.6133ZM155.584 42.6439C155.584 42.1243 155.482 41.6812 155.278 41.3144C155.074 40.9375 154.799 40.6522 154.453 40.4587C154.106 40.2549 153.735 40.1531 153.337 40.1531C152.94 40.1531 152.573 40.2498 152.237 40.4434C151.901 40.637 151.626 40.9222 151.412 41.2991C151.208 41.6659 151.106 42.104 151.106 42.6133C151.106 43.1227 151.208 43.5709 151.412 43.9581C151.626 44.335 151.901 44.6253 152.237 44.8291C152.583 45.0328 152.95 45.1347 153.337 45.1347C153.735 45.1347 154.106 45.0379 154.453 44.8444C154.799 44.6406 155.074 44.3554 155.278 43.9886C155.482 43.6117 155.584 43.1634 155.584 42.6439ZM159.278 42.6133C159.278 41.7576 159.446 40.9986 159.782 40.3364C160.128 39.6742 160.597 39.1649 161.188 38.8083C161.779 38.4518 162.436 38.2735 163.159 38.2735C163.709 38.2735 164.234 38.3957 164.733 38.6402C165.232 38.8745 165.63 39.1903 165.925 39.5877V35.5687H168.095V46.8768H165.925V45.6237C165.66 46.0414 165.288 46.3776 164.809 46.6323C164.331 46.887 163.775 47.0143 163.144 47.0143C162.431 47.0143 161.779 46.8309 161.188 46.4642C160.597 46.0974 160.128 45.583 159.782 44.9208C159.446 44.2484 159.278 43.4793 159.278 42.6133ZM165.94 42.6439C165.94 42.1243 165.838 41.6812 165.635 41.3144C165.431 40.9375 165.156 40.6522 164.809 40.4587C164.463 40.2549 164.091 40.1531 163.694 40.1531C163.297 40.1531 162.93 40.2498 162.594 40.4434C162.257 40.637 161.982 40.9222 161.768 41.2991C161.565 41.6659 161.463 42.104 161.463 42.6133C161.463 43.1227 161.565 43.5709 161.768 43.9581C161.982 44.335 162.257 44.6253 162.594 44.8291C162.94 45.0328 163.307 45.1347 163.694 45.1347C164.091 45.1347 164.463 45.0379 164.809 44.8444C165.156 44.6406 165.431 44.3554 165.635 43.9886C165.838 43.6117 165.94 43.1634 165.94 42.6439ZM171.269 37.4025C170.892 37.4025 170.577 37.2853 170.322 37.051C170.077 36.8065 169.955 36.506 169.955 36.1494C169.955 35.7928 170.077 35.4974 170.322 35.2631C170.577 35.0186 170.892 34.8963 171.269 34.8963C171.646 34.8963 171.957 35.0186 172.201 35.2631C172.456 35.4974 172.583 35.7928 172.583 36.1494C172.583 36.506 172.456 36.8065 172.201 37.051C171.957 37.2853 171.646 37.4025 171.269 37.4025ZM172.324 38.411V46.8768H170.184V38.411H172.324ZM179.129 38.2888C180.137 38.2888 180.952 38.6097 181.574 39.2515C182.195 39.8831 182.506 40.7694 182.506 41.9104V46.8768H180.366V42.2007C180.366 41.5284 180.198 41.0139 179.862 40.6573C179.526 40.2906 179.068 40.1072 178.487 40.1072C177.896 40.1072 177.427 40.2906 177.081 40.6573C176.745 41.0139 176.577 41.5284 176.577 42.2007V46.8768H174.437V38.411H176.577V39.4654C176.862 39.0987 177.224 38.8134 177.662 38.6097C178.11 38.3957 178.599 38.2888 179.129 38.2888ZM187.856 38.2735C188.488 38.2735 189.043 38.4008 189.522 38.6555C190.001 38.9 190.378 39.2209 190.653 39.6182V38.411H192.807V46.9379C192.807 47.7223 192.649 48.4202 192.334 49.0314C192.018 49.6528 191.544 50.1418 190.913 50.4984C190.281 50.8652 189.517 51.0485 188.62 51.0485C187.418 51.0485 186.43 50.7684 185.656 50.2081C184.892 49.6478 184.459 48.8837 184.357 47.9159H186.481C186.593 48.303 186.832 48.6086 187.199 48.8328C187.576 49.0671 188.029 49.1842 188.559 49.1842C189.181 49.1842 189.685 48.9958 190.072 48.6188C190.459 48.2521 190.653 47.6918 190.653 46.9379V45.6237C190.378 46.021 189.996 46.3521 189.507 46.617C189.028 46.8819 188.478 47.0143 187.856 47.0143C187.143 47.0143 186.491 46.8309 185.9 46.4642C185.309 46.0974 184.841 45.583 184.494 44.9208C184.158 44.2484 183.99 43.4793 183.99 42.6133C183.99 41.7576 184.158 40.9986 184.494 40.3364C184.841 39.6742 185.304 39.1649 185.885 38.8083C186.476 38.4518 187.133 38.2735 187.856 38.2735ZM190.653 42.6439C190.653 42.1243 190.551 41.6812 190.347 41.3144C190.143 40.9375 189.868 40.6522 189.522 40.4587C189.176 40.2549 188.804 40.1531 188.406 40.1531C188.009 40.1531 187.642 40.2498 187.306 40.4434C186.97 40.637 186.695 40.9222 186.481 41.2991C186.277 41.6659 186.175 42.104 186.175 42.6133C186.175 43.1227 186.277 43.5709 186.481 43.9581C186.695 44.335 186.97 44.6253 187.306 44.8291C187.653 45.0328 188.019 45.1347 188.406 45.1347C188.804 45.1347 189.176 45.0379 189.522 44.8444C189.868 44.6406 190.143 44.3554 190.347 43.9886C190.551 43.6117 190.653 43.1634 190.653 42.6439Z" fill="white"/>
<path opacity="0.6" d="M95.562 67.4145C95.8524 67.4603 96.116 67.5788 96.3528 67.7698C96.5973 67.9608 96.7883 68.1976 96.9259 68.4803C97.071 68.763 97.1436 69.0648 97.1436 69.3857C97.1436 69.7907 97.0405 70.1574 96.8342 70.486C96.6279 70.8069 96.3261 71.0629 95.9288 71.2539C95.5391 71.4372 95.0768 71.5289 94.542 71.5289H91.5622V63.5407H94.4274C94.9699 63.5407 95.4321 63.6324 95.8142 63.8158C96.1962 63.9915 96.4827 64.2322 96.6737 64.5378C96.8647 64.8434 96.9602 65.1872 96.9602 65.5693C96.9602 66.043 96.8304 66.4365 96.5706 66.7497C96.3184 67.0554 95.9823 67.2769 95.562 67.4145ZM92.6051 66.9904H94.3586C94.8476 66.9904 95.2258 66.8758 95.4933 66.6466C95.7607 66.4174 95.8944 66.1003 95.8944 65.6953C95.8944 65.2904 95.7607 64.9733 95.4933 64.7441C95.2258 64.5149 94.84 64.4003 94.3357 64.4003H92.6051V66.9904ZM94.4503 70.6694C94.9699 70.6694 95.3748 70.5471 95.6652 70.3026C95.9555 70.0581 96.1007 69.7181 96.1007 69.2826C96.1007 68.8394 95.9479 68.4918 95.6422 68.2397C95.3366 67.9799 94.9278 67.85 94.4159 67.85H92.6051V70.6694H94.4503ZM103.508 63.5407V64.3888H101.33V71.5289H100.287V64.3888H98.0981V63.5407H103.508ZM104.402 67.5291C104.402 66.7497 104.577 66.0506 104.929 65.4317C105.28 64.8052 105.758 64.3162 106.362 63.9648C106.973 63.6133 107.649 63.4376 108.39 63.4376C109.261 63.4376 110.021 63.6477 110.671 64.0679C111.32 64.4881 111.794 65.0841 112.092 65.8558H110.843C110.621 65.3744 110.3 65.0039 109.88 64.7441C109.467 64.4843 108.971 64.3544 108.39 64.3544C107.832 64.3544 107.332 64.4843 106.889 64.7441C106.446 65.0039 106.098 65.3744 105.846 65.8558C105.594 66.3295 105.468 66.8873 105.468 67.5291C105.468 68.1633 105.594 68.721 105.846 69.2024C106.098 69.6761 106.446 70.0428 106.889 70.3026C107.332 70.5624 107.832 70.6923 108.39 70.6923C108.971 70.6923 109.467 70.5662 109.88 70.3141C110.3 70.0543 110.621 69.6837 110.843 69.2024H112.092C111.794 69.9664 111.32 70.5586 110.671 70.9788C110.021 71.3914 109.261 71.5977 108.39 71.5977C107.649 71.5977 106.973 71.4258 106.362 71.082C105.758 70.7305 105.28 70.2453 104.929 69.6264C104.577 69.0075 104.402 68.3084 104.402 67.5291Z" fill="#FBB315"/>
<rect x="28.6" y="27.0115" width="51.5739" height="51.5739" rx="25.787" fill="#31353F" stroke="#764EF5" stroke-width="0.955072"/>
<path d="M63.6831 47.603V54.1612C63.6831 58.0833 61.4419 59.7643 58.08 59.7643H46.8865C46.3135 59.7643 45.7659 59.7133 45.2565 59.5987C44.9382 59.5478 44.6326 59.4586 44.3524 59.3568C42.4423 58.6436 41.2834 56.9882 41.2834 54.1612V47.603C41.2834 43.6808 43.5247 41.9999 46.8865 41.9999H58.08C60.9325 41.9999 62.9827 43.2097 63.5303 45.973C63.6195 46.4824 63.6831 47.0045 63.6831 47.603Z" stroke="white" stroke-width="1.91014" stroke-miterlimit="10" stroke-linecap="round" stroke-linejoin="round"/>
<path d="M67.5049 51.4234V57.9815C67.5049 61.9037 65.2637 63.5846 61.9018 63.5846H50.7083C49.766 63.5846 48.9128 63.4573 48.1742 63.1771C46.6588 62.6168 45.6274 61.458 45.2581 59.5988C45.7674 59.7134 46.315 59.7643 46.888 59.7643H58.0816C61.4434 59.7643 63.6847 58.0834 63.6847 54.1612V47.6031C63.6847 47.0046 63.6337 46.4698 63.5318 45.9731C65.9514 46.4825 67.5049 48.1889 67.5049 51.4234Z" stroke="white" stroke-width="1.91014" stroke-miterlimit="10" stroke-linecap="round" stroke-linejoin="round"/>
<path d="M52.4746 54.2501C54.3313 54.2501 55.8365 52.7449 55.8365 50.8882C55.8365 49.0315 54.3313 47.5263 52.4746 47.5263C50.618 47.5263 49.1128 49.0315 49.1128 50.8882C49.1128 52.7449 50.618 54.2501 52.4746 54.2501Z" stroke="white" stroke-width="1.91014" stroke-miterlimit="10" stroke-linecap="round" stroke-linejoin="round"/>
<path d="M45.1927 48.0869V53.69" stroke="white" stroke-width="1.91014" stroke-miterlimit="10" stroke-linecap="round" stroke-linejoin="round"/>
<path d="M59.7632 48.0873V53.6904" stroke="white" stroke-width="1.91014" stroke-miterlimit="10" stroke-linecap="round" stroke-linejoin="round"/>
<path d="M390.582 47.4042L388.282 45.1048L386.878 43.6937C386.284 43.0992 385.317 43.0992 384.722 43.6937L381.012 47.4042C380.525 47.8912 380.876 48.7222 381.556 48.7222H385.575H390.037C390.725 48.7222 391.069 47.8912 390.582 47.4042Z" fill="#1ECB4F"/>
<g filter="url(#filter1_f_3_308)">
<circle cx="389.617" cy="117.616" r="4.77536" fill="#7617EA"/>
</g>
<path d="M288.38 145.791L295.543 123.824L303.661 133.853L308.436 117.139L317.032 133.853L329.925 101.38L342.341 123.824L356.19 117.139L367.173 128.122L376.724 104.723L383.887 117.139H390.572" stroke="#7617EA" stroke-width="1.91014" stroke-linecap="round"/>
<defs>
<filter id="filter0_bd_3_308" x="-13.3667" y="-14" width="457.367" height="210.003" filterUnits="userSpaceOnUse" color-interpolation-filters="sRGB">
<feFlood flood-opacity="0" result="BackgroundImageFix"/>
<feGaussianBlur in="BackgroundImageFix" stdDeviation="10"/>
<feComposite in2="SourceAlpha" operator="in" result="effect1_backgroundBlur_3_308"/>
<feColorMatrix in="SourceAlpha" type="matrix" values="0 0 0 0 0 0 0 0 0 0 0 0 0 0 0 0 0 0 127 0" result="hardAlpha"/>
<feOffset/>
<feGaussianBlur stdDeviation="3"/>
<feComposite in2="hardAlpha" operator="out"/>
<feColorMatrix type="matrix" values="0 0 0 0 0.371944 0 0 0 0 0.371944 0 0 0 0 0.433333 0 0 0 1 0"/>
<feBlend mode="normal" in2="effect1_backgroundBlur_3_308" result="effect2_dropShadow_3_308"/>
<feBlend mode="normal" in="SourceGraphic" in2="effect2_dropShadow_3_308" result="shape"/>
</filter>
<filter id="filter1_f_3_308" x="380.067" y="108.066" width="19.1015" height="19.1014" filterUnits="userSpaceOnUse" color-interpolation-filters="sRGB">
<feFlood flood-opacity="0" result="BackgroundImageFix"/>
<feBlend mode="normal" in="SourceGraphic" in2="BackgroundImageFix" result="shape"/>
<feGaussianBlur stdDeviation="2.38768" result="effect1_foregroundBlur_3_308"/>
</filter>
</defs>
</svg>
