<svg width="430" height="183" viewBox="0 0 430 183" fill="none" xmlns="http://www.w3.org/2000/svg">
<g opacity="0.6" filter="url(#filter0_bd_3_330)">
<rect x="6" y="6" width="417.367" height="170.003" rx="8" fill="#2B2D50"/>
</g>
<path d="M37.7923 144.035H35.2652V146.629H33.5003V144.035H30.9731V142.404H33.5003V139.81H35.2652V142.404H37.7923V144.035ZM39.8626 142.979C39.8626 141.437 40.1389 140.229 40.6916 139.355C41.2531 138.482 42.1802 138.045 43.4727 138.045C44.7653 138.045 45.6879 138.482 46.2405 139.355C46.8021 140.229 47.0829 141.437 47.0829 142.979C47.0829 144.53 46.8021 145.747 46.2405 146.629C45.6879 147.512 44.7653 147.953 43.4727 147.953C42.1802 147.953 41.2531 147.512 40.6916 146.629C40.1389 145.747 39.8626 144.53 39.8626 142.979ZM45.2377 142.979C45.2377 142.319 45.1931 141.767 45.104 141.321C45.0238 140.866 44.8544 140.496 44.5959 140.211C44.3463 139.926 43.9719 139.783 43.4727 139.783C42.9735 139.783 42.5947 139.926 42.3362 140.211C42.0866 140.496 41.9172 140.866 41.8281 141.321C41.7479 141.767 41.7078 142.319 41.7078 142.979C41.7078 143.656 41.7479 144.227 41.8281 144.69C41.9083 145.145 42.0777 145.515 42.3362 145.8C42.5947 146.076 42.9735 146.215 43.4727 146.215C43.9719 146.215 44.3508 146.076 44.6093 145.8C44.8678 145.515 45.0371 145.145 45.1174 144.69C45.1976 144.227 45.2377 143.656 45.2377 142.979ZM49.8171 148.073C49.4783 148.073 49.1975 147.971 48.9747 147.766C48.7608 147.552 48.6538 147.289 48.6538 146.977C48.6538 146.665 48.7608 146.406 48.9747 146.201C49.1975 145.987 49.4783 145.88 49.8171 145.88C50.1469 145.88 50.4188 145.987 50.6327 146.201C50.8466 146.406 50.9536 146.665 50.9536 146.977C50.9536 147.289 50.8466 147.552 50.6327 147.766C50.4188 147.971 50.1469 148.073 49.8171 148.073ZM53.1032 145.867C53.959 145.154 54.6409 144.561 55.149 144.089C55.6571 143.607 56.0805 143.108 56.4192 142.591C56.7579 142.074 56.9273 141.566 56.9273 141.067C56.9273 140.612 56.8203 140.256 56.6064 139.997C56.3925 139.739 56.0627 139.609 55.617 139.609C55.1713 139.609 54.8281 139.761 54.5874 140.064C54.3467 140.358 54.2219 140.764 54.213 141.281H52.3945C52.4302 140.211 52.7466 139.4 53.3439 138.847C53.95 138.295 54.7166 138.018 55.6437 138.018C56.6599 138.018 57.4399 138.29 57.9836 138.834C58.5274 139.369 58.7993 140.077 58.7993 140.96C58.7993 141.655 58.6121 142.319 58.2377 142.952C57.8633 143.585 57.4354 144.138 56.9541 144.61C56.4727 145.074 55.8443 145.635 55.0687 146.295H59.0132V147.846H52.4079V146.455L53.1032 145.867ZM67.012 139.85H62.6798V142.136C62.867 141.905 63.1344 141.718 63.482 141.575C63.8297 141.423 64.1996 141.348 64.5918 141.348C65.305 141.348 65.8888 141.504 66.3434 141.816C66.7981 142.128 67.1279 142.529 67.3329 143.019C67.5379 143.5 67.6404 144.017 67.6404 144.57C67.6404 145.595 67.3463 146.42 66.7579 147.044C66.1785 147.668 65.3495 147.98 64.2709 147.98C63.2547 147.98 62.4436 147.726 61.8374 147.217C61.2313 146.709 60.8881 146.045 60.8078 145.225H62.6263C62.7065 145.582 62.8848 145.867 63.1611 146.081C63.4464 146.295 63.8074 146.402 64.2442 146.402C64.7701 146.402 65.1668 146.237 65.4342 145.907C65.7016 145.577 65.8353 145.141 65.8353 144.597C65.8353 144.044 65.6972 143.625 65.4208 143.34C65.1534 143.046 64.7567 142.899 64.2308 142.899C63.8564 142.899 63.5444 142.992 63.2948 143.179C63.0453 143.367 62.867 143.616 62.76 143.928H60.9683V138.205H67.012V139.85ZM69.1187 140.626C69.1187 139.948 69.3148 139.418 69.707 139.034C70.1081 138.651 70.6207 138.459 71.2446 138.459C71.8686 138.459 72.3767 138.651 72.7689 139.034C73.1701 139.418 73.3706 139.948 73.3706 140.626C73.3706 141.312 73.1701 141.847 72.7689 142.23C72.3767 142.613 71.8686 142.805 71.2446 142.805C70.6207 142.805 70.1081 142.613 69.707 142.23C69.3148 141.847 69.1187 141.312 69.1187 140.626ZM77.7028 138.62L72.448 147.98H70.6296L75.871 138.62H77.7028ZM71.2313 139.583C70.741 139.583 70.4959 139.93 70.4959 140.626C70.4959 141.33 70.741 141.682 71.2313 141.682C71.472 141.682 71.6591 141.597 71.7929 141.428C71.9266 141.25 71.9934 140.982 71.9934 140.626C71.9934 139.93 71.7394 139.583 71.2313 139.583ZM74.9885 145.961C74.9885 145.274 75.1846 144.744 75.5769 144.369C75.978 143.986 76.4905 143.794 77.1145 143.794C77.7385 143.794 78.2421 143.986 78.6254 144.369C79.0177 144.744 79.2138 145.274 79.2138 145.961C79.2138 146.647 79.0177 147.182 78.6254 147.565C78.2421 147.948 77.7385 148.14 77.1145 148.14C76.4816 148.14 75.9691 147.948 75.5769 147.565C75.1846 147.182 74.9885 146.647 74.9885 145.961ZM77.1011 144.918C76.593 144.918 76.339 145.265 76.339 145.961C76.339 146.665 76.593 147.017 77.1011 147.017C77.6003 147.017 77.8499 146.665 77.8499 145.961C77.8499 145.265 77.6003 144.918 77.1011 144.918Z" fill="#C320E1"/>
<path d="M42.2038 109.925C42.2038 110.62 42.0233 111.276 41.6623 111.891C41.3147 112.492 40.7932 112.994 40.0979 113.395C39.416 113.783 38.607 114.01 37.6711 114.077V115.701H36.3874V114.057C35.0503 113.936 33.974 113.535 33.1583 112.853C32.3427 112.158 31.9215 111.222 31.8948 110.045H34.9033C34.9835 111.008 35.4782 111.59 36.3874 111.79V107.96C35.4247 107.719 34.6492 107.478 34.0609 107.237C33.4726 106.997 32.9645 106.609 32.5366 106.074C32.1087 105.539 31.8948 104.811 31.8948 103.888C31.8948 102.725 32.3093 101.775 33.1383 101.04C33.9807 100.305 35.0637 99.8834 36.3874 99.7765V98.1519H37.6711V99.7765C38.9547 99.8834 39.9776 100.271 40.7397 100.94C41.5152 101.608 41.9498 102.531 42.0434 103.708H39.0148C38.9747 103.32 38.8343 102.986 38.5937 102.705C38.3664 102.411 38.0588 102.203 37.6711 102.083V105.874C38.6739 106.128 39.4628 106.375 40.0377 106.616C40.6261 106.843 41.1342 107.224 41.562 107.759C41.9899 108.28 42.2038 109.002 42.2038 109.925ZM34.823 103.748C34.823 104.189 34.9567 104.55 35.2242 104.831C35.4916 105.098 35.8793 105.319 36.3874 105.493V102.023C35.9061 102.09 35.525 102.27 35.2442 102.564C34.9634 102.858 34.823 103.253 34.823 103.748ZM37.6711 111.83C38.1792 111.737 38.5736 111.53 38.8544 111.209C39.1486 110.888 39.2956 110.5 39.2956 110.045C39.2956 109.604 39.1552 109.25 38.8745 108.982C38.5937 108.715 38.1925 108.494 37.6711 108.321V111.83ZM55.2465 101.762H48.7482V105.192C49.029 104.844 49.4301 104.563 49.9516 104.349C50.4731 104.122 51.028 104.008 51.6163 104.008C52.686 104.008 53.5618 104.242 54.2437 104.71C54.9256 105.178 55.4204 105.78 55.7279 106.515C56.0354 107.237 56.1892 108.013 56.1892 108.842C56.1892 110.38 55.7479 111.616 54.8655 112.552C53.9963 113.488 52.7528 113.956 51.1349 113.956C49.6106 113.956 48.3939 113.575 47.4847 112.813C46.5754 112.051 46.0606 111.055 45.9403 109.825H48.668C48.7883 110.36 49.0557 110.787 49.4703 111.108C49.8981 111.429 50.4396 111.59 51.0948 111.59C51.8837 111.59 52.4787 111.342 52.8799 110.848C53.281 110.353 53.4816 109.698 53.4816 108.882C53.4816 108.053 53.2743 107.425 52.8598 106.997C52.4587 106.556 51.8637 106.335 51.0748 106.335C50.5132 106.335 50.0452 106.475 49.6708 106.756C49.2964 107.037 49.029 107.411 48.8686 107.879H46.181V99.2951H55.2465V101.762ZM59.6099 110.787C60.8935 109.718 61.9164 108.829 62.6786 108.12C63.4407 107.398 64.0758 106.649 64.5839 105.874C65.092 105.098 65.3461 104.336 65.3461 103.587C65.3461 102.905 65.1856 102.37 64.8647 101.983C64.5438 101.595 64.0491 101.401 63.3805 101.401C62.712 101.401 62.1972 101.628 61.8362 102.083C61.4752 102.524 61.288 103.133 61.2746 103.908H58.5469C58.6004 102.304 59.0751 101.087 59.9709 100.258C60.8802 99.4288 62.0301 99.0143 63.4207 99.0143C64.945 99.0143 66.1149 99.4221 66.9305 100.238C67.7462 101.04 68.154 102.103 68.154 103.427C68.154 104.47 67.8732 105.466 67.3116 106.415C66.75 107.365 66.1082 108.194 65.3862 108.902C64.6642 109.597 63.7215 110.44 62.5582 111.429H68.4749V113.756H58.567V111.67L59.6099 110.787ZM74.0349 111.008L71.6883 116.644H69.8832L71.1869 111.008H74.0349ZM77.0215 110.787C78.3051 109.718 79.328 108.829 80.0901 108.12C80.8523 107.398 81.4874 106.649 81.9955 105.874C82.5036 105.098 82.7577 104.336 82.7577 103.587C82.7577 102.905 82.5972 102.37 82.2763 101.983C81.9554 101.595 81.4607 101.401 80.7921 101.401C80.1236 101.401 79.6088 101.628 79.2478 102.083C78.8867 102.524 78.6995 103.133 78.6862 103.908H75.9585C76.012 102.304 76.4866 101.087 77.3825 100.258C78.2917 99.4288 79.4416 99.0143 80.8322 99.0143C82.3565 99.0143 83.5265 99.4221 84.3421 100.238C85.1577 101.04 85.5656 102.103 85.5656 103.427C85.5656 104.47 85.2848 105.466 84.7232 106.415C84.1616 107.365 83.5198 108.194 82.7978 108.902C82.0757 109.597 81.1331 110.44 79.9698 111.429H85.8865V113.756H75.9785V111.67L77.0215 110.787ZM91.3061 109.845C91.4131 110.433 91.6538 110.888 92.0282 111.209C92.4159 111.516 92.9307 111.67 93.5725 111.67C94.4015 111.67 95.0032 111.329 95.3776 110.647C95.752 109.952 95.9392 108.789 95.9392 107.157C95.6316 107.585 95.1971 107.919 94.6355 108.16C94.0873 108.401 93.4923 108.521 92.8505 108.521C91.9947 108.521 91.2192 108.347 90.5239 108C89.842 107.639 89.3005 107.11 88.8993 106.415C88.4982 105.707 88.2976 104.851 88.2976 103.848C88.2976 102.364 88.7389 101.187 89.6214 100.318C90.5039 99.4355 91.7073 98.9943 93.2315 98.9943C95.1302 98.9943 96.4673 99.6026 97.2429 100.819C98.0317 102.036 98.4262 103.868 98.4262 106.315C98.4262 108.053 98.2724 109.477 97.9649 110.587C97.6707 111.697 97.1559 112.539 96.4205 113.114C95.6985 113.689 94.709 113.976 93.4522 113.976C92.4627 113.976 91.6203 113.789 90.925 113.415C90.2298 113.027 89.6949 112.526 89.3205 111.911C88.9595 111.282 88.7523 110.594 88.6988 109.845H91.3061ZM93.4321 106.235C94.1274 106.235 94.6756 106.021 95.0767 105.593C95.4779 105.165 95.6784 104.59 95.6784 103.868C95.6784 103.079 95.4645 102.471 95.0366 102.043C94.6221 101.602 94.0539 101.381 93.3318 101.381C92.6098 101.381 92.0348 101.608 91.607 102.063C91.1925 102.504 90.9852 103.092 90.9852 103.828C90.9852 104.537 91.1858 105.118 91.5869 105.573C92.0014 106.014 92.6165 106.235 93.4321 106.235ZM100.672 101.923V99.3352H105.506V113.956H102.618V101.923H100.672Z" fill="white"/>
<path d="M98.3593 36.2105V37.9372H95.517V46.8767H93.3777V37.9372H90.5354V36.2105H98.3593ZM103.679 47.0142C102.864 47.0142 102.131 46.836 101.479 46.4794C100.827 46.1127 100.313 45.5982 99.9356 44.936C99.5688 44.2738 99.3854 43.5098 99.3854 42.6438C99.3854 41.7779 99.5739 41.0138 99.9508 40.3517C100.338 39.6895 100.863 39.1801 101.525 38.8235C102.187 38.4568 102.926 38.2734 103.741 38.2734C104.556 38.2734 105.294 38.4568 105.956 38.8235C106.619 39.1801 107.138 39.6895 107.515 40.3517C107.902 41.0138 108.096 41.7779 108.096 42.6438C108.096 43.5098 107.897 44.2738 107.5 44.936C107.113 45.5982 106.583 46.1127 105.91 46.4794C105.248 46.836 104.505 47.0142 103.679 47.0142ZM103.679 45.1499C104.067 45.1499 104.428 45.0583 104.764 44.8749C105.111 44.6813 105.386 44.3961 105.59 44.0191C105.793 43.6422 105.895 43.1838 105.895 42.6438C105.895 41.839 105.681 41.2227 105.253 40.7948C104.836 40.3567 104.321 40.1377 103.71 40.1377C103.099 40.1377 102.584 40.3567 102.167 40.7948C101.759 41.2227 101.555 41.839 101.555 42.6438C101.555 43.4486 101.754 44.0701 102.151 44.5081C102.559 44.936 103.068 45.1499 103.679 45.1499ZM112.156 40.1683V44.2636C112.156 44.5489 112.222 44.7577 112.354 44.8902C112.497 45.0124 112.731 45.0735 113.057 45.0735H114.051V46.8767H112.706C110.903 46.8767 110.001 46.0006 110.001 44.2483V40.1683H108.993V38.4109H110.001V36.3174H112.156V38.4109H114.051V40.1683H112.156ZM115.039 42.6133C115.039 41.7575 115.207 40.9986 115.544 40.3364C115.89 39.6742 116.353 39.1648 116.934 38.8083C117.525 38.4517 118.182 38.2734 118.905 38.2734C119.537 38.2734 120.087 38.4008 120.556 38.6554C121.035 38.9101 121.417 39.231 121.702 39.6182V38.4109H123.857V46.8767H121.702V45.6389C121.427 46.0362 121.045 46.3673 120.556 46.6322C120.077 46.8869 119.522 47.0142 118.89 47.0142C118.177 47.0142 117.525 46.8309 116.934 46.4641C116.353 46.0974 115.89 45.5829 115.544 44.9207C115.207 44.2483 115.039 43.4792 115.039 42.6133ZM121.702 42.6438C121.702 42.1243 121.6 41.6811 121.396 41.3144C121.193 40.9374 120.917 40.6522 120.571 40.4586C120.225 40.2549 119.853 40.153 119.456 40.153C119.058 40.153 118.692 40.2498 118.355 40.4433C118.019 40.6369 117.744 40.9222 117.53 41.2991C117.326 41.6658 117.225 42.1039 117.225 42.6133C117.225 43.1226 117.326 43.5709 117.53 43.958C117.744 44.3349 118.019 44.6253 118.355 44.829C118.702 45.0328 119.068 45.1347 119.456 45.1347C119.853 45.1347 120.225 45.0379 120.571 44.8443C120.917 44.6406 121.193 44.3553 121.396 43.9886C121.6 43.6116 121.702 43.1634 121.702 42.6438ZM128.085 35.5687V46.8767H125.946V35.5687H128.085ZM148.098 36.2105L145.118 46.8767H142.596L140.595 39.282L138.501 46.8767L135.995 46.892L133.122 36.2105H135.414L137.294 44.4928L139.464 36.2105H141.848L143.895 44.447L145.79 36.2105H148.098ZM150.579 37.4024C150.203 37.4024 149.887 37.2852 149.632 37.0509C149.388 36.8064 149.265 36.5059 149.265 36.1493C149.265 35.7928 149.388 35.4973 149.632 35.263C149.887 35.0185 150.203 34.8963 150.579 34.8963C150.956 34.8963 151.267 35.0185 151.512 35.263C151.766 35.4973 151.894 35.7928 151.894 36.1493C151.894 36.5059 151.766 36.8064 151.512 37.0509C151.267 37.2852 150.956 37.4024 150.579 37.4024ZM151.634 38.4109V46.8767H149.495V38.4109H151.634ZM153.197 42.6133C153.197 41.7575 153.366 40.9986 153.702 40.3364C154.048 39.6742 154.517 39.1648 155.108 38.8083C155.698 38.4517 156.356 38.2734 157.079 38.2734C157.629 38.2734 158.154 38.3957 158.653 38.6402C159.152 38.8745 159.549 39.1903 159.845 39.5876V35.5687H162.015V46.8767H159.845V45.6237C159.58 46.0413 159.208 46.3775 158.729 46.6322C158.25 46.8869 157.695 47.0142 157.064 47.0142C156.35 47.0142 155.698 46.8309 155.108 46.4641C154.517 46.0974 154.048 45.5829 153.702 44.9207C153.366 44.2483 153.197 43.4792 153.197 42.6133ZM159.86 42.6438C159.86 42.1243 159.758 41.6811 159.554 41.3144C159.351 40.9374 159.076 40.6522 158.729 40.4586C158.383 40.2549 158.011 40.153 157.614 40.153C157.216 40.153 156.85 40.2498 156.513 40.4433C156.177 40.6369 155.902 40.9222 155.688 41.2991C155.485 41.6658 155.383 42.1039 155.383 42.6133C155.383 43.1226 155.485 43.5709 155.688 43.958C155.902 44.3349 156.177 44.6253 156.513 44.829C156.86 45.0328 157.227 45.1347 157.614 45.1347C158.011 45.1347 158.383 45.0379 158.729 44.8443C159.076 44.6406 159.351 44.3553 159.554 43.9886C159.758 43.6116 159.86 43.1634 159.86 42.6438ZM166.243 39.7251C166.519 39.2769 166.875 38.9254 167.313 38.6707C167.761 38.416 168.271 38.2887 168.841 38.2887V40.535H168.276C167.604 40.535 167.094 40.6929 166.748 41.0087C166.412 41.3246 166.243 41.8747 166.243 42.6591V46.8767H164.104V38.4109H166.243V39.7251ZM169.732 42.6133C169.732 41.7575 169.9 40.9986 170.236 40.3364C170.583 39.6742 171.046 39.1648 171.627 38.8083C172.218 38.4517 172.875 38.2734 173.598 38.2734C174.23 38.2734 174.78 38.4008 175.249 38.6554C175.727 38.9101 176.109 39.231 176.395 39.6182V38.4109H178.549V46.8767H176.395V45.6389C176.12 46.0362 175.738 46.3673 175.249 46.6322C174.77 46.8869 174.215 47.0142 173.583 47.0142C172.87 47.0142 172.218 46.8309 171.627 46.4641C171.046 46.0974 170.583 45.5829 170.236 44.9207C169.9 44.2483 169.732 43.4792 169.732 42.6133ZM176.395 42.6438C176.395 42.1243 176.293 41.6811 176.089 41.3144C175.885 40.9374 175.61 40.6522 175.264 40.4586C174.918 40.2549 174.546 40.153 174.148 40.153C173.751 40.153 173.384 40.2498 173.048 40.4433C172.712 40.6369 172.437 40.9222 172.223 41.2991C172.019 41.6658 171.917 42.1039 171.917 42.6133C171.917 43.1226 172.019 43.5709 172.223 43.958C172.437 44.3349 172.712 44.6253 173.048 44.829C173.395 45.0328 173.761 45.1347 174.148 45.1347C174.546 45.1347 174.918 45.0379 175.264 44.8443C175.61 44.6406 175.885 44.3553 176.089 43.9886C176.293 43.6116 176.395 43.1634 176.395 42.6438ZM192.375 38.4109L189.899 46.8767H187.592L186.048 40.9629L184.505 46.8767H182.182L179.691 38.4109H181.861L183.359 44.8596L184.979 38.4109H187.24L188.83 44.8443L190.327 38.4109H192.375Z" fill="white"/>
<path opacity="0.6" d="M94.9287 67.4145C95.2191 67.4603 95.4827 67.5788 95.7195 67.7698C95.964 67.9608 96.155 68.1976 96.2926 68.4803C96.4377 68.763 96.5103 69.0648 96.5103 69.3857C96.5103 69.7907 96.4072 70.1574 96.2009 70.486C95.9946 70.8069 95.6928 71.0629 95.2955 71.2539C94.9058 71.4372 94.4435 71.5289 93.9087 71.5289H90.9289V63.5407H93.7941C94.3366 63.5407 94.7988 63.6324 95.1809 63.8158C95.5629 63.9915 95.8494 64.2322 96.0404 64.5378C96.2314 64.8434 96.3269 65.1872 96.3269 65.5693C96.3269 66.043 96.1971 66.4365 95.9373 66.7497C95.6851 67.0554 95.3489 67.2769 94.9287 67.4145ZM91.9718 66.9904H93.7253C94.2143 66.9904 94.5925 66.8758 94.86 66.6466C95.1274 66.4174 95.2611 66.1003 95.2611 65.6953C95.2611 65.2904 95.1274 64.9733 94.86 64.7441C94.5925 64.5149 94.2067 64.4003 93.7024 64.4003H91.9718V66.9904ZM93.817 70.6694C94.3366 70.6694 94.7415 70.5471 95.0319 70.3026C95.3222 70.0581 95.4674 69.7181 95.4674 69.2826C95.4674 68.8394 95.3146 68.4918 95.0089 68.2397C94.7033 67.9799 94.2945 67.85 93.7826 67.85H91.9718V70.6694H93.817ZM102.874 63.5407V64.3888H100.697V71.5289H99.6538V64.3888H97.4648V63.5407H102.874ZM103.768 67.5291C103.768 66.7497 103.944 66.0506 104.296 65.4317C104.647 64.8052 105.125 64.3162 105.728 63.9648C106.34 63.6133 107.016 63.4376 107.757 63.4376C108.628 63.4376 109.388 63.6477 110.038 64.0679C110.687 64.4881 111.161 65.0841 111.459 65.8558H110.209C109.988 65.3744 109.667 65.0039 109.247 64.7441C108.834 64.4843 108.338 64.3544 107.757 64.3544C107.199 64.3544 106.699 64.4843 106.255 64.7441C105.812 65.0039 105.465 65.3744 105.213 65.8558C104.96 66.3295 104.834 66.8873 104.834 67.5291C104.834 68.1633 104.96 68.721 105.213 69.2024C105.465 69.6761 105.812 70.0428 106.255 70.3026C106.699 70.5624 107.199 70.6923 107.757 70.6923C108.338 70.6923 108.834 70.5662 109.247 70.3141C109.667 70.0543 109.988 69.6837 110.209 69.2024H111.459C111.161 69.9664 110.687 70.5586 110.038 70.9788C109.388 71.3914 108.628 71.5977 107.757 71.5977C107.016 71.5977 106.34 71.4258 105.728 71.082C105.125 70.7305 104.647 70.2453 104.296 69.6264C103.944 69.0075 103.768 68.3084 103.768 67.5291Z" fill="#FBB315"/>
<rect x="27.9666" y="27.0115" width="51.5739" height="51.5739" rx="25.787" fill="#31353F" stroke="#4DF3E2" stroke-width="0.955072"/>
<path d="M47.6023 66.4874C44.5715 66.4874 42.0884 64.2843 42.0884 61.5719V58.9741C42.0884 58.452 42.5213 58.019 43.0435 58.019C43.5656 58.019 43.9985 58.452 43.9985 58.9741C43.9985 60.5659 45.5393 61.7629 47.6023 61.7629C49.6652 61.7629 51.2061 60.5659 51.2061 58.9741C51.2061 58.452 51.6391 58.019 52.1612 58.019C52.6833 58.019 53.1162 58.452 53.1162 58.9741V61.5719C53.1162 64.2843 50.6458 66.4874 47.6023 66.4874ZM44.3296 62.8199C44.8899 63.8641 46.1506 64.5772 47.6023 64.5772C49.054 64.5772 50.3147 63.8514 50.875 62.8199C49.9709 63.3675 48.8502 63.6858 47.6023 63.6858C46.3543 63.6858 45.2337 63.3675 44.3296 62.8199Z" fill="white"/>
<path d="M47.6023 60.1837C45.5139 60.1837 43.642 59.2286 42.7123 57.7132C42.3048 57.051 42.0884 56.2742 42.0884 55.4847C42.0884 54.1476 42.6741 52.8996 43.7438 51.97C45.8068 50.1618 49.3596 50.1619 51.4353 51.9574C52.505 52.8998 53.1035 54.1476 53.1035 55.4847C53.1035 56.2742 52.887 57.051 52.4795 57.7132C51.5626 59.2286 49.6907 60.1837 47.6023 60.1837ZM47.6023 52.4795C46.609 52.4795 45.6922 52.8105 45.0045 53.409C44.3551 53.9693 43.9985 54.7079 43.9985 55.4847C43.9985 55.9304 44.1131 56.338 44.3423 56.7201C44.9281 57.6879 46.176 58.2864 47.6023 58.2864C49.0285 58.2864 50.2765 57.6879 50.8495 56.7328C51.0787 56.3635 51.1934 55.9433 51.1934 55.4976C51.1934 54.7208 50.8368 53.9821 50.1874 53.409C49.5125 52.8105 48.5956 52.4795 47.6023 52.4795Z" fill="white"/>
<path d="M47.6023 63.6865C44.4569 63.6865 42.0884 61.6617 42.0884 58.9875V55.4856C42.0884 52.7732 44.5588 50.5701 47.6023 50.5701C49.0413 50.5701 50.4166 51.0668 51.448 51.9582C52.5177 52.9005 53.1162 54.1485 53.1162 55.4856V58.9875C53.1162 61.6617 50.7477 63.6865 47.6023 63.6865ZM47.6023 52.4803C45.6157 52.4803 43.9985 53.8301 43.9985 55.4856V58.9875C43.9985 60.5793 45.5393 61.7763 47.6023 61.7763C49.6652 61.7763 51.2061 60.5793 51.2061 58.9875V55.4856C51.2061 54.7088 50.8496 53.9702 50.2001 53.3971C49.5125 52.8114 48.5956 52.4803 47.6023 52.4803Z" fill="white"/>
<path d="M62.7182 56.3643C60.7953 56.3643 59.1654 54.9381 59.0125 53.1043C58.9107 52.0474 59.2927 51.0159 60.0568 50.2646C60.6935 49.6024 61.5976 49.2331 62.5527 49.2331H65.2141C66.4748 49.2713 67.4427 50.2646 67.4427 51.4871V54.1103C67.4427 55.3328 66.4748 56.3261 65.2524 56.3643H62.7182ZM65.1759 51.1432H62.5654C62.1197 51.1432 61.7122 51.3088 61.4193 51.6144C61.05 51.971 60.8718 52.4549 60.9227 52.9388C60.9864 53.7792 61.8014 54.4542 62.7182 54.4542H65.2141C65.3797 54.4542 65.5325 54.3013 65.5325 54.1103V51.4871C65.5325 51.296 65.3797 51.156 65.1759 51.1432Z" fill="white"/>
<path d="M58.8473 64.5778H55.6637C55.1416 64.5778 54.7087 64.1448 54.7087 63.6227C54.7087 63.1006 55.1416 62.6677 55.6637 62.6677H58.8473C62.1328 62.6677 64.2594 60.541 64.2594 57.2556V56.3642H62.7185C60.7956 56.3642 59.1657 54.9379 59.0128 53.1042C58.911 52.0473 59.2931 51.0158 60.0572 50.2645C60.6939 49.6023 61.5979 49.233 62.553 49.233H64.2466V48.3416C64.2466 45.3617 62.5022 43.3115 59.6752 42.9804C59.3695 42.9295 59.102 42.9295 58.8346 42.9295H47.3737C47.0681 42.9295 46.7752 42.9549 46.4823 42.9932C43.6808 43.3497 41.9617 45.3872 41.9617 48.3416V50.8884C41.9617 51.4105 41.5287 51.8435 41.0066 51.8435C40.4845 51.8435 40.0515 51.4105 40.0515 50.8884V48.3416C40.0515 44.4194 42.4711 41.5797 46.2277 41.1085C46.5715 41.0576 46.9662 41.0193 47.3737 41.0193H58.8346C59.1402 41.0193 59.535 41.0321 59.9425 41.0958C63.6991 41.5287 66.1568 44.3812 66.1568 48.3416V50.1881C66.1568 50.7102 65.7238 51.1431 65.2017 51.1431H62.553C62.1073 51.1431 61.6999 51.3087 61.407 51.6143C61.0377 51.9708 60.8593 52.4547 60.9103 52.9387C60.9739 53.7791 61.7891 54.454 62.7059 54.454H65.2145C65.7366 54.454 66.1695 54.887 66.1695 55.4091V57.2556C66.1695 61.6362 63.2279 64.5778 58.8473 64.5778Z" fill="white"/>
<path d="M389.948 47.4041L387.649 45.1048L386.245 43.6936C385.65 43.0991 384.683 43.0991 384.089 43.6936L380.378 47.4041C379.891 47.8912 380.242 48.7221 380.923 48.7221H384.941H389.404C390.091 48.7221 390.435 47.8912 389.948 47.4041Z" fill="#1ECB4F"/>
<g filter="url(#filter1_f_3_330)">
<circle cx="388.984" cy="117.616" r="4.77536" fill="#C320E1"/>
</g>
<path d="M287.746 145.791L294.909 123.824L303.027 133.853L307.803 117.139L316.399 133.853L329.292 101.38L341.708 123.824L355.556 117.139L366.54 128.122L376.091 104.723L383.254 117.139H389.939" stroke="#C320E1" stroke-width="1.91014" stroke-linecap="round"/>
<defs>
<filter id="filter0_bd_3_330" x="-14" y="-14" width="457.367" height="210.003" filterUnits="userSpaceOnUse" color-interpolation-filters="sRGB">
<feFlood flood-opacity="0" result="BackgroundImageFix"/>
<feGaussianBlur in="BackgroundImageFix" stdDeviation="10"/>
<feComposite in2="SourceAlpha" operator="in" result="effect1_backgroundBlur_3_330"/>
<feColorMatrix in="SourceAlpha" type="matrix" values="0 0 0 0 0 0 0 0 0 0 0 0 0 0 0 0 0 0 127 0" result="hardAlpha"/>
<feOffset/>
<feGaussianBlur stdDeviation="3"/>
<feComposite in2="hardAlpha" operator="out"/>
<feColorMatrix type="matrix" values="0 0 0 0 0.371944 0 0 0 0 0.371944 0 0 0 0 0.433333 0 0 0 1 0"/>
<feBlend mode="normal" in2="effect1_backgroundBlur_3_330" result="effect2_dropShadow_3_330"/>
<feBlend mode="normal" in="SourceGraphic" in2="effect2_dropShadow_3_330" result="shape"/>
</filter>
<filter id="filter1_f_3_330" x="379.433" y="108.066" width="19.1015" height="19.1014" filterUnits="userSpaceOnUse" color-interpolation-filters="sRGB">
<feFlood flood-opacity="0" result="BackgroundImageFix"/>
<feBlend mode="normal" in="SourceGraphic" in2="BackgroundImageFix" result="shape"/>
<feGaussianBlur stdDeviation="2.38768" result="effect1_foregroundBlur_3_330"/>
</filter>
</defs>
</svg>
