<svg width="431" height="183" viewBox="0 0 431 183" fill="none" xmlns="http://www.w3.org/2000/svg">
<g opacity="0.6" filter="url(#filter0_bd_3_287)">
<rect x="6.79443" y="6" width="417.367" height="170.003" rx="8" fill="#2B2D50"/>
</g>
<path d="M38.5868 144.035H36.0597V146.629H34.2947V144.035H31.7676V142.404H34.2947V139.81H36.0597V142.404H38.5868V144.035ZM40.657 142.979C40.657 141.437 40.9333 140.229 41.486 139.355C42.0476 138.482 42.9746 138.045 44.2672 138.045C45.5597 138.045 46.4823 138.482 47.035 139.355C47.5965 140.229 47.8773 141.437 47.8773 142.979C47.8773 144.53 47.5965 145.747 47.035 146.629C46.4823 147.512 45.5597 147.953 44.2672 147.953C42.9746 147.953 42.0476 147.512 41.486 146.629C40.9333 145.747 40.657 144.53 40.657 142.979ZM46.0321 142.979C46.0321 142.319 45.9876 141.767 45.8984 141.321C45.8182 140.866 45.6488 140.496 45.3903 140.211C45.1407 139.926 44.7664 139.783 44.2672 139.783C43.768 139.783 43.3891 139.926 43.1306 140.211C42.881 140.496 42.7117 140.866 42.6225 141.321C42.5423 141.767 42.5022 142.319 42.5022 142.979C42.5022 143.656 42.5423 144.227 42.6225 144.69C42.7028 145.145 42.8721 145.515 43.1306 145.8C43.3891 146.077 43.768 146.215 44.2672 146.215C44.7664 146.215 45.1452 146.077 45.4037 145.8C45.6622 145.515 45.8316 145.145 45.9118 144.69C45.992 144.227 46.0321 143.656 46.0321 142.979ZM50.6115 148.073C50.2728 148.073 49.992 147.971 49.7691 147.766C49.5552 147.552 49.4482 147.289 49.4482 146.977C49.4482 146.665 49.5552 146.406 49.7691 146.201C49.992 145.987 50.2728 145.88 50.6115 145.88C50.9413 145.88 51.2132 145.987 51.4271 146.201C51.6411 146.406 51.748 146.665 51.748 146.977C51.748 147.289 51.6411 147.552 51.4271 147.766C51.2132 147.971 50.9413 148.073 50.6115 148.073ZM53.8976 145.867C54.7534 145.154 55.4353 144.561 55.9434 144.089C56.4515 143.607 56.8749 143.108 57.2137 142.591C57.5524 142.074 57.7217 141.566 57.7217 141.067C57.7217 140.612 57.6148 140.256 57.4008 139.997C57.1869 139.739 56.8571 139.609 56.4114 139.609C55.9657 139.609 55.6225 139.761 55.3818 140.064C55.1411 140.358 55.0163 140.764 55.0074 141.281H53.189C53.2246 140.211 53.5411 139.4 54.1383 138.847C54.7445 138.295 55.5111 138.018 56.4381 138.018C57.4543 138.018 58.2343 138.29 58.7781 138.834C59.3218 139.369 59.5937 140.077 59.5937 140.96C59.5937 141.655 59.4065 142.319 59.0321 142.952C58.6577 143.585 58.2298 144.138 57.7485 144.61C57.2671 145.074 56.6387 145.635 55.8632 146.295H59.8076V147.846H53.2023V146.455L53.8976 145.867ZM67.8064 139.85H63.4742V142.137C63.6614 141.905 63.9288 141.718 64.2765 141.575C64.6241 141.423 64.9941 141.348 65.3863 141.348C66.0994 141.348 66.6833 141.504 67.1379 141.816C67.5925 142.128 67.9223 142.529 68.1273 143.019C68.3323 143.5 68.4349 144.017 68.4349 144.57C68.4349 145.595 68.1407 146.42 67.5524 147.044C66.973 147.668 66.144 147.98 65.0654 147.98C64.0492 147.98 63.238 147.726 62.6318 147.218C62.0257 146.709 61.6825 146.045 61.6023 145.225H63.4207C63.501 145.582 63.6792 145.867 63.9556 146.081C64.2408 146.295 64.6018 146.402 65.0386 146.402C65.5645 146.402 65.9612 146.237 66.2286 145.907C66.4961 145.577 66.6298 145.141 66.6298 144.597C66.6298 144.044 66.4916 143.625 66.2153 143.34C65.9478 143.046 65.5512 142.899 65.0252 142.899C64.6509 142.899 64.3389 142.992 64.0893 143.18C63.8397 143.367 63.6614 143.616 63.5544 143.928H61.7627V138.206H67.8064V139.85ZM69.9131 140.626C69.9131 139.948 70.1092 139.418 70.5014 139.035C70.9025 138.651 71.4151 138.46 72.0391 138.46C72.6631 138.46 73.1712 138.651 73.5634 139.035C73.9645 139.418 74.1651 139.948 74.1651 140.626C74.1651 141.312 73.9645 141.847 73.5634 142.23C73.1712 142.614 72.6631 142.805 72.0391 142.805C71.4151 142.805 70.9025 142.614 70.5014 142.23C70.1092 141.847 69.9131 141.312 69.9131 140.626ZM78.4973 138.62L73.2425 147.98H71.424L76.6654 138.62H78.4973ZM72.0257 139.583C71.5354 139.583 71.2903 139.93 71.2903 140.626C71.2903 141.33 71.5354 141.682 72.0257 141.682C72.2664 141.682 72.4536 141.597 72.5873 141.428C72.721 141.25 72.7879 140.982 72.7879 140.626C72.7879 139.93 72.5338 139.583 72.0257 139.583ZM75.783 145.961C75.783 145.274 75.9791 144.744 76.3713 144.37C76.7724 143.986 77.285 143.795 77.909 143.795C78.5329 143.795 79.0366 143.986 79.4199 144.37C79.8121 144.744 80.0082 145.274 80.0082 145.961C80.0082 146.647 79.8121 147.182 79.4199 147.565C79.0366 147.949 78.5329 148.14 77.909 148.14C77.2761 148.14 76.7635 147.949 76.3713 147.565C75.9791 147.182 75.783 146.647 75.783 145.961ZM77.8956 144.918C77.3875 144.918 77.1334 145.265 77.1334 145.961C77.1334 146.665 77.3875 147.017 77.8956 147.017C78.3948 147.017 78.6444 146.665 78.6444 145.961C78.6444 145.265 78.3948 144.918 77.8956 144.918Z" fill="#4DF3E2"/>
<path d="M42.9983 109.925C42.9983 110.62 42.8178 111.276 42.4567 111.891C42.1091 112.492 41.5876 112.994 40.8923 113.395C40.2104 113.783 39.4015 114.01 38.4655 114.077V115.701H37.1819V114.057C35.8448 113.936 34.7684 113.535 33.9528 112.853C33.1371 112.158 32.716 111.222 32.6892 110.046H35.6977C35.7779 111.008 36.2726 111.59 37.1819 111.79V107.96C36.2192 107.719 35.4436 107.478 34.8553 107.238C34.267 106.997 33.7589 106.609 33.331 106.074C32.9032 105.539 32.6892 104.811 32.6892 103.888C32.6892 102.725 33.1037 101.776 33.9327 101.04C34.7751 100.305 35.8581 99.8835 37.1819 99.7766V98.152H38.4655V99.7766C39.7491 99.8835 40.772 100.271 41.5341 100.94C42.3097 101.608 42.7442 102.531 42.8378 103.708H39.8093C39.7692 103.32 39.6288 102.986 39.3881 102.705C39.1608 102.411 38.8533 102.203 38.4655 102.083V105.874C39.4683 106.128 40.2572 106.375 40.8322 106.616C41.4205 106.843 41.9286 107.224 42.3565 107.759C42.7843 108.281 42.9983 109.003 42.9983 109.925ZM35.6175 103.748C35.6175 104.189 35.7512 104.55 36.0186 104.831C36.286 105.098 36.6738 105.319 37.1819 105.493V102.023C36.7005 102.09 36.3194 102.27 36.0387 102.564C35.7579 102.859 35.6175 103.253 35.6175 103.748ZM38.4655 111.831C38.9736 111.737 39.368 111.53 39.6488 111.209C39.943 110.888 40.0901 110.5 40.0901 110.046C40.0901 109.604 39.9497 109.25 39.6689 108.983C39.3881 108.715 38.987 108.494 38.4655 108.321V111.831ZM56.041 101.762H49.5427V105.192C49.8234 104.844 50.2246 104.563 50.746 104.349C51.2675 104.122 51.8224 104.009 52.4107 104.009C53.4804 104.009 54.3562 104.243 55.0381 104.71C55.7201 105.178 56.2148 105.78 56.5223 106.516C56.8299 107.238 56.9836 108.013 56.9836 108.842C56.9836 110.38 56.5424 111.617 55.6599 112.553C54.7908 113.489 53.5473 113.957 51.9294 113.957C50.4051 113.957 49.1883 113.575 48.2791 112.813C47.3699 112.051 46.8551 111.055 46.7347 109.825H49.4624C49.5828 110.36 49.8502 110.788 50.2647 111.109C50.6926 111.429 51.2341 111.59 51.8893 111.59C52.6782 111.59 53.2732 111.343 53.6743 110.848C54.0754 110.353 54.276 109.698 54.276 108.882C54.276 108.053 54.0687 107.425 53.6542 106.997C53.2531 106.556 52.6581 106.335 51.8692 106.335C51.3076 106.335 50.8396 106.475 50.4653 106.756C50.0909 107.037 49.8234 107.411 49.663 107.879H46.9754V99.2952H56.041V101.762ZM60.4044 110.788C61.688 109.718 62.7109 108.829 63.473 108.12C64.2351 107.398 64.8703 106.649 65.3784 105.874C65.8865 105.098 66.1405 104.336 66.1405 103.587C66.1405 102.905 65.9801 102.371 65.6592 101.983C65.3383 101.595 64.8435 101.401 64.175 101.401C63.5064 101.401 62.9916 101.628 62.6306 102.083C62.2696 102.524 62.0824 103.133 62.069 103.908H59.3414C59.3948 102.304 59.8695 101.087 60.7654 100.258C61.6746 99.4289 62.8245 99.0144 64.2151 99.0144C65.7394 99.0144 66.9094 99.4222 67.725 100.238C68.5406 101.04 68.9484 102.103 68.9484 103.427C68.9484 104.47 68.6676 105.466 68.1061 106.415C67.5445 107.365 66.9027 108.194 66.1806 108.902C65.4586 109.598 64.5159 110.44 63.3527 111.429H69.2693V113.756H59.3614V111.67L60.4044 110.788ZM74.8294 111.008L72.4828 116.644H70.6777L71.9814 111.008H74.8294ZM77.8159 110.788C79.0995 109.718 80.1224 108.829 80.8846 108.12C81.6467 107.398 82.2818 106.649 82.7899 105.874C83.298 105.098 83.5521 104.336 83.5521 103.587C83.5521 102.905 83.3916 102.371 83.0707 101.983C82.7498 101.595 82.2551 101.401 81.5865 101.401C80.918 101.401 80.4032 101.628 80.0422 102.083C79.6812 102.524 79.494 103.133 79.4806 103.908H76.7529C76.8064 102.304 77.2811 101.087 78.1769 100.258C79.0862 99.4289 80.2361 99.0144 81.6267 99.0144C83.151 99.0144 84.3209 99.4222 85.1366 100.238C85.9522 101.04 86.36 102.103 86.36 103.427C86.36 104.47 86.0792 105.466 85.5176 106.415C84.956 107.365 84.3142 108.194 83.5922 108.902C82.8702 109.598 81.9275 110.44 80.7642 111.429H86.6809V113.756H76.773V111.67L77.8159 110.788ZM92.1006 109.845C92.2075 110.433 92.4482 110.888 92.8226 111.209C93.2103 111.516 93.7251 111.67 94.3669 111.67C95.1959 111.67 95.7976 111.329 96.172 110.647C96.5464 109.952 96.7336 108.789 96.7336 107.157C96.4261 107.585 95.9915 107.92 95.4299 108.16C94.8817 108.401 94.2867 108.521 93.6449 108.521C92.7892 108.521 92.0136 108.347 91.3184 108C90.6364 107.639 90.0949 107.111 89.6938 106.415C89.2926 105.707 89.0921 104.851 89.0921 103.848C89.0921 102.364 89.5333 101.187 90.4158 100.318C91.2983 99.4356 92.5017 98.9944 94.026 98.9944C95.9247 98.9944 97.2618 99.6028 98.0373 100.82C98.8262 102.036 99.2206 103.868 99.2206 106.315C99.2206 108.053 99.0669 109.477 98.7593 110.587C98.4652 111.697 97.9504 112.539 97.215 113.114C96.4929 113.689 95.5035 113.977 94.2466 113.977C93.2571 113.977 92.4148 113.789 91.7195 113.415C91.0242 113.027 90.4893 112.526 90.115 111.911C89.7539 111.282 89.5467 110.594 89.4932 109.845H92.1006ZM94.2265 106.235C94.9218 106.235 95.4701 106.021 95.8712 105.593C96.2723 105.165 96.4729 104.59 96.4729 103.868C96.4729 103.079 96.2589 102.471 95.8311 102.043C95.4166 101.602 94.8483 101.381 94.1263 101.381C93.4042 101.381 92.8293 101.608 92.4014 102.063C91.9869 102.504 91.7797 103.093 91.7797 103.828C91.7797 104.537 91.9802 105.118 92.3813 105.573C92.7958 106.014 93.4109 106.235 94.2265 106.235ZM101.466 101.923V99.3353H106.3V113.957H103.412V101.923H101.466Z" fill="white"/>
<path d="M99.1538 36.2106V37.9374H96.3115V46.8768H94.1721V37.9374H91.3298V36.2106H99.1538ZM104.474 47.0144C103.659 47.0144 102.925 46.8361 102.273 46.4795C101.621 46.1128 101.107 45.5983 100.73 44.9361C100.363 44.2739 100.18 43.5099 100.18 42.6439C100.18 41.778 100.368 41.014 100.745 40.3518C101.132 39.6896 101.657 39.1802 102.319 38.8237C102.981 38.4569 103.72 38.2735 104.535 38.2735C105.35 38.2735 106.089 38.4569 106.751 38.8237C107.413 39.1802 107.933 39.6896 108.309 40.3518C108.697 41.014 108.89 41.778 108.89 42.6439C108.89 43.5099 108.691 44.2739 108.294 44.9361C107.907 45.5983 107.377 46.1128 106.705 46.4795C106.043 46.8361 105.299 47.0144 104.474 47.0144ZM104.474 45.1501C104.861 45.1501 105.223 45.0584 105.559 44.875C105.905 44.6814 106.18 44.3962 106.384 44.0193C106.588 43.6423 106.69 43.1839 106.69 42.6439C106.69 41.8391 106.476 41.2228 106.048 40.7949C105.63 40.3569 105.116 40.1378 104.504 40.1378C103.893 40.1378 103.379 40.3569 102.961 40.7949C102.554 41.2228 102.35 41.8391 102.35 42.6439C102.35 43.4488 102.548 44.0702 102.946 44.5083C103.353 44.9361 103.863 45.1501 104.474 45.1501ZM112.95 40.1684V44.2638C112.95 44.549 113.016 44.7578 113.149 44.8903C113.292 45.0125 113.526 45.0737 113.852 45.0737H114.845V46.8768H113.5C111.697 46.8768 110.796 46.0007 110.796 44.2485V40.1684H109.787V38.4111H110.796V36.3175H112.95V38.4111H114.845V40.1684H112.95ZM115.834 42.6134C115.834 41.7576 116.002 40.9987 116.338 40.3365C116.684 39.6743 117.148 39.1649 117.729 38.8084C118.319 38.4518 118.977 38.2735 119.7 38.2735C120.332 38.2735 120.882 38.4009 121.35 38.6556C121.829 38.9103 122.211 39.2312 122.496 39.6183V38.4111H124.651V46.8768H122.496V45.6391C122.221 46.0364 121.839 46.3675 121.35 46.6323C120.871 46.887 120.316 47.0144 119.685 47.0144C118.971 47.0144 118.319 46.831 117.729 46.4642C117.148 46.0975 116.684 45.583 116.338 44.9208C116.002 44.2485 115.834 43.4793 115.834 42.6134ZM122.496 42.6439C122.496 42.1244 122.394 41.6812 122.191 41.3145C121.987 40.9376 121.712 40.6523 121.366 40.4587C121.019 40.255 120.647 40.1531 120.25 40.1531C119.853 40.1531 119.486 40.2499 119.15 40.4435C118.814 40.637 118.539 40.9223 118.325 41.2992C118.121 41.666 118.019 42.104 118.019 42.6134C118.019 43.1228 118.121 43.571 118.325 43.9581C118.539 44.3351 118.814 44.6254 119.15 44.8292C119.496 45.0329 119.863 45.1348 120.25 45.1348C120.647 45.1348 121.019 45.038 121.366 44.8444C121.712 44.6407 121.987 44.3554 122.191 43.9887C122.394 43.6118 122.496 43.1635 122.496 42.6439ZM128.88 35.5688V46.8768H126.74V35.5688H128.88ZM138.363 36.2106C139.484 36.2106 140.467 36.4296 141.313 36.8677C142.168 37.3057 142.825 37.9323 143.284 38.7473C143.752 39.5521 143.987 40.4893 143.987 41.559C143.987 42.6287 143.752 43.5659 143.284 44.3707C142.825 45.1653 142.168 45.7817 141.313 46.2197C140.467 46.6578 139.484 46.8768 138.363 46.8768H134.635V36.2106H138.363ZM138.287 45.0584C139.408 45.0584 140.273 44.7527 140.885 44.1415C141.496 43.5303 141.802 42.6694 141.802 41.559C141.802 40.4486 141.496 39.5826 140.885 38.9612C140.273 38.3296 139.408 38.0138 138.287 38.0138H136.774V45.0584H138.287ZM153.458 42.4606C153.458 42.7662 153.438 43.0413 153.397 43.2858H147.208C147.259 43.897 147.473 44.3758 147.85 44.7222C148.227 45.0686 148.69 45.2417 149.24 45.2417C150.035 45.2417 150.6 44.9005 150.937 44.2179H153.244C153 45.0329 152.531 45.7053 151.838 46.235C151.145 46.7546 150.295 47.0144 149.286 47.0144C148.471 47.0144 147.738 46.8361 147.086 46.4795C146.444 46.1128 145.94 45.5983 145.573 44.9361C145.216 44.2739 145.038 43.5099 145.038 42.6439C145.038 41.7678 145.216 40.9987 145.573 40.3365C145.929 39.6743 146.429 39.1649 147.07 38.8084C147.712 38.4518 148.451 38.2735 149.286 38.2735C150.091 38.2735 150.809 38.4467 151.441 38.7931C152.083 39.1395 152.577 39.6336 152.923 40.2754C153.28 40.907 153.458 41.6354 153.458 42.4606ZM151.242 41.8493C151.232 41.2992 151.033 40.8611 150.646 40.5351C150.259 40.199 149.785 40.0309 149.225 40.0309C148.695 40.0309 148.247 40.1939 147.88 40.5199C147.524 40.8357 147.305 41.2788 147.223 41.8493H151.242ZM157.159 39.6336C157.434 39.2464 157.811 38.9255 158.29 38.6708C158.779 38.406 159.334 38.2735 159.955 38.2735C160.679 38.2735 161.331 38.4518 161.911 38.8084C162.502 39.1649 162.966 39.6743 163.302 40.3365C163.648 40.9885 163.821 41.7475 163.821 42.6134C163.821 43.4793 163.648 44.2485 163.302 44.9208C162.966 45.583 162.502 46.0975 161.911 46.4642C161.331 46.831 160.679 47.0144 159.955 47.0144C159.334 47.0144 158.784 46.887 158.305 46.6323C157.836 46.3776 157.454 46.0567 157.159 45.6696V50.9111H155.02V38.4111H157.159V39.6336ZM161.636 42.6134C161.636 42.104 161.529 41.666 161.315 41.2992C161.112 40.9223 160.837 40.637 160.49 40.4435C160.154 40.2499 159.787 40.1531 159.39 40.1531C159.003 40.1531 158.636 40.255 158.29 40.4587C157.954 40.6523 157.678 40.9376 157.465 41.3145C157.261 41.6914 157.159 42.1346 157.159 42.6439C157.159 43.1533 157.261 43.5965 157.465 43.9734C157.678 44.3503 157.954 44.6407 158.29 44.8444C158.636 45.038 159.003 45.1348 159.39 45.1348C159.787 45.1348 160.154 45.0329 160.49 44.8292C160.837 44.6254 161.112 44.3351 161.315 43.9581C161.529 43.5812 161.636 43.1329 161.636 42.6134ZM169.135 47.0144C168.32 47.0144 167.587 46.8361 166.935 46.4795C166.283 46.1128 165.768 45.5983 165.391 44.9361C165.025 44.2739 164.841 43.5099 164.841 42.6439C164.841 41.778 165.03 41.014 165.407 40.3518C165.794 39.6896 166.318 39.1802 166.981 38.8237C167.643 38.4569 168.381 38.2735 169.196 38.2735C170.011 38.2735 170.75 38.4569 171.412 38.8237C172.074 39.1802 172.594 39.6896 172.971 40.3518C173.358 41.014 173.552 41.778 173.552 42.6439C173.552 43.5099 173.353 44.2739 172.956 44.9361C172.568 45.5983 172.039 46.1128 171.366 46.4795C170.704 46.8361 169.96 47.0144 169.135 47.0144ZM169.135 45.1501C169.522 45.1501 169.884 45.0584 170.22 44.875C170.567 44.6814 170.842 44.3962 171.045 44.0193C171.249 43.6423 171.351 43.1839 171.351 42.6439C171.351 41.8391 171.137 41.2228 170.709 40.7949C170.292 40.3569 169.777 40.1378 169.166 40.1378C168.555 40.1378 168.04 40.3569 167.622 40.7949C167.215 41.2228 167.011 41.8391 167.011 42.6439C167.011 43.4488 167.21 44.0702 167.607 44.5083C168.015 44.9361 168.524 45.1501 169.135 45.1501ZM178.36 47.0144C177.668 47.0144 177.046 46.8921 176.496 46.6476C175.946 46.3929 175.508 46.0516 175.182 45.6238C174.866 45.1959 174.693 44.7222 174.662 44.2026H176.817C176.858 44.5286 177.016 44.7986 177.291 45.0125C177.576 45.2265 177.927 45.3334 178.345 45.3334C178.753 45.3334 179.068 45.2519 179.293 45.0889C179.527 44.9259 179.644 44.7171 179.644 44.4624C179.644 44.1873 179.501 43.9836 179.216 43.8512C178.941 43.7085 178.498 43.5557 177.887 43.3927C177.255 43.2399 176.736 43.082 176.328 42.919C175.931 42.756 175.584 42.5064 175.289 42.1702C175.004 41.834 174.861 41.3807 174.861 40.8102C174.861 40.3416 174.993 39.9137 175.258 39.5266C175.533 39.1395 175.921 38.8338 176.42 38.6097C176.929 38.3856 177.525 38.2735 178.208 38.2735C179.216 38.2735 180.021 38.5282 180.622 39.0376C181.223 39.5368 181.554 40.2142 181.615 41.07H179.568C179.537 40.7338 179.394 40.4689 179.14 40.2754C178.895 40.0716 178.564 39.9697 178.146 39.9697C177.759 39.9697 177.459 40.0411 177.245 40.1837C177.041 40.3263 176.939 40.525 176.939 40.7796C176.939 41.0649 177.082 41.2839 177.367 41.4367C177.652 41.5794 178.096 41.7271 178.697 41.8799C179.308 42.0327 179.812 42.1906 180.209 42.3536C180.607 42.5166 180.948 42.7713 181.233 43.1177C181.529 43.4539 181.682 43.9021 181.692 44.4624C181.692 44.9514 181.554 45.3895 181.279 45.7766C181.014 46.1637 180.627 46.4693 180.118 46.6935C179.619 46.9074 179.033 47.0144 178.36 47.0144ZM184.533 37.4025C184.156 37.4025 183.84 37.2854 183.585 37.051C183.341 36.8065 183.219 36.506 183.219 36.1495C183.219 35.7929 183.341 35.4975 183.585 35.2631C183.84 35.0187 184.156 34.8964 184.533 34.8964C184.91 34.8964 185.22 35.0187 185.465 35.2631C185.72 35.4975 185.847 35.7929 185.847 36.1495C185.847 36.506 185.72 36.8065 185.465 37.051C185.22 37.2854 184.91 37.4025 184.533 37.4025ZM185.587 38.4111V46.8768H183.448V38.4111H185.587ZM190.192 40.1684V44.2638C190.192 44.549 190.258 44.7578 190.39 44.8903C190.533 45.0125 190.767 45.0737 191.093 45.0737H192.087V46.8768H190.742C188.939 46.8768 188.037 46.0007 188.037 44.2485V40.1684H187.029V38.4111H188.037V36.3175H190.192V38.4111H192.087V40.1684H190.192ZM201.495 42.4606C201.495 42.7662 201.475 43.0413 201.434 43.2858H195.245C195.296 43.897 195.51 44.3758 195.887 44.7222C196.264 45.0686 196.727 45.2417 197.278 45.2417C198.072 45.2417 198.638 44.9005 198.974 44.2179H201.281C201.037 45.0329 200.568 45.7053 199.875 46.235C199.183 46.7546 198.332 47.0144 197.323 47.0144C196.508 47.0144 195.775 46.8361 195.123 46.4795C194.481 46.1128 193.977 45.5983 193.61 44.9361C193.254 44.2739 193.075 43.5099 193.075 42.6439C193.075 41.7678 193.254 40.9987 193.61 40.3365C193.967 39.6743 194.466 39.1649 195.108 38.8084C195.749 38.4518 196.488 38.2735 197.323 38.2735C198.128 38.2735 198.846 38.4467 199.478 38.7931C200.12 39.1395 200.614 39.6336 200.96 40.2754C201.317 40.907 201.495 41.6354 201.495 42.4606ZM199.279 41.8493C199.269 41.2992 199.071 40.8611 198.683 40.5351C198.296 40.199 197.823 40.0309 197.262 40.0309C196.733 40.0309 196.284 40.1939 195.918 40.5199C195.561 40.8357 195.342 41.2788 195.26 41.8493H199.279Z" fill="white"/>
<path opacity="0.6" d="M95.7232 67.4145C96.0135 67.4604 96.2771 67.5788 96.514 67.7698C96.7584 67.9608 96.9495 68.1977 97.087 68.4804C97.2322 68.7631 97.3048 69.0649 97.3048 69.3858C97.3048 69.7908 97.2016 70.1575 96.9953 70.4861C96.789 70.807 96.4872 71.0629 96.0899 71.2539C95.7002 71.4373 95.238 71.529 94.7031 71.529H91.7233V63.5408H94.5885C95.131 63.5408 95.5933 63.6325 95.9753 63.8158C96.3573 63.9916 96.6438 64.2322 96.8349 64.5379C97.0259 64.8435 97.1214 65.1873 97.1214 65.5693C97.1214 66.0431 96.9915 66.4365 96.7317 66.7498C96.4796 67.0554 96.1434 67.277 95.7232 67.4145ZM92.7662 66.9905H94.5198C95.0088 66.9905 95.387 66.8759 95.6544 66.6467C95.9218 66.4174 96.0555 66.1004 96.0555 65.6954C96.0555 65.2905 95.9218 64.9734 95.6544 64.7442C95.387 64.5149 95.0011 64.4003 94.4968 64.4003H92.7662V66.9905ZM94.6114 70.6694C95.131 70.6694 95.536 70.5472 95.8263 70.3027C96.1166 70.0582 96.2618 69.7182 96.2618 69.2827C96.2618 68.8395 96.109 68.4919 95.8034 68.2397C95.4978 67.9799 95.089 67.8501 94.5771 67.8501H92.7662V70.6694H94.6114ZM103.669 63.5408V64.3889H101.491V71.529H100.448V64.3889H98.2592V63.5408H103.669ZM104.563 67.5291C104.563 66.7498 104.739 66.0507 105.09 65.4318C105.442 64.8053 105.919 64.3163 106.523 63.9648C107.134 63.6134 107.81 63.4376 108.551 63.4376C109.422 63.4376 110.183 63.6477 110.832 64.068C111.481 64.4882 111.955 65.0842 112.253 65.8559H111.004C110.782 65.3745 110.461 65.0039 110.041 64.7442C109.629 64.4844 109.132 64.3545 108.551 64.3545C107.994 64.3545 107.493 64.4844 107.05 64.7442C106.607 65.0039 106.259 65.3745 106.007 65.8559C105.755 66.3296 105.629 66.8873 105.629 67.5291C105.629 68.1633 105.755 68.7211 106.007 69.2024C106.259 69.6762 106.607 70.0429 107.05 70.3027C107.493 70.5625 107.994 70.6923 108.551 70.6923C109.132 70.6923 109.629 70.5663 110.041 70.3141C110.461 70.0544 110.782 69.6838 111.004 69.2024H112.253C111.955 69.9665 111.481 70.5586 110.832 70.9789C110.183 71.3915 109.422 71.5978 108.551 71.5978C107.81 71.5978 107.134 71.4258 106.523 71.082C105.919 70.7306 105.442 70.2454 105.09 69.6265C104.739 69.0076 104.563 68.3085 104.563 67.5291Z" fill="#FBB315"/>
<rect x="28.761" y="27.0116" width="51.5739" height="51.5739" rx="25.787" fill="#31353F" stroke="#FF6B2C" stroke-width="0.955072"/>
<path d="M52.1417 60.6299H47.3154C46.7933 60.6299 46.3604 60.197 46.3604 59.6749V53.1549C46.3604 51.8305 47.4428 50.748 48.7671 50.748H52.1417C52.6638 50.748 53.0968 51.181 53.0968 51.7031V59.662C53.0968 60.1968 52.6638 60.6299 52.1417 60.6299ZM48.2705 58.7198H51.1866V52.671H48.7671C48.4997 52.671 48.2705 52.8873 48.2705 53.1675V58.7198Z" fill="white"/>
<path d="M56.9542 60.63H52.1279C51.6058 60.63 51.1729 60.1971 51.1729 59.675V47.3735C51.1729 46.0492 52.2553 44.9667 53.5796 44.9667H55.5152C56.8396 44.9667 57.922 46.0492 57.922 47.3735V59.675C57.9093 60.1971 57.4891 60.63 56.9542 60.63ZM53.0957 58.7199H56.0119V47.3735C56.0119 47.1061 55.7954 46.8769 55.5152 46.8769H53.5796C53.3122 46.8769 53.083 47.0934 53.083 47.3735V58.7199H53.0957Z" fill="white"/>
<path d="M61.7819 60.63H56.9556C56.4335 60.63 56.0005 60.197 56.0005 59.6749V53.8807C56.0005 53.3586 56.4335 52.9256 56.9556 52.9256H60.3302C61.6545 52.9256 62.7369 54.008 62.7369 55.3324V59.6749C62.7369 60.197 62.3167 60.63 61.7819 60.63ZM57.9106 58.7198H60.8268V55.3324C60.8268 55.065 60.6103 54.8357 60.3302 54.8357H57.9106V58.7198Z" fill="white"/>
<path d="M58.3683 66.4882H50.7277C43.813 66.4882 40.8586 63.5338 40.8586 56.6191V48.9785C40.8586 42.0638 43.813 39.1094 50.7277 39.1094H58.3683C65.283 39.1094 68.2374 42.0638 68.2374 48.9785V56.6191C68.2374 63.5338 65.283 66.4882 58.3683 66.4882ZM50.7277 41.0196C44.8572 41.0196 42.7688 43.108 42.7688 48.9785V56.6191C42.7688 62.4896 44.8572 64.578 50.7277 64.578H58.3683C64.2388 64.578 66.3272 62.4896 66.3272 56.6191V48.9785C66.3272 43.108 64.2388 41.0196 58.3683 41.0196H50.7277Z" fill="white"/>
<path d="M390.743 47.4042L388.443 45.1048L387.04 43.6937C386.445 43.0992 385.478 43.0992 384.883 43.6937L381.173 47.4042C380.686 47.8912 381.037 48.7222 381.717 48.7222H385.736H390.198C390.886 48.7222 391.23 47.8912 390.743 47.4042Z" fill="#1ECB4F"/>
<g filter="url(#filter1_f_3_287)">
<circle cx="389.779" cy="117.616" r="4.77536" fill="#4DF3E2"/>
</g>
<path d="M288.541 145.791L295.704 123.824L303.822 133.853L308.597 117.139L317.193 133.853L330.086 101.38L342.502 123.824L356.351 117.139L367.334 128.122L376.885 104.723L384.048 117.139H390.734" stroke="#4DF3E2" stroke-width="1.91014" stroke-linecap="round"/>
<defs>
<filter id="filter0_bd_3_287" x="-13.2056" y="-14" width="457.367" height="210.003" filterUnits="userSpaceOnUse" color-interpolation-filters="sRGB">
<feFlood flood-opacity="0" result="BackgroundImageFix"/>
<feGaussianBlur in="BackgroundImageFix" stdDeviation="10"/>
<feComposite in2="SourceAlpha" operator="in" result="effect1_backgroundBlur_3_287"/>
<feColorMatrix in="SourceAlpha" type="matrix" values="0 0 0 0 0 0 0 0 0 0 0 0 0 0 0 0 0 0 127 0" result="hardAlpha"/>
<feOffset/>
<feGaussianBlur stdDeviation="3"/>
<feComposite in2="hardAlpha" operator="out"/>
<feColorMatrix type="matrix" values="0 0 0 0 0.371944 0 0 0 0 0.371944 0 0 0 0 0.433333 0 0 0 1 0"/>
<feBlend mode="normal" in2="effect1_backgroundBlur_3_287" result="effect2_dropShadow_3_287"/>
<feBlend mode="normal" in="SourceGraphic" in2="effect2_dropShadow_3_287" result="shape"/>
</filter>
<filter id="filter1_f_3_287" x="380.228" y="108.066" width="19.1015" height="19.1014" filterUnits="userSpaceOnUse" color-interpolation-filters="sRGB">
<feFlood flood-opacity="0" result="BackgroundImageFix"/>
<feBlend mode="normal" in="SourceGraphic" in2="BackgroundImageFix" result="shape"/>
<feGaussianBlur stdDeviation="2.38768" result="effect1_foregroundBlur_3_287"/>
</filter>
</defs>
</svg>
