<svg width="52" height="52" viewBox="0 0 52 52" fill="none" xmlns="http://www.w3.org/2000/svg">
<g clip-path="url(#clip0_124_4492)">
<path d="M1.61719 35.0435C5.2908 44.9442 14.8209 52.0001 26 52.0001C37.1791 52.0001 46.7092 44.9442 50.3828 35.0435L26 32.7827L1.61719 35.0435Z" fill="#FFDA44"/>
<path d="M26 0C14.8209 0 5.2908 7.05575 1.61719 16.9566L26 19.2174L50.3828 16.9565C46.7092 7.05575 37.1791 0 26 0Z" fill="black"/>
<path d="M1.61718 16.9565C0.572102 19.7732 0 22.8196 0 26C0 29.1803 0.572102 32.2268 1.61718 35.0434H50.3829C51.428 32.2268 52 29.1803 52 26C52 22.8196 51.428 19.7732 50.3828 16.9565H1.61718Z" fill="#D80027"/>
</g>
<defs>
<clipPath id="clip0_124_4492">
<rect width="52" height="52" fill="white"/>
</clipPath>
</defs>
</svg>
