<svg width="52" height="52" viewBox="0 0 52 52" fill="none" xmlns="http://www.w3.org/2000/svg">
<g clip-path="url(#clip0_124_4536)">
<path d="M0.000244141 26.0002C0.000244141 35.4168 5.00656 43.6638 12.5028 48.2265V3.77393C5.00656 8.33567 0.000244141 16.5831 0.000244141 26.0002Z" fill="#F3F4F5"/>
<path d="M25.9995 0C25.9995 0 35.6534 35.4271 36.0521 35.8258C38.681 35.5901 41.2551 34.5125 43.3344 32.5719C45.004 31.0132 46.1407 29.0961 46.7396 27.0533C46.5873 30.8305 45.0073 34.552 42.0251 37.3349C39.9783 39.2455 37.5348 40.4659 34.9814 41.0087L25.9995 51.9996C40.3593 51.9996 51.9997 40.3591 51.9997 26.0002C51.9997 11.6396 40.3594 0 25.9995 0Z" fill="#036535"/>
<path d="M25.158 51.9852C25.0956 51.9836 25.0324 51.9803 24.97 51.9778C25.0328 51.9807 25.0953 51.9836 25.158 51.9852Z" fill="#036535"/>
<path d="M24.97 0.0216971C25.0324 0.0191823 25.0956 0.0167768 25.158 0.0151367C25.0952 0.0167768 25.0327 0.0191823 24.97 0.0216971Z" fill="#036535"/>
<path d="M42.0252 37.3348C45.0076 34.5519 46.5874 30.8305 46.7397 27.0532C46.1407 29.0964 45.004 31.0132 43.3344 32.5719C41.2551 34.5125 38.6812 35.5901 36.0521 35.8257C35.775 37.6427 35.419 39.3858 34.9814 41.0086C37.5348 40.466 39.9782 39.2454 42.0252 37.3348Z" fill="#F3F4F5"/>
<path d="M25.158 0.0151982C25.4375 0.00656035 25.718 0 25.9995 0C25.7204 0 25.4401 0.00656035 25.158 0.0151982Z" fill="#263778"/>
<path d="M25.9995 51.9997C25.7179 51.9997 25.4375 51.9939 25.158 51.9854C25.4401 51.9944 25.7204 51.9997 25.9995 51.9997Z" fill="#263778"/>
<path d="M34.9814 41.0086C30.0411 42.0591 24.6879 40.5693 20.9911 36.6073C15.3829 30.598 15.7081 21.1814 21.7169 15.5736C24.6989 12.7903 28.5201 11.4705 32.2982 11.5788C30.2185 12.0349 28.2283 13.0366 26.5582 14.5954C21.5941 19.2282 21.3257 27.008 25.9585 31.9721C28.6503 34.856 32.4046 36.152 36.0521 35.8257C38.3789 20.5616 35.0295 0 25.9995 0C25.7179 0 25.4375 0.00656035 25.1579 0.0151982C25.0955 0.0168382 25.0323 0.019353 24.9699 0.0217585C20.4163 0.199544 16.1625 1.54682 12.5027 3.77395V48.2265C16.1625 50.4532 20.416 51.8009 24.9699 51.9782C25.0323 51.9806 25.0955 51.984 25.1579 51.9857C25.4375 51.9943 25.7179 52 25.9995 52C30.2542 51.9996 33.2482 47.4341 34.9814 41.0086Z" fill="#0C723E"/>
<path d="M25.959 31.9722C21.3262 27.0081 21.5947 19.2283 26.5587 14.5955C28.2287 13.0367 30.2189 12.0351 32.2987 11.5789C28.5206 11.4706 24.6991 12.7904 21.7174 15.5737C15.7081 21.1815 15.3829 30.5982 20.9911 36.6074C24.6879 40.569 30.0411 42.0588 34.9814 41.0087C35.419 39.3859 35.7753 37.6428 36.0521 35.8258C32.405 36.1521 28.6504 34.8566 25.959 31.9722Z" fill="#F3F4F5"/>
<path d="M38.7514 15.011L40.8939 17.4565L43.8826 16.1745L42.2179 18.9681L44.3611 21.4143L41.1894 20.6951L39.5252 23.4884L39.2288 20.251L36.0583 19.5309L39.0469 18.2488L38.7514 15.011Z" fill="#F3F4F5"/>
</g>
<defs>
<clipPath id="clip0_124_4536">
<rect width="52" height="52" fill="white"/>
</clipPath>
</defs>
</svg>
