<svg width="162" height="55" viewBox="0 0 162 55" fill="none" xmlns="http://www.w3.org/2000/svg">
<g filter="url(#filter0_d_124_4646)">
<rect x="4" width="154" height="47" rx="23.5" fill="#31A739"/>
</g>
<circle cx="16.3016" cy="16.3016" r="16.3016" transform="matrix(-1 -2.18557e-08 -2.18557e-08 1 153.603 7)" fill="white"/>
<path d="M132.721 22.4128L140.454 22.4128L138.087 19.5701C137.977 19.437 137.923 19.2653 137.939 19.0929C137.955 18.9205 138.039 18.7614 138.172 18.6508C138.305 18.5401 138.477 18.4869 138.649 18.5028C138.822 18.5187 138.981 18.6024 139.091 18.7355L142.352 22.6476C142.374 22.6787 142.393 22.7114 142.41 22.7454C142.41 22.778 142.41 22.7975 142.456 22.8301C142.486 22.9049 142.501 22.9845 142.502 23.0649C142.501 23.1452 142.486 23.2248 142.456 23.2996C142.456 23.3322 142.456 23.3517 142.41 23.3843C142.393 23.4183 142.374 23.451 142.352 23.4821L139.091 27.3942C139.03 27.4678 138.953 27.527 138.867 27.5675C138.78 27.6081 138.685 27.629 138.589 27.6289C138.437 27.6292 138.289 27.5761 138.172 27.4789C138.106 27.4242 138.051 27.357 138.011 27.2811C137.971 27.2053 137.947 27.1223 137.939 27.0369C137.931 26.9515 137.94 26.8653 137.966 26.7834C137.991 26.7016 138.032 26.6255 138.087 26.5596L140.454 23.7169L132.721 23.7169C132.548 23.7169 132.382 23.6482 132.26 23.5259C132.137 23.4036 132.069 23.2378 132.069 23.0649C132.069 22.8919 132.137 22.7261 132.26 22.6038C132.382 22.4815 132.548 22.4128 132.721 22.4128Z" fill="#31A739"/>
<path d="M27.54 26.58C27.54 21.936 20.772 23.952 20.772 20.712C20.772 19.362 21.834 18.66 23.184 18.696C24.714 18.714 25.506 19.668 25.614 20.514H27.414C27.216 18.606 25.65 17.292 23.256 17.292C20.772 17.292 19.098 18.696 19.098 20.766C19.098 25.428 25.884 23.268 25.884 26.652C25.884 27.84 24.948 28.74 23.364 28.74C21.618 28.74 20.88 27.696 20.772 26.652H19.026C19.062 28.722 20.844 30.126 23.364 30.126C26.082 30.126 27.54 28.362 27.54 26.58ZM29.6385 25.032C29.6385 28.092 31.6725 30.162 34.3005 30.162C36.1185 30.162 37.3965 29.226 37.9905 28.164V30H39.6465V20.136H37.9905V21.936C37.4145 20.91 36.1545 19.974 34.3185 19.974C31.6725 19.974 29.6385 21.954 29.6385 25.032ZM37.9905 25.05C37.9905 27.372 36.4425 28.722 34.6425 28.722C32.8425 28.722 31.3125 27.354 31.3125 25.032C31.3125 22.71 32.8425 21.396 34.6425 21.396C36.4425 21.396 37.9905 22.764 37.9905 25.05ZM41.5445 20.136L45.4145 30L47.3225 30L51.1925 20.136H49.4465L46.3865 28.488L43.3085 20.136H41.5445ZM57.2984 21.36C58.9904 21.36 60.4304 22.422 60.4124 24.348H54.1844C54.3644 22.422 55.6964 21.36 57.2984 21.36ZM61.9064 26.958L60.1424 26.958C59.7824 28.02 58.8464 28.776 57.3704 28.776C55.6964 28.776 54.2924 27.678 54.1664 25.68L62.0504 25.68C62.0864 25.338 62.1044 25.05 62.1044 24.69C62.1044 21.99 60.2324 19.974 57.3704 19.974C54.4904 19.974 52.4924 21.936 52.4924 25.05C52.4924 28.182 54.5624 30.162 57.3704 30.162C59.8184 30.162 61.4024 28.758 61.9064 26.958Z" fill="white"/>
<defs>
<filter id="filter0_d_124_4646" x="0" y="0" width="162" height="55" filterUnits="userSpaceOnUse" color-interpolation-filters="sRGB">
<feFlood flood-opacity="0" result="BackgroundImageFix"/>
<feColorMatrix in="SourceAlpha" type="matrix" values="0 0 0 0 0 0 0 0 0 0 0 0 0 0 0 0 0 0 127 0" result="hardAlpha"/>
<feOffset dy="4"/>
<feGaussianBlur stdDeviation="2"/>
<feComposite in2="hardAlpha" operator="out"/>
<feColorMatrix type="matrix" values="0 0 0 0 0.0208333 0 0 0 0 0.0208333 0 0 0 0 0.0208333 0 0 0 0.25 0"/>
<feBlend mode="normal" in2="BackgroundImageFix" result="effect1_dropShadow_124_4646"/>
<feBlend mode="normal" in="SourceGraphic" in2="effect1_dropShadow_124_4646" result="shape"/>
</filter>
</defs>
</svg>
