<svg width="52" height="52" viewBox="0 0 52 52" fill="none" xmlns="http://www.w3.org/2000/svg">
<g clip-path="url(#clip0_124_4487)">
<path d="M26 52C40.3594 52 52 40.3594 52 26C52 11.6406 40.3594 0 26 0C11.6406 0 0 11.6406 0 26C0 40.3594 11.6406 52 26 52Z" fill="#E53030"/>
<path d="M36.9605 27.2252L39.3996 24.089L35.6442 25.1485L33.444 21.6775L33.2701 25.8164L29.6057 26.8499L33.1677 28.2587L32.9955 32.3229L35.4541 29.1622L39.1022 30.6036L36.9605 27.2252Z" fill="white"/>
<path d="M25.0671 34.8968C23.9432 34.8721 22.8352 34.6263 21.8063 34.1733C20.7774 33.7203 19.8479 33.069 19.0707 32.2567C18.2936 31.4444 17.6841 30.487 17.277 29.4391C16.87 28.3912 16.6734 27.2734 16.6984 26.1495C16.6496 23.8803 17.5036 21.6845 19.0728 20.0446C20.642 18.4047 22.798 17.4549 25.0671 17.4037C26.4706 17.3143 27.8693 17.6408 29.0882 18.3423C30.3071 19.0438 31.292 20.0891 31.9198 21.3476C31.2584 19.5022 30.0249 17.9163 28.3991 16.821C26.7733 15.7258 24.8402 15.1784 22.8815 15.2587C20.0942 15.321 17.4455 16.4873 15.5177 18.5014C13.5898 20.5155 12.5404 23.2125 12.6001 26C12.5396 28.7875 13.5887 31.4849 15.5168 33.4989C17.4449 35.5129 20.094 36.6786 22.8815 36.7396C24.5232 36.877 26.1685 36.5212 27.6067 35.7178C29.0449 34.9145 30.2106 33.7001 30.9545 32.2302C30.3141 33.1739 29.4254 33.9224 28.3865 34.393C27.3476 34.8635 26.1989 35.0379 25.0671 34.8968Z" fill="white"/>
</g>
<defs>
<clipPath id="clip0_124_4487">
<rect width="52" height="52" fill="white"/>
</clipPath>
</defs>
</svg>
