<svg width="26" height="12" viewBox="0 0 26 12" fill="none" xmlns="http://www.w3.org/2000/svg">
<path d="M11.136 0.832L7.04 12H4.32L0.224 0.832H2.624L5.696 9.712L8.752 0.832H11.136ZM14.719 0.832V12H12.479V0.832H14.719ZM25.0761 4.288C25.0761 4.88533 24.9321 5.44533 24.6441 5.968C24.3668 6.49067 23.9241 6.912 23.3161 7.232C22.7188 7.552 21.9615 7.712 21.0441 7.712H19.1721V12H16.9321V0.832H21.0441C21.9081 0.832 22.6441 0.981333 23.2521 1.28C23.8601 1.57867 24.3135 1.98933 24.6121 2.512C24.9215 3.03467 25.0761 3.62667 25.0761 4.288ZM20.9481 5.904C21.5668 5.904 22.0255 5.76533 22.3241 5.488C22.6228 5.2 22.7721 4.8 22.7721 4.288C22.7721 3.2 22.1641 2.656 20.9481 2.656H19.1721V5.904H20.9481Z" fill="#C3C3C3"/>
</svg>
