<svg width="11" height="10" viewBox="0 0 11 10" fill="none" xmlns="http://www.w3.org/2000/svg">
<path d="M0.720998 4.41285L8.45447 4.41285L6.08748 1.57011C5.9768 1.43695 5.92355 1.26529 5.93945 1.09289C5.95535 0.92048 6.03909 0.761448 6.17225 0.650778C6.30541 0.540107 6.47709 0.486863 6.64951 0.502759C6.82193 0.518655 6.98098 0.602388 7.09166 0.735538L10.352 4.64757C10.3739 4.67869 10.3935 4.71138 10.4107 4.74537C10.4107 4.77797 10.4107 4.79753 10.4563 4.83013C10.4859 4.90489 10.5013 4.98447 10.502 5.06485C10.5013 5.14524 10.4859 5.22482 10.4563 5.29958C10.4563 5.33218 10.4563 5.35174 10.4107 5.38434C10.3935 5.41833 10.3739 5.45102 10.352 5.48214L7.09166 9.39417C7.03035 9.46777 6.95358 9.52696 6.8668 9.56753C6.78002 9.6081 6.68537 9.62905 6.58957 9.62889C6.43721 9.62919 6.28956 9.57613 6.17225 9.47893C6.10622 9.4242 6.05164 9.35697 6.01164 9.28111C5.97163 9.20525 5.94699 9.12225 5.93911 9.03685C5.93124 8.95146 5.94029 8.86534 5.96575 8.78345C5.99121 8.70156 6.03258 8.62549 6.08748 8.5596L8.45447 5.71686L0.720998 5.71686C0.548059 5.71686 0.382205 5.64817 0.259919 5.52589C0.137633 5.40362 0.0689343 5.23778 0.0689343 5.06485C0.0689343 4.89193 0.137633 4.72609 0.259919 4.60382C0.382205 4.48154 0.548059 4.41285 0.720998 4.41285Z" fill="#31A739"/>
</svg>
