<svg width="122" height="34" viewBox="0 0 122 34" fill="none" xmlns="http://www.w3.org/2000/svg">
<rect x="0.5" y="0.5" width="121" height="33" rx="16.5" fill="#080A35" stroke="#080A35"/>
<path d="M19.824 20.52H14.96L14.064 23H12.528L16.56 11.912H18.24L22.256 23H20.72L19.824 20.52ZM19.408 19.336L17.392 13.704L15.376 19.336H19.408ZM25.7893 15.432V20.6C25.7893 21.0267 25.8799 21.3307 26.0613 21.512C26.2426 21.6827 26.5573 21.768 27.0052 21.768H28.0773V23H26.7653C25.9546 23 25.3466 22.8133 24.9413 22.44C24.5359 22.0667 24.3333 21.4533 24.3333 20.6V15.432H23.1973V14.232H24.3333V12.024H25.7893V14.232H28.0773V15.432H25.7893ZM31.6174 15.432V20.6C31.6174 21.0267 31.708 21.3307 31.8894 21.512C32.0707 21.6827 32.3854 21.768 32.8334 21.768H33.9054V23H32.5934C31.7827 23 31.1747 22.8133 30.7694 22.44C30.364 22.0667 30.1614 21.4533 30.1614 20.6V15.432H29.0254V14.232H30.1614V12.024H31.6174V14.232H33.9054V15.432H31.6174ZM35.1255 18.584C35.1255 17.688 35.3068 16.904 35.6695 16.232C36.0322 15.5493 36.5282 15.0213 37.1575 14.648C37.7975 14.2747 38.5068 14.088 39.2855 14.088C40.0535 14.088 40.7202 14.2533 41.2855 14.584C41.8508 14.9147 42.2722 15.3307 42.5495 15.832V14.232H44.0215V23H42.5495V21.368C42.2615 21.88 41.8295 22.3067 41.2535 22.648C40.6882 22.9787 40.0268 23.144 39.2695 23.144C38.4908 23.144 37.7868 22.952 37.1575 22.568C36.5282 22.184 36.0322 21.6453 35.6695 20.952C35.3068 20.2587 35.1255 19.4693 35.1255 18.584ZM42.5495 18.6C42.5495 17.9387 42.4162 17.3627 42.1495 16.872C41.8828 16.3813 41.5202 16.008 41.0615 15.752C40.6135 15.4853 40.1175 15.352 39.5735 15.352C39.0295 15.352 38.5335 15.48 38.0855 15.736C37.6375 15.992 37.2802 16.3653 37.0135 16.856C36.7468 17.3467 36.6135 17.9227 36.6135 18.584C36.6135 19.256 36.7468 19.8427 37.0135 20.344C37.2802 20.8347 37.6375 21.2133 38.0855 21.48C38.5335 21.736 39.0295 21.864 39.5735 21.864C40.1175 21.864 40.6135 21.736 41.0615 21.48C41.5202 21.2133 41.8828 20.8347 42.1495 20.344C42.4162 19.8427 42.5495 19.2613 42.5495 18.6ZM45.938 18.6C45.938 17.6933 46.1193 16.904 46.482 16.232C46.8447 15.5493 47.346 15.0213 47.986 14.648C48.6367 14.2747 49.378 14.088 50.21 14.088C51.2873 14.088 52.1727 14.3493 52.866 14.872C53.57 15.3947 54.034 16.12 54.258 17.048H52.69C52.5407 16.5147 52.2473 16.0933 51.81 15.784C51.3833 15.4747 50.85 15.32 50.21 15.32C49.378 15.32 48.706 15.608 48.194 16.184C47.682 16.7493 47.426 17.5547 47.426 18.6C47.426 19.656 47.682 20.472 48.194 21.048C48.706 21.624 49.378 21.912 50.21 21.912C50.85 21.912 51.3833 21.7627 51.81 21.464C52.2367 21.1653 52.53 20.7387 52.69 20.184H54.258C54.0233 21.08 53.554 21.8 52.85 22.344C52.146 22.8773 51.266 23.144 50.21 23.144C49.378 23.144 48.6367 22.9573 47.986 22.584C47.346 22.2107 46.8447 21.6827 46.482 21C46.1193 20.3173 45.938 19.5173 45.938 18.6ZM60.5528 14.072C61.2141 14.072 61.8114 14.216 62.3448 14.504C62.8781 14.7813 63.2941 15.2027 63.5928 15.768C63.9021 16.3333 64.0568 17.0213 64.0568 17.832V23H62.6168V18.04C62.6168 17.1653 62.3981 16.4987 61.9608 16.04C61.5234 15.5707 60.9261 15.336 60.1688 15.336C59.4008 15.336 58.7874 15.576 58.3288 16.056C57.8808 16.536 57.6568 17.2347 57.6568 18.152V23H56.2008V11.16H57.6568V15.48C57.9448 15.032 58.3394 14.6853 58.8408 14.44C59.3528 14.1947 59.9234 14.072 60.5528 14.072Z" fill="#DADADA"/>
<path d="M109 17.0198L103.226 22.7927C102.424 23.5735 101.347 24.0072 100.228 23.9999C99.109 23.9926 98.0378 23.545 97.2465 22.7538C96.4552 21.9627 96.0074 20.8918 96.0001 19.7729C95.9928 18.6541 96.4266 17.5775 97.2076 16.7761L103.154 10.8307C103.686 10.2988 104.408 10 105.16 10C105.913 10 106.634 10.2988 107.166 10.8307C107.699 11.3626 107.997 12.084 107.997 12.8363C107.997 13.5885 107.699 14.3099 107.166 14.8418L101.391 20.6157C101.125 20.8817 100.764 21.0311 100.388 21.0311C100.012 21.0311 99.6511 20.8817 99.3851 20.6157C99.1191 20.3498 98.9697 19.9891 98.9697 19.6129C98.9697 19.2368 99.1191 18.8761 99.3851 18.6102L104.988 13.0087" stroke="white"/>
</svg>
