<svg width="122" height="34" viewBox="0 0 122 34" fill="none" xmlns="http://www.w3.org/2000/svg">
<rect width="122" height="34" rx="17" fill="#DFDFDF"/>
<path d="M18.824 20.52H13.96L13.064 23H11.528L15.56 11.912H17.24L21.256 23H19.72L18.824 20.52ZM18.408 19.336L16.392 13.704L14.376 19.336H18.408ZM24.7893 15.432V20.6C24.7893 21.0267 24.8799 21.3307 25.0613 21.512C25.2426 21.6827 25.5573 21.768 26.0052 21.768H27.0773V23H25.7653C24.9546 23 24.3466 22.8133 23.9413 22.44C23.5359 22.0667 23.3333 21.4533 23.3333 20.6V15.432H22.1973V14.232H23.3333V12.024H24.7893V14.232H27.0773V15.432H24.7893ZM30.6174 15.432V20.6C30.6174 21.0267 30.708 21.3307 30.8894 21.512C31.0707 21.6827 31.3854 21.768 31.8334 21.768H32.9054V23H31.5934C30.7827 23 30.1747 22.8133 29.7694 22.44C29.364 22.0667 29.1614 21.4533 29.1614 20.6V15.432H28.0254V14.232H29.1614V12.024H30.6174V14.232H32.9054V15.432H30.6174ZM34.1255 18.584C34.1255 17.688 34.3068 16.904 34.6695 16.232C35.0322 15.5493 35.5282 15.0213 36.1575 14.648C36.7975 14.2747 37.5068 14.088 38.2855 14.088C39.0535 14.088 39.7202 14.2533 40.2855 14.584C40.8508 14.9147 41.2722 15.3307 41.5495 15.832V14.232H43.0215V23H41.5495V21.368C41.2615 21.88 40.8295 22.3067 40.2535 22.648C39.6882 22.9787 39.0268 23.144 38.2695 23.144C37.4908 23.144 36.7868 22.952 36.1575 22.568C35.5282 22.184 35.0322 21.6453 34.6695 20.952C34.3068 20.2587 34.1255 19.4693 34.1255 18.584ZM41.5495 18.6C41.5495 17.9387 41.4162 17.3627 41.1495 16.872C40.8828 16.3813 40.5202 16.008 40.0615 15.752C39.6135 15.4853 39.1175 15.352 38.5735 15.352C38.0295 15.352 37.5335 15.48 37.0855 15.736C36.6375 15.992 36.2802 16.3653 36.0135 16.856C35.7468 17.3467 35.6135 17.9227 35.6135 18.584C35.6135 19.256 35.7468 19.8427 36.0135 20.344C36.2802 20.8347 36.6375 21.2133 37.0855 21.48C37.5335 21.736 38.0295 21.864 38.5735 21.864C39.1175 21.864 39.6135 21.736 40.0615 21.48C40.5202 21.2133 40.8828 20.8347 41.1495 20.344C41.4162 19.8427 41.5495 19.2613 41.5495 18.6ZM44.938 18.6C44.938 17.6933 45.1193 16.904 45.482 16.232C45.8447 15.5493 46.346 15.0213 46.986 14.648C47.6367 14.2747 48.378 14.088 49.21 14.088C50.2873 14.088 51.1727 14.3493 51.866 14.872C52.57 15.3947 53.034 16.12 53.258 17.048H51.69C51.5407 16.5147 51.2473 16.0933 50.81 15.784C50.3833 15.4747 49.85 15.32 49.21 15.32C48.378 15.32 47.706 15.608 47.194 16.184C46.682 16.7493 46.426 17.5547 46.426 18.6C46.426 19.656 46.682 20.472 47.194 21.048C47.706 21.624 48.378 21.912 49.21 21.912C49.85 21.912 50.3833 21.7627 50.81 21.464C51.2367 21.1653 51.53 20.7387 51.69 20.184H53.258C53.0233 21.08 52.554 21.8 51.85 22.344C51.146 22.8773 50.266 23.144 49.21 23.144C48.378 23.144 47.6367 22.9573 46.986 22.584C46.346 22.2107 45.8447 21.6827 45.482 21C45.1193 20.3173 44.938 19.5173 44.938 18.6ZM59.5528 14.072C60.2141 14.072 60.8114 14.216 61.3448 14.504C61.8781 14.7813 62.2941 15.2027 62.5928 15.768C62.9021 16.3333 63.0568 17.0213 63.0568 17.832V23H61.6168V18.04C61.6168 17.1653 61.3981 16.4987 60.9608 16.04C60.5234 15.5707 59.9261 15.336 59.1688 15.336C58.4008 15.336 57.7874 15.576 57.3288 16.056C56.8808 16.536 56.6568 17.2347 56.6568 18.152V23H55.2008V11.16H56.6568V15.48C56.9448 15.032 57.3394 14.6853 57.8408 14.44C58.3528 14.1947 58.9234 14.072 59.5528 14.072Z" fill="white"/>
<path d="M109 17.0198L103.226 22.7927C102.424 23.5735 101.347 24.0072 100.228 23.9999C99.109 23.9926 98.0378 23.545 97.2465 22.7538C96.4552 21.9627 96.0074 20.8918 96.0001 19.7729C95.9928 18.6541 96.4266 17.5775 97.2076 16.7761L103.154 10.8307C103.686 10.2988 104.408 10 105.16 10C105.913 10 106.634 10.2988 107.166 10.8307C107.699 11.3626 107.997 12.084 107.997 12.8363C107.997 13.5885 107.699 14.3099 107.166 14.8418L101.391 20.6157C101.125 20.8817 100.764 21.0311 100.388 21.0311C100.012 21.0311 99.6511 20.8817 99.3851 20.6157C99.1191 20.3498 98.9697 19.9891 98.9697 19.6129C98.9697 19.2368 99.1191 18.8761 99.3851 18.6102L104.988 13.0087" stroke="white"/>
</svg>
