<svg width="52" height="52" viewBox="0 0 52 52" fill="none" xmlns="http://www.w3.org/2000/svg">
<g clip-path="url(#clip0_124_4390)">
<path d="M25.9995 0V52C40.3594 52 51.9999 40.3594 51.9999 26.0004C51.9999 11.6397 40.3593 0 25.9995 0Z" fill="#252F6B"/>
<path d="M25.9996 0C11.6406 0 0 11.6401 0 25.9999C0 40.359 11.6406 51.9996 25.9996 51.9996C40.3594 51.9996 40.3594 0 25.9996 0Z" fill="#273375"/>
<path d="M17.8308 39.8562L19.5841 37.6705L16.8755 38.1611L15.9358 35.5374L14.9144 38.1611L12.1491 37.6705L13.9065 39.8081L12.0818 41.9433L14.8631 41.5065L15.8011 44.076L16.8229 41.5077L19.6596 42.0147L17.8308 39.8562Z" fill="#F3F4F5"/>
<path d="M38.555 41.7868L39.5493 40.5482L38.0139 40.8261L37.4815 39.3396L36.9026 40.8261L35.3356 40.5482L36.3315 41.7588L35.2979 42.9695L36.8735 42.7216L37.4051 44.1769L37.9839 42.7223L39.5915 43.0097L38.555 41.7868Z" fill="#F3F4F5"/>
<path d="M38.555 14.4182L39.5493 13.1792L38.0139 13.4575L37.4815 11.9709L36.9026 13.4575L35.3356 13.1792L36.3315 14.3906L35.2979 15.6005L36.8735 15.3529L37.4051 16.809L37.9839 15.3537L39.5915 15.6407L38.555 14.4182Z" fill="#F3F4F5"/>
<path d="M44.9872 21.4981L45.9807 20.2591L44.4462 20.5375L43.9136 19.051L43.3349 20.5375L41.767 20.2591L42.7629 21.4707L41.7292 22.6809L43.3049 22.4329L43.8365 23.8891L44.4153 22.4338L46.0229 22.7207L44.9872 21.4981Z" fill="#F3F4F5"/>
<path d="M32.9911 24.6457L33.9855 23.4071L32.4501 23.6855L31.9176 22.199L31.3388 23.6855L29.7721 23.4071L30.7677 24.6177L29.7344 25.8284L31.31 25.5808L31.8417 27.0357L32.4205 25.5817L34.0282 25.8687L32.9911 24.6457Z" fill="#F3F4F5"/>
<path d="M5.46054 10.0681C5.05249 10.594 4.66288 11.1339 4.29468 11.6901H7.08176L5.46054 10.0681Z" fill="#29337A"/>
<path d="M18.8867 26H21.3913L18.8867 23.4954V26Z" fill="#29337A"/>
<path d="M10.5847 5.0647C9.98817 5.5048 9.41392 5.97159 8.85767 6.45966L10.5847 8.18595V5.0647Z" fill="#29337A"/>
<path d="M8.0791 26H10.5845V23.4946L8.0791 26Z" fill="#29337A"/>
<path d="M25.9995 0C23.5323 0 21.1487 0.350965 18.8867 0.993504V8.18592L26.0003 1.07266V0H25.9995Z" fill="#29337A"/>
<path d="M26.0004 23.6029V19.9932H22.3906L26.0004 23.6029Z" fill="#29337A"/>
<path d="M1.07276 26L7.08077 19.9932H0.705662C0.24876 21.9222 0 23.9317 0 26H1.07276Z" fill="#29337A"/>
<path d="M22.3882 11.6903H26.0004V8.07886L22.3882 11.6903Z" fill="#29337A"/>
<path d="M26.0004 24.3612V23.603L22.3906 19.9932H26.0004V18.7004H20.3396L26.0004 24.3612Z" fill="white"/>
<path d="M7.08153 11.6903H4.29445C4.01616 12.1119 3.7517 12.5434 3.49756 12.9818H8.97281L5.72301 9.73291C5.63398 9.84379 5.54648 9.95587 5.45987 10.0678L7.08153 11.6903Z" fill="white"/>
<path d="M10.5846 23.4946V25.9999H11.8766V21.6033L7.48022 25.9999H8.07918L10.5846 23.4946Z" fill="white"/>
<path d="M18.8868 0.993164C18.4512 1.11678 18.0209 1.25137 17.5952 1.39627V10.0773L26.0004 1.67259V1.07363L18.8868 8.18558V0.993164Z" fill="white"/>
<path d="M10.5389 19.9933L10.5845 19.9477L11.8313 18.7009H1.04632C0.921942 19.1274 0.80821 19.5581 0.705566 19.9933H7.08068L1.07267 26.0001H4.53182L10.5389 19.9933Z" fill="white"/>
<path d="M26.0002 12.9823V11.6903H22.388L26.0002 8.07888V4.62061L17.6382 12.9823H26.0002Z" fill="white"/>
<path d="M10.5844 8.18648L8.8574 6.46019C8.24494 6.99844 7.65696 7.5649 7.09741 8.15859L10.5844 11.6456L10.6214 11.6834L11.8764 12.9384V4.1748C11.4372 4.46012 11.0049 4.75444 10.5849 5.06479V8.18648H10.5844Z" fill="white"/>
<path d="M18.8867 23.4954L21.3913 26H24.6912L17.5947 18.9041V26H18.8867V23.4954Z" fill="white"/>
<path d="M21.6311 19.9933L20.3396 18.7009H26.0004V12.9823H17.6383L17.5952 13.0262V12.9823H17.6383L26.0004 4.62106V1.6726L17.5948 10.0778V1.39673C15.5631 2.09097 13.6459 3.02772 11.8761 4.17514V12.9383L11.9209 12.9822H11.8761V12.9383L10.6211 11.6834L10.6285 11.6907H10.5846V11.646L7.09754 8.15892C6.6189 8.66556 6.16035 9.19019 5.7231 9.73371L8.97279 12.9826H3.49765C2.46309 14.766 1.6359 16.6823 1.04639 18.7013H11.8313L11.8761 18.6557V18.7013H11.8313L10.5846 19.9481V19.9937H10.539L4.53177 26.0002H7.48023L11.8766 21.6034V26.0002H17.5952V18.9041L24.6912 26.0002H25.6671C25.7783 25.884 25.8917 25.7686 26.0008 25.6492V24.3613L21.6311 19.9933Z" fill="#D32030"/>
<path d="M17.5947 10.0778L26.0003 1.67261L17.5947 10.0778Z" fill="#D32030"/>
<path d="M10.5846 19.9933V19.9473L10.5391 19.9933H10.5846Z" fill="#D32030"/>
<path d="M11.8767 18.655L11.8315 18.7006H11.8767V18.655Z" fill="#D32030"/>
<path d="M17.5947 13.0263L17.6383 12.9824H17.5947V13.0263Z" fill="#D32030"/>
<path d="M10.5845 11.6902H10.6288L10.6215 11.6833L10.5845 11.6455V11.6902Z" fill="#D32030"/>
<path d="M11.9211 12.9823L11.8765 12.938V12.9823H11.9211Z" fill="#D32030"/>
</g>
<defs>
<clipPath id="clip0_124_4390">
<rect width="52" height="52" fill="white"/>
</clipPath>
</defs>
</svg>
