<svg width="52" height="52" viewBox="0 0 52 52" fill="none" xmlns="http://www.w3.org/2000/svg">
<g clip-path="url(#clip0_124_4568)">
<path d="M26 52C40.3594 52 52 40.3594 52 26C52 11.6406 40.3594 0 26 0C11.6406 0 0 11.6406 0 26C0 40.3594 11.6406 52 26 52Z" fill="#27273D"/>
<path d="M26 52C40.3594 52 52 40.3594 52 26C52 11.6406 40.3594 0 26 0C11.6406 0 0 11.6406 0 26C0 40.3594 11.6406 52 26 52Z" fill="#04A558"/>
<path d="M30.0117 51.6953C28.6843 51.8998 27.3431 52.0017 26 52C11.6411 52 0 40.3599 0 26C0 11.6401 11.6411 2.05821e-05 26 2.05821e-05C27.3431 -0.00166513 28.6843 0.100199 30.0117 0.304708C18.7941 2.04549 9.945 10.9546 8.29867 22.2026C7.93169 24.7209 7.93169 27.2791 8.29867 29.7974C9.945 41.0465 18.7941 49.9556 30.0117 51.6953Z" fill="#03914A"/>
<path d="M26 11.9336L1.75293 26L26 40.0664L50.247 26L26 11.9336Z" fill="#FCC13D"/>
<path d="M8.0234 26.0001C8.02329 27.2709 8.11528 28.54 8.29863 29.7975L1.75293 26.0001L8.29863 22.2026C8.11528 23.4601 8.02329 24.7293 8.0234 26.0001Z" fill="#DDA22C"/>
<path d="M45.9376 15.8733C46.8508 15.8733 47.5911 15.133 47.5911 14.2198C47.5911 13.3067 46.8508 12.5664 45.9376 12.5664C45.0244 12.5664 44.2842 13.3067 44.2842 14.2198C44.2842 15.133 45.0244 15.8733 45.9376 15.8733Z" fill="#00B564"/>
<path d="M43.6791 12.7908C44.3258 12.7908 44.8501 12.2665 44.8501 11.6197C44.8501 10.973 44.3258 10.4487 43.6791 10.4487C43.0323 10.4487 42.5081 10.973 42.5081 11.6197C42.5081 12.2665 43.0323 12.7908 43.6791 12.7908Z" fill="#00B564"/>
<path d="M36.0546 26V26.0752C36.0447 28.7116 34.9891 31.2364 33.1195 33.0954C31.25 34.9544 28.7192 35.9957 26.0828 35.9907C23.4463 35.9857 20.9195 34.9349 19.057 33.0689C17.1945 31.2028 16.1484 28.6741 16.1484 26.0376C16.1484 23.4011 17.1945 20.8724 19.057 19.0063C20.9195 17.1403 23.4463 16.0895 26.0828 16.0845C28.7192 16.0795 31.25 17.1208 33.1195 18.9798C34.9891 20.8388 36.0447 23.3636 36.0546 26Z" fill="#3E436D"/>
<path d="M36.0547 26.0751C36.0472 27.3279 35.8043 28.5682 35.3387 29.7314C33.3409 26.1239 30.0503 23.5442 25.5135 22.038C22.0675 20.8954 18.8439 20.7177 17.4495 20.7075C18.0461 19.7433 18.8015 18.8869 19.6838 18.1746C21.9194 18.3688 24.1258 18.8151 26.261 19.505C30.4007 20.866 33.7025 23.0922 36.0547 26.0751Z" fill="white"/>
<path d="M19.0938 29.8594C19.4864 29.8594 19.8047 29.5411 19.8047 29.1484C19.8047 28.7558 19.4864 28.4375 19.0938 28.4375C18.7011 28.4375 18.3828 28.7558 18.3828 29.1484C18.3828 29.5411 18.7011 29.8594 19.0938 29.8594Z" fill="white"/>
<path d="M22.4453 34.0234C22.838 34.0234 23.1562 33.7051 23.1562 33.3125C23.1562 32.9199 22.838 32.6016 22.4453 32.6016C22.0527 32.6016 21.7344 32.9199 21.7344 33.3125C21.7344 33.7051 22.0527 34.0234 22.4453 34.0234Z" fill="white"/>
<path d="M26 32.1619C26.3926 32.1619 26.7109 31.8436 26.7109 31.4509C26.7109 31.0583 26.3926 30.74 26 30.74C25.6074 30.74 25.2891 31.0583 25.2891 31.4509C25.2891 31.8436 25.6074 32.1619 26 32.1619Z" fill="white"/>
<path d="M27.4219 34.7344C27.8145 34.7344 28.1328 34.4161 28.1328 34.0234C28.1328 33.6308 27.8145 33.3125 27.4219 33.3125C27.0292 33.3125 26.7109 33.6308 26.7109 34.0234C26.7109 34.4161 27.0292 34.7344 27.4219 34.7344Z" fill="white"/>
<path d="M32.2969 31.1462C32.6895 31.1462 33.0078 30.8279 33.0078 30.4353C33.0078 30.0427 32.6895 29.7244 32.2969 29.7244C31.9042 29.7244 31.5859 30.0427 31.5859 30.4353C31.5859 30.8279 31.9042 31.1462 32.2969 31.1462Z" fill="white"/>
<path d="M30.3672 33.4485C30.7598 33.4485 31.0781 33.1302 31.0781 32.7375C31.0781 32.3449 30.7598 32.0266 30.3672 32.0266C29.9745 32.0266 29.6562 32.3449 29.6562 32.7375C29.6562 33.1302 29.9745 33.4485 30.3672 33.4485Z" fill="white"/>
<path d="M27.4219 26.7109C27.8145 26.7109 28.1328 26.3926 28.1328 26C28.1328 25.6074 27.8145 25.2891 27.4219 25.2891C27.0292 25.2891 26.7109 25.6074 26.7109 26C26.7109 26.3926 27.0292 26.7109 27.4219 26.7109Z" fill="white"/>
<path d="M19.0938 24.0703C19.4864 24.0703 19.8047 23.752 19.8047 23.3594C19.8047 22.9667 19.4864 22.6484 19.0938 22.6484C18.7011 22.6484 18.3828 22.9667 18.3828 23.3594C18.3828 23.752 18.7011 24.0703 19.0938 24.0703Z" fill="white"/>
<path d="M22.4453 30.5703C22.838 30.5703 23.1562 30.252 23.1562 29.8594C23.1562 29.4667 22.838 29.1484 22.4453 29.1484C22.0527 29.1484 21.7344 29.4667 21.7344 29.8594C21.7344 30.252 22.0527 30.5703 22.4453 30.5703Z" fill="white"/>
</g>
<defs>
<clipPath id="clip0_124_4568">
<rect width="52" height="52" fill="white"/>
</clipPath>
</defs>
</svg>
