<svg width="622" height="275" viewBox="0 0 622 275" fill="none" xmlns="http://www.w3.org/2000/svg">
<mask id="mask0_124_8678" style="mask-type:alpha" maskUnits="userSpaceOnUse" x="9" y="9" width="602" height="255">
<rect x="9" y="9" width="602" height="255" rx="6.58745" fill="#14163D"/>
</mask>
<g mask="url(#mask0_124_8678)">
<g filter="url(#filter0_f_124_8678)">
<ellipse cx="300.584" cy="256.78" rx="175.189" ry="257.087" transform="rotate(76.6598 300.584 256.78)" fill="#4DF3E2"/>
</g>
</g>
<path style="mix-blend-mode:multiply" d="M122.5 258C60.9202 258 11 228.675 11 192.5C11 156.325 60.9202 127 122.5 127C184.08 127 234 156.325 234 192.5C234 228.675 184.08 258 122.5 258Z" fill="url(#paint0_radial_124_8678)"/>
<path d="M150.601 50.7906C139.297 51.1343 129.071 53.9903 120.282 59.0425C111.031 64.3571 103.393 72.096 97.8423 81.8331C92.0193 92.0463 88.5442 104.38 87.9774 118.194C87.3885 132.535 89.9436 148.251 96.1302 164.413C102.434 180.876 111.746 195.826 123.054 208.493C134.286 221.087 147.219 231.125 160.792 238.112C173.993 244.913 187.544 248.689 200.518 249.181C212.938 249.652 224.666 247.109 234.983 241.44C244.755 236.069 252.325 228.4 257.747 219.311C262.911 210.652 266.159 200.658 267.547 190.004C268.88 179.763 268.506 168.817 266.433 157.687C264.42 146.858 260.771 135.719 255.414 124.675C250.246 114.026 243.8 104.055 236.222 94.9863C228.82 86.1322 220.456 78.3014 211.554 71.8048C202.467 65.181 192.677 59.8415 182.62 56.2088C172.211 52.4554 161.372 50.4639 150.601 50.7906Z" fill="url(#paint1_radial_124_8678)"/>
<path d="M77.2741 132.655C78.5015 113.974 85.251 97.2332 95.3517 82.015C96.1987 80.7385 99.3519 75.9002 100.205 74.6289C79.0814 106.115 88.2817 153.558 105.632 184.397C109.566 191.386 114.035 198.057 118.998 204.347C135.899 225.756 159.241 243.767 185.624 251.306C201.019 255.706 221.294 254.698 240.07 246.785C204.961 265.338 155.165 261.252 125.668 235.72C98.6001 212.289 78.5419 179.595 77.1478 142.898C77.0609 140.546 77.0522 138.192 77.1217 135.838C77.1538 134.8 77.2033 133.763 77.2702 132.727L77.2741 132.655Z" fill="url(#paint2_linear_124_8678)"/>
<path d="M169.169 112.708C187.173 96.1779 214.452 118.034 221.365 135.521C226.251 147.882 227.078 165.456 214.092 173.513C213.961 173.593 213.831 173.67 213.701 173.746L213.68 173.759L213.658 173.771L213.637 173.784L213.616 173.796C212.859 174.233 212.103 174.674 211.346 175.118C223.182 168.233 223.485 153.642 219.631 141.913C214.69 126.875 202.191 112.556 186.051 109.872C179.536 108.788 172.56 110.236 167.223 114.487L169.169 112.708Z" fill="url(#paint3_linear_124_8678)"/>
<path d="M177.728 137.631C177.956 134.299 180.868 129.645 183.809 127.697C180.972 130.241 180.062 134.632 180.393 138.217C180.914 143.859 184.447 149.562 188.862 152.991C193.063 156.254 199.223 157.535 203.977 155.158C198.363 157.967 193.567 159.83 187.676 156.122C182.677 152.974 178.97 147.309 177.935 141.479C177.71 140.21 177.641 138.917 177.728 137.631Z" fill="url(#paint4_linear_124_8678)"/>
<path d="M143.099 93.3852C144.683 91.6342 146.428 90.0384 148.311 88.6191C158.474 80.9614 171.723 79.4488 183.883 82.0805C202.606 86.1382 218.859 98.8586 230.081 114.141C237.176 123.802 242.604 135.323 245.445 147.025C248.157 158.204 248.272 170.21 244.422 181.045C240.571 191.88 232.502 201.406 221.91 205.728C230.79 201.694 237.387 193.467 240.823 184.285C244.686 173.943 245.174 162 243.091 151.201C242.744 149.396 242.325 147.579 241.835 145.752C233.563 114.944 205.612 84.0326 172.084 83.2206C160.618 82.9437 148.663 87.2599 140.851 95.8779L143.099 93.3852Z" fill="url(#paint5_linear_124_8678)"/>
<path d="M150.337 127.546C151.418 119.525 154.91 111.972 160.838 105.926C156.323 110.531 153.532 116.708 152.523 123.1C148.26 150.125 170.541 180.877 197.085 186.381C203.656 187.745 210.846 187.183 216.906 184.075C210.231 187.368 202.734 188.588 195.368 187.581C188.173 186.577 181.389 183.506 175.501 179.284C169.369 174.886 164.131 169.248 159.961 162.951C155.946 156.891 152.865 150.145 151.171 143.054C149.94 137.982 149.657 132.723 150.337 127.546Z" fill="url(#paint6_linear_124_8678)"/>
<path d="M118.892 123.484C119.601 110.71 124.449 97.902 132.937 88.2988C125.379 97.4953 121.506 109.259 121.094 121.081C119.791 158.461 144.232 195.397 176.069 211.561C191.27 219.279 210.114 222.643 226.234 215.759C194.035 229.517 158.87 210.249 139.224 184.273C126.221 167.082 117.679 145.338 118.892 123.484Z" fill="url(#paint7_linear_124_8678)"/>
<path d="M164.334 72.4419C155.977 73.1057 148.544 75.6731 142.282 79.8515C135.776 84.19 130.542 90.2603 126.885 97.6936C123.097 105.396 121.021 114.516 120.997 124.576C120.969 134.91 123.102 146.116 127.684 157.569C132.273 168.987 138.774 179.527 146.904 188.731C154.813 197.697 163.893 204.986 173.45 210.233C182.814 215.375 192.508 218.487 201.896 219.324C210.991 220.136 219.707 218.799 227.512 215.179C235.012 211.696 240.949 206.424 245.321 199.978C249.533 193.764 252.309 186.433 253.644 178.49C254.94 170.785 254.891 162.45 253.475 153.893C252.09 145.519 249.381 136.852 245.283 128.231C241.31 119.886 236.294 112.087 230.356 105.023C224.688 98.2607 218.189 92.2516 211.015 87.1405C203.925 82.1172 196.321 78.171 188.563 75.6141C180.596 72.9889 172.384 71.8016 164.334 72.4419ZM223.041 205.092C216.236 208.04 208.689 209.013 200.858 208.164C192.809 207.293 184.534 204.507 176.562 200.031C168.453 195.473 160.755 189.219 154.04 181.577C147.142 173.734 141.599 164.78 137.645 155.09C133.685 145.346 131.77 135.792 131.669 126.947C131.57 118.302 133.207 110.416 136.316 103.715C139.332 97.2095 143.718 91.8477 149.228 87.9592C154.56 84.1953 160.938 81.8181 168.158 81.0979C175.149 80.3973 182.315 81.3156 189.296 83.5301C196.116 85.6895 202.819 89.0966 209.08 93.4797C215.432 97.9554 221.183 103.24 226.189 109.202C231.441 115.435 235.864 122.33 239.349 129.712C242.94 137.329 245.282 144.975 246.438 152.344C247.61 159.853 247.572 167.142 246.34 173.847C245.073 180.732 242.542 187.045 238.762 192.345C234.784 197.968 229.345 202.378 223.041 205.092Z" fill="url(#paint8_linear_124_8678)"/>
<path d="M111.906 78.4173C114.536 74.8627 117.568 71.6288 120.941 68.7813C140.421 52.3679 167.742 52.5647 190.376 61.5041C224.442 74.9512 250.812 106.116 262.784 140.565C274.633 174.659 270.595 221.21 233.575 237.21C237.614 235.582 242.435 231.002 245.641 228.027C249.105 224.814 252.059 220.942 254.569 216.94C259.73 208.714 263.067 199.332 264.559 189.733C267.165 172.983 264.633 155.143 258.901 139.276C247.138 106.706 221.434 77.4005 189.191 64.3732C176.902 59.409 163.305 57.1918 150.102 58.6559C134.719 60.3614 119.209 68.5753 109.871 81.1579L111.906 78.4173Z" fill="url(#paint9_linear_124_8678)"/>
<path d="M153.093 47.0194C141.26 47.2818 130.525 50.1588 121.267 55.3369C111.504 60.7984 103.397 68.8103 97.4709 78.9422C91.2401 89.5936 87.4745 102.502 86.7695 116.999C86.0425 132.086 88.6484 148.645 95.1217 165.696C101.723 183.084 111.539 198.869 123.486 212.233C135.344 225.499 149.025 236.048 163.358 243.337C177.275 250.412 191.546 254.277 205.183 254.665C218.213 255.035 230.473 252.228 241.228 246.148C251.391 240.402 259.227 232.275 264.812 222.695C270.122 213.589 273.433 203.113 274.811 191.978C276.134 181.294 275.691 169.894 273.494 158.322C271.361 147.078 267.543 135.52 261.974 124.068C256.604 113.033 249.919 102.698 242.066 93.2919C234.395 84.1085 225.734 75.9746 216.505 69.2052C207.082 62.2979 196.921 56.7157 186.471 52.885C175.641 48.9112 164.344 46.7714 153.093 47.0194ZM236.614 235.713C226.834 240.902 215.759 243.145 204.069 242.569C191.887 241.968 179.197 238.313 166.863 231.871C154.199 225.255 142.139 215.819 131.659 204.044C121.104 192.194 112.401 178.238 106.459 162.873C100.619 147.772 98.1368 133.066 98.5733 119.615C98.9955 106.627 102.132 94.9934 107.477 85.3168C112.587 76.0651 119.68 68.6699 128.31 63.539C136.536 58.6534 146.145 55.8354 156.809 55.4051C166.994 54.9906 177.272 56.7905 187.168 60.2973C196.732 63.6912 206.064 68.7211 214.733 75.0182C223.239 81.1842 231.224 88.6398 238.292 97.0846C245.529 105.734 251.675 115.252 256.59 125.422C261.672 135.961 265.125 146.582 267 156.893C268.927 167.479 269.215 177.871 267.88 187.566C266.49 197.635 263.327 207.048 258.35 215.163C253.137 223.658 245.906 230.782 236.61 235.713H236.614Z" fill="url(#paint10_linear_124_8678)"/>
<path d="M83.3196 116.571C84.7868 102.211 91.4177 86.3181 100.208 74.6289C84.5275 97.4391 85.6441 125.742 92.8106 151.7C96.9801 166.805 103.756 181.167 112.478 194.139C118.762 203.485 126.069 212.09 134.262 219.792C135.268 220.736 136.288 221.665 137.321 222.579C144.633 229.05 152.597 234.795 161.126 239.531C170.134 244.533 179.759 248.202 189.712 250.773C199.094 253.196 208.866 254.723 218.566 253.659C221.062 253.404 223.54 252.99 225.985 252.421C226.651 252.271 228.591 251.833 229.242 251.634C225.062 253.088 220.417 254.68 216.047 255.555C206.677 257.575 196.589 257.234 187.148 255.761C177.897 254.318 168.915 251.39 160.452 247.393C147.162 241.12 135.185 232.279 124.766 221.913C114.739 211.935 106.193 200.552 99.3932 188.117C91.948 174.493 86.5341 159.604 84.1575 144.211C82.7372 135.087 82.3789 125.769 83.3196 116.571Z" fill="url(#paint11_linear_124_8678)"/>
<path d="M205.653 153.722C205.306 154.107 204.925 154.458 204.514 154.772C200.91 157.527 195.668 156.881 191.658 154.772C185.925 151.754 181.705 145.97 180.564 139.554C179.742 134.934 180.825 129.5 184.749 126.974C194.757 120.534 206.359 133.479 208.061 142.517C208.797 146.411 208.236 150.866 205.653 153.722Z" fill="url(#paint12_linear_124_8678)"/>
<path d="M175.959 98.6679C170.973 99.3751 166.632 101.245 163.059 104.057C159.411 106.934 156.56 110.797 154.669 115.397C152.74 120.093 151.812 125.539 152.036 131.443C152.264 137.443 153.676 143.876 156.409 150.407C159.123 156.875 162.853 162.86 167.455 168.135C171.936 173.275 177.065 177.535 182.476 180.708C187.826 183.844 193.41 185.893 198.885 186.685C204.257 187.463 209.491 187.025 214.274 185.242C218.739 183.595 222.663 180.734 225.61 176.977C228.421 173.409 230.362 169.084 231.402 164.3C232.422 159.606 232.575 154.452 231.836 149.098C231.102 143.817 229.491 138.31 226.939 132.808C224.455 127.458 221.266 122.469 217.46 117.975C213.843 113.687 209.671 109.906 205.056 106.734C200.534 103.649 195.713 101.305 190.837 99.892C185.878 98.4593 180.831 97.9739 175.959 98.6679ZM209.959 175.477C206.198 176.774 202.108 177.027 197.932 176.349C193.695 175.661 189.387 174.02 185.274 171.56C172.289 163.799 162.517 148.933 161.744 133.591C161.514 129.009 162.163 124.762 163.587 121.075C164.989 117.448 167.136 114.374 169.927 112.056C172.663 109.777 176.029 108.23 179.915 107.596C183.73 106.971 187.704 107.283 191.626 108.364C195.665 109.477 199.467 111.344 202.94 113.681C206.633 116.186 209.969 119.188 212.855 122.602C215.896 126.184 218.435 130.169 220.401 134.445C222.417 138.835 223.673 143.222 224.215 147.419C224.765 151.66 224.587 155.727 223.721 159.411C222.841 163.151 221.245 166.508 218.978 169.25C216.601 172.125 213.479 174.28 209.959 175.477Z" fill="url(#paint13_linear_124_8678)"/>
<path d="M289.452 50.9413C289.634 49.4746 290.223 48.2729 288.86 47.6523C289.845 47.6523 292.485 48.2047 292.005 51.0384L288.926 69.1612L286.385 69.0654C287.34 63.4373 288.296 57.8087 289.251 52.1798C289.315 51.8111 289.397 51.3847 289.452 50.9413Z" fill="url(#paint14_linear_124_8678)"/>
<path d="M289.027 47.6532C287.558 47.5443 285.163 48.7382 281.656 52.3892C274.481 59.8514 255.634 86.3573 258.13 90.6367C258.212 90.7701 258.308 90.8942 258.417 91.0067L287.726 69.0597L290.804 50.9369C291.081 49.301 290.559 47.7674 289.027 47.6532Z" fill="url(#paint15_linear_124_8678)"/>
<path d="M193.441 140.783L208.035 115.268L224.031 135.5L194.559 142.313C194.364 142.358 194.159 142.345 193.971 142.275C193.783 142.205 193.619 142.081 193.5 141.918C193.381 141.756 193.312 141.561 193.302 141.36C193.291 141.158 193.34 140.957 193.441 140.783Z" fill="url(#paint16_linear_124_8678)"/>
<path d="M223.381 130.815C223.822 131.676 225.424 134.488 224.343 135.345C224.248 135.42 224.138 135.473 224.021 135.5C223.603 135.597 223.109 135.391 222.708 135.16C220.533 133.901 218.693 132.131 216.995 130.27C214.24 127.251 211.801 123.954 209.717 120.431C208.975 119.176 208.269 117.868 207.968 116.439C207.886 116.053 207.856 115.605 208.031 115.275C208.08 115.183 208.145 115.101 208.225 115.034C208.603 114.716 209.172 114.837 209.627 115.027C210.856 115.542 211.888 116.419 212.858 117.314C217.02 121.138 220.791 125.748 223.381 130.815Z" fill="url(#paint17_linear_124_8678)"/>
<path d="M210.045 118.381C210.242 119.367 211.161 120.717 211.417 121.153C212.751 123.391 214.268 125.512 215.954 127.494C216.813 128.52 217.648 129.593 218.627 130.511C219.553 131.376 220.498 132.31 221.665 132.839C222.098 133.034 222.385 133.025 222.521 132.829C222.658 132.634 222.652 132.256 222.481 131.71C221.935 129.928 220.843 128.348 219.801 126.826C218.447 124.858 216.96 122.986 215.351 121.223C214.169 119.926 212.857 118.481 211.312 117.627C210.84 117.365 210.496 117.303 210.307 117.426C210.01 117.607 209.961 117.962 210.045 118.381Z" fill="url(#paint18_radial_124_8678)"/>
<path d="M213.042 128.335C206.403 119.922 203.01 111.512 205.463 109.55C207.916 107.587 215.286 112.815 221.925 121.228C228.564 129.64 231.957 138.05 229.504 140.012C227.05 141.975 219.68 136.747 213.042 128.335Z" fill="url(#paint19_radial_124_8678)"/>
<path d="M213.741 124.661C213.811 124.763 213.887 124.862 213.961 124.964C214.318 125.447 214.689 125.936 215.069 126.407C215.359 126.776 215.655 127.135 215.949 127.486C216.029 127.584 216.108 127.677 216.193 127.77C218.563 125.963 220.935 124.156 223.309 122.35L230.94 116.544L241.345 108.622L253.448 99.4042L266.174 89.7105L278.452 80.3604L289.203 72.1728L297.352 65.9648L301.823 62.5644L302.344 62.1603L302.185 57.2773L299.868 59.0458L293.567 63.8474L284.258 70.9396L272.922 79.5786L260.53 89.0243L248.059 98.5265L236.486 107.343L226.789 114.731L219.942 119.947L213.741 124.661Z" fill="url(#paint20_linear_124_8678)"/>
<path d="M302.276 62.1596C301.935 62.1587 301.661 61.0555 301.665 59.6955C301.668 58.3355 301.948 57.2338 302.289 57.2347C302.63 57.2356 302.903 58.3388 302.9 59.6988C302.896 61.0588 302.617 62.1605 302.276 62.1596Z" fill="url(#paint21_linear_124_8678)"/>
<path d="M308.31 74.644C308.858 75.6463 308.553 76.9044 308.057 77.9343C305.305 83.6358 298.675 86.5247 293.131 88.6408C293.85 88.3666 294.585 88.0596 295.311 87.6988C299.271 85.731 304.197 81.7756 305.795 78.993C306.394 77.9435 306.732 76.6066 306.175 75.5374C305.425 74.0943 303.551 73.912 302.127 73.584L297.087 72.4203L291.755 71.1897C291.289 71.0822 290.625 70.3724 290.146 70.2622L292.136 69.9355L301.813 72.1658C305.524 73.0264 307.455 73.0841 308.31 74.644Z" fill="url(#paint22_linear_124_8678)"/>
<path d="M290.147 70.2656L260.217 93.3015C261.016 94.0887 262.222 94.8325 264.278 94.7905C271.872 94.6357 287.551 91.0752 295.214 87.7377C305.345 83.3244 310.89 75.0541 304.585 73.5979L290.147 70.2656Z" fill="url(#paint23_linear_124_8678)"/>
<path d="M343.191 102H345.333L339.591 95.736L345.279 89.454H343.209L338.025 95.268V89.454H336.387V102H338.025V96.276L343.191 102ZM351.536 93.36C353.228 93.36 354.668 94.422 354.65 96.348H348.422C348.602 94.422 349.934 93.36 351.536 93.36ZM356.144 98.958L354.38 98.958C354.02 100.02 353.084 100.776 351.608 100.776C349.934 100.776 348.53 99.678 348.404 97.68L356.288 97.68C356.324 97.338 356.342 97.05 356.342 96.69C356.342 93.99 354.47 91.974 351.608 91.974C348.728 91.974 346.73 93.936 346.73 97.05C346.73 100.182 348.8 102.162 351.608 102.162C354.056 102.162 355.64 100.758 356.144 98.958ZM362.878 93.36C364.57 93.36 366.01 94.422 365.992 96.348H359.764C359.944 94.422 361.276 93.36 362.878 93.36ZM367.486 98.958H365.722C365.362 100.02 364.426 100.776 362.95 100.776C361.276 100.776 359.872 99.678 359.746 97.68H367.63C367.666 97.338 367.684 97.05 367.684 96.69C367.684 93.99 365.812 91.974 362.95 91.974C360.07 91.974 358.072 93.936 358.072 97.05C358.072 100.182 360.142 102.162 362.95 102.162C365.398 102.162 366.982 100.758 367.486 98.958ZM371.665 93.954V92.136H370.027V106.68H371.665V100.182C372.277 101.19 373.555 102.162 375.355 102.162C378.001 102.162 380.035 100.092 380.035 97.032C380.035 93.954 378.001 91.974 375.355 91.974C373.555 91.974 372.259 92.91 371.665 93.954ZM378.361 97.032C378.361 99.354 376.831 100.722 375.013 100.722C373.231 100.722 371.665 99.372 371.665 97.05C371.665 94.764 373.231 93.396 375.013 93.396C376.831 93.396 378.361 94.71 378.361 97.032ZM386.737 97.05C386.737 100.182 388.735 102.162 391.543 102.162C393.991 102.162 395.593 100.794 396.097 98.832H394.333C393.973 100.074 393.001 100.776 391.543 100.776C389.743 100.776 388.411 99.498 388.411 97.05C388.411 94.638 389.743 93.36 391.543 93.36C393.001 93.36 393.991 94.116 394.333 95.304H396.097C395.593 93.234 393.991 91.974 391.543 91.974C388.735 91.974 386.737 93.954 386.737 97.05ZM407.823 97.05C407.823 93.936 405.645 91.974 402.837 91.974C400.047 91.974 397.851 93.936 397.851 97.05C397.851 100.182 399.975 102.162 402.765 102.162C405.573 102.162 407.823 100.182 407.823 97.05ZM399.525 97.05C399.525 94.566 401.091 93.396 402.819 93.396C404.511 93.396 406.149 94.566 406.149 97.05C406.149 99.552 404.475 100.722 402.765 100.722C401.055 100.722 399.525 99.552 399.525 97.05ZM424.395 102H426.015V96.186C426.015 93.36 424.269 91.956 422.019 91.956C420.507 91.956 419.103 92.73 418.527 94.152C417.879 92.676 416.529 91.956 414.909 91.956C413.613 91.956 412.443 92.514 411.795 93.558V92.136H410.157V102H411.795V96.564C411.795 94.44 412.929 93.378 414.585 93.378C416.205 93.378 417.285 94.404 417.285 96.42V102H418.905V96.564C418.905 94.44 420.039 93.378 421.695 93.378C423.315 93.378 424.395 94.404 424.395 96.42V102ZM430.52 93.954V92.136H428.882V106.68L430.52 106.68V100.182C431.132 101.19 432.41 102.162 434.21 102.162C436.856 102.162 438.89 100.092 438.89 97.032C438.89 93.954 436.856 91.974 434.21 91.974C432.41 91.974 431.114 92.91 430.52 93.954ZM437.216 97.032C437.216 99.354 435.686 100.722 433.868 100.722C432.086 100.722 430.52 99.372 430.52 97.05C430.52 94.764 432.086 93.396 433.868 93.396C435.686 93.396 437.216 94.71 437.216 97.032ZM441.226 102H442.864V88.68H441.226V102ZM450.029 93.36C451.721 93.36 453.161 94.422 453.143 96.348H446.915C447.095 94.422 448.427 93.36 450.029 93.36ZM454.637 98.958H452.873C452.513 100.02 451.577 100.776 450.101 100.776C448.427 100.776 447.023 99.678 446.897 97.68H454.781C454.817 97.338 454.835 97.05 454.835 96.69C454.835 93.99 452.963 91.974 450.101 91.974C447.221 91.974 445.223 93.936 445.223 97.05C445.223 100.182 447.293 102.162 450.101 102.162C452.549 102.162 454.133 100.758 454.637 98.958ZM457.538 99.3C457.538 101.28 458.528 102 460.274 102H461.75V100.614H460.544C459.536 100.614 459.176 100.272 459.176 99.3V93.486H461.75V92.136L459.176 92.136V89.652H457.538V92.136H456.26V93.486H457.538V99.3ZM463.914 102H465.552V92.136H463.914V102ZM464.76 90.534C465.354 90.534 465.84 90.048 465.84 89.418C465.84 88.788 465.354 88.302 464.76 88.302C464.13 88.302 463.644 88.788 463.644 89.418C463.644 90.048 464.13 90.534 464.76 90.534ZM475.742 102H477.362V96.186C477.362 93.36 475.616 91.956 473.33 91.956C471.998 91.956 470.81 92.514 470.162 93.54V92.136H468.524V102H470.162V96.546C470.162 94.422 471.314 93.378 472.988 93.378C474.644 93.378 475.742 94.404 475.742 96.42V102ZM479.606 97.032C479.606 100.092 481.64 102.162 484.286 102.162C486.086 102.162 487.364 101.208 487.958 100.146V102.216C487.958 104.322 486.644 105.438 484.898 105.438C483.278 105.438 482.108 104.628 481.748 103.44H480.128C480.452 105.546 482.306 106.86 484.898 106.86C487.796 106.86 489.614 104.934 489.614 102.216V92.136H487.958V93.936C487.382 92.874 486.086 91.974 484.286 91.974C481.64 91.974 479.606 93.954 479.606 97.032ZM487.958 97.05C487.958 99.372 486.41 100.722 484.61 100.722C482.81 100.722 481.28 99.354 481.28 97.032C481.28 94.71 482.81 93.396 484.61 93.396C486.41 93.396 487.958 94.764 487.958 97.05ZM497.9 99.3C497.9 101.28 498.89 102 500.636 102L502.112 102V100.614H500.906C499.898 100.614 499.538 100.272 499.538 99.3V93.486H502.112V92.136H499.538V89.652H497.9V92.136L496.622 92.136V93.486H497.9V99.3ZM503.665 97.032C503.665 100.092 505.699 102.162 508.327 102.162C510.145 102.162 511.423 101.226 512.017 100.164V102H513.673V92.136H512.017V93.936C511.441 92.91 510.181 91.974 508.345 91.974C505.699 91.974 503.665 93.954 503.665 97.032ZM512.017 97.05C512.017 99.372 510.469 100.722 508.669 100.722C506.869 100.722 505.339 99.354 505.339 97.032C505.339 94.71 506.869 93.396 508.669 93.396C510.469 93.396 512.017 94.764 512.017 97.05ZM523.713 99.318C523.641 95.79 517.917 97.068 517.917 94.728C517.917 93.936 518.637 93.36 519.843 93.36C521.157 93.36 521.913 94.08 521.985 95.07H523.623C523.515 93.144 522.075 91.974 519.897 91.974C517.701 91.974 516.279 93.216 516.279 94.728C516.279 98.4 522.111 97.122 522.111 99.318C522.111 100.128 521.391 100.776 520.095 100.776C518.709 100.776 517.863 100.056 517.773 99.102H516.081C516.189 100.902 517.809 102.162 520.113 102.162C522.291 102.162 523.713 100.938 523.713 99.318ZM526.205 102L527.843 102V97.644L531.713 102H533.945L529.283 97.05L533.927 92.136H531.641L527.843 96.51V88.68H526.205V102ZM542.741 99.318C542.669 95.79 536.945 97.068 536.945 94.728C536.945 93.936 537.665 93.36 538.871 93.36C540.185 93.36 540.941 94.08 541.013 95.07H542.651C542.543 93.144 541.103 91.974 538.925 91.974C536.729 91.974 535.307 93.216 535.307 94.728C535.307 98.4 541.139 97.122 541.139 99.318C541.139 100.128 540.419 100.776 539.123 100.776C537.737 100.776 536.891 100.056 536.801 99.102H535.109C535.217 100.902 536.837 102.162 539.141 102.162C541.319 102.162 542.741 100.938 542.741 99.318ZM549.6 97.032C549.6 100.092 551.634 102.162 554.262 102.162C556.08 102.162 557.358 101.226 557.952 100.164V102H559.608V92.136H557.952V93.936C557.376 92.91 556.116 91.974 554.28 91.974C551.634 91.974 549.6 93.954 549.6 97.032ZM557.952 97.05C557.952 99.372 556.404 100.722 554.604 100.722C552.804 100.722 551.274 99.354 551.274 97.032C551.274 94.71 552.804 93.396 554.604 93.396C556.404 93.396 557.952 94.764 557.952 97.05ZM569.774 102H571.394V96.186C571.394 93.36 569.648 91.956 567.362 91.956C566.03 91.956 564.842 92.514 564.194 93.54V92.136H562.556V102H564.194V96.546C564.194 94.422 565.346 93.378 567.02 93.378C568.676 93.378 569.774 94.404 569.774 96.42V102ZM573.638 97.032C573.638 100.092 575.672 102.162 578.318 102.162C580.118 102.162 581.396 101.244 581.99 100.146V102H583.646V88.68H581.99V93.9C581.306 92.766 579.884 91.974 578.336 91.974C575.672 91.974 573.638 93.954 573.638 97.032ZM581.99 97.05C581.99 99.372 580.442 100.722 578.642 100.722C576.842 100.722 575.312 99.354 575.312 97.032C575.312 94.71 576.842 93.396 578.642 93.396C580.442 93.396 581.99 94.764 581.99 97.05ZM340.581 114.36C342.273 114.36 343.713 115.422 343.695 117.348H337.467C337.647 115.422 338.979 114.36 340.581 114.36ZM345.189 119.958H343.425C343.065 121.02 342.129 121.776 340.653 121.776C338.979 121.776 337.575 120.678 337.449 118.68H345.333C345.369 118.338 345.387 118.05 345.387 117.69C345.387 114.99 343.515 112.974 340.653 112.974C337.773 112.974 335.775 114.936 335.775 118.05C335.775 121.182 337.845 123.162 340.653 123.162C343.101 123.162 344.685 121.758 345.189 119.958ZM347.117 118.032C347.117 121.092 349.151 123.162 351.779 123.162C353.597 123.162 354.875 122.226 355.469 121.164V123H357.125V113.136H355.469V114.936C354.893 113.91 353.633 112.974 351.797 112.974C349.151 112.974 347.117 114.954 347.117 118.032ZM355.469 118.05C355.469 120.372 353.921 121.722 352.121 121.722C350.321 121.722 348.791 120.354 348.791 118.032C348.791 115.71 350.321 114.396 352.121 114.396C353.921 114.396 355.469 115.764 355.469 118.05ZM361.711 117.636C361.711 115.35 362.899 114.648 364.465 114.648H364.897V112.956C363.331 112.956 362.269 113.64 361.711 114.738V113.136H360.073V123H361.711V117.636ZM374.186 123H375.806V117.186C375.806 114.36 374.06 112.956 371.774 112.956C370.442 112.956 369.254 113.514 368.606 114.54V113.136H366.968V123H368.606V117.546C368.606 115.422 369.758 114.378 371.432 114.378C373.088 114.378 374.186 115.404 374.186 117.42V123ZM378.662 123L380.3 123V113.136H378.662V123ZM379.508 111.534C380.102 111.534 380.588 111.048 380.588 110.418C380.588 109.788 380.102 109.302 379.508 109.302C378.878 109.302 378.392 109.788 378.392 110.418C378.392 111.048 378.878 111.534 379.508 111.534ZM390.489 123H392.109V117.186C392.109 114.36 390.363 112.956 388.077 112.956C386.745 112.956 385.557 113.514 384.909 114.54V113.136L383.271 113.136V123H384.909V117.546C384.909 115.422 386.061 114.378 387.735 114.378C389.391 114.378 390.489 115.404 390.489 117.42V123ZM394.353 118.032C394.353 121.092 396.387 123.162 399.033 123.162C400.833 123.162 402.111 122.208 402.705 121.146V123.216C402.705 125.322 401.391 126.438 399.645 126.438C398.025 126.438 396.855 125.628 396.495 124.44H394.875C395.199 126.546 397.053 127.86 399.645 127.86C402.543 127.86 404.361 125.934 404.361 123.216V113.136H402.705V114.936C402.129 113.874 400.833 112.974 399.033 112.974C396.387 112.974 394.353 114.954 394.353 118.032ZM402.705 118.05C402.705 120.372 401.157 121.722 399.357 121.722C397.557 121.722 396.027 120.354 396.027 118.032C396.027 115.71 397.557 114.396 399.357 114.396C401.157 114.396 402.705 115.764 402.705 118.05ZM426.526 123H428.146V117.186C428.146 114.36 426.4 112.956 424.15 112.956C422.638 112.956 421.234 113.73 420.658 115.152C420.01 113.676 418.66 112.956 417.04 112.956C415.744 112.956 414.574 113.514 413.926 114.558V113.136H412.288V123H413.926V117.564C413.926 115.44 415.06 114.378 416.716 114.378C418.336 114.378 419.416 115.404 419.416 117.42V123H421.036V117.564C421.036 115.44 422.17 114.378 423.826 114.378C425.446 114.378 426.526 115.404 426.526 117.42V123ZM440.373 118.05C440.373 114.936 438.195 112.974 435.387 112.974C432.597 112.974 430.401 114.936 430.401 118.05C430.401 121.182 432.525 123.162 435.315 123.162C438.123 123.162 440.373 121.182 440.373 118.05ZM432.075 118.05C432.075 115.566 433.641 114.396 435.369 114.396C437.061 114.396 438.699 115.566 438.699 118.05C438.699 120.552 437.025 121.722 435.315 121.722C433.605 121.722 432.075 120.552 432.075 118.05ZM444.345 117.636C444.345 115.35 445.533 114.648 447.099 114.648H447.531V112.956C445.965 112.956 444.903 113.64 444.345 114.738V113.136H442.707V123H444.345V117.636ZM453.795 114.36C455.487 114.36 456.927 115.422 456.909 117.348L450.681 117.348C450.861 115.422 452.193 114.36 453.795 114.36ZM458.403 119.958H456.639C456.279 121.02 455.343 121.776 453.867 121.776C452.193 121.776 450.789 120.678 450.663 118.68L458.547 118.68C458.583 118.338 458.601 118.05 458.601 117.69C458.601 114.99 456.729 112.974 453.867 112.974C450.987 112.974 448.989 114.936 448.989 118.05C448.989 121.182 451.059 123.162 453.867 123.162C456.315 123.162 457.899 121.758 458.403 119.958ZM467.56 117.636C467.56 115.35 468.748 114.648 470.314 114.648H470.746V112.956C469.18 112.956 468.118 113.64 467.56 114.738V113.136H465.922V123H467.56V117.636ZM477.011 114.36C478.703 114.36 480.143 115.422 480.125 117.348H473.897C474.077 115.422 475.409 114.36 477.011 114.36ZM481.619 119.958H479.855C479.495 121.02 478.559 121.776 477.083 121.776C475.409 121.776 474.005 120.678 473.879 118.68H481.763C481.799 118.338 481.817 118.05 481.817 117.69C481.817 114.99 479.945 112.974 477.083 112.974C474.203 112.974 472.205 114.936 472.205 118.05C472.205 121.182 474.275 123.162 477.083 123.162C479.531 123.162 481.115 121.758 481.619 119.958ZM486.085 123H487.777L490.153 115.17L492.529 123H494.221L497.299 113.136H495.679L493.447 121.434L491.053 113.136H489.379L486.931 121.416L484.663 113.136H482.989L486.085 123ZM498.493 118.032C498.493 121.092 500.527 123.162 503.155 123.162C504.973 123.162 506.251 122.226 506.845 121.164V123H508.501V113.136H506.845V114.936C506.269 113.91 505.009 112.974 503.173 112.974C500.527 112.974 498.493 114.954 498.493 118.032ZM506.845 118.05C506.845 120.372 505.297 121.722 503.497 121.722C501.697 121.722 500.167 120.354 500.167 118.032C500.167 115.71 501.697 114.396 503.497 114.396C505.297 114.396 506.845 115.764 506.845 118.05ZM513.087 117.636C513.087 115.35 514.275 114.648 515.841 114.648H516.273V112.956C514.707 112.956 513.645 113.64 513.087 114.738V113.136H511.449V123H513.087V117.636ZM517.732 118.032C517.732 121.092 519.766 123.162 522.412 123.162C524.212 123.162 525.49 122.244 526.084 121.146V123H527.74V109.68H526.084V114.9C525.4 113.766 523.978 112.974 522.43 112.974C519.766 112.974 517.732 114.954 517.732 118.032ZM526.084 118.05C526.084 120.372 524.536 121.722 522.736 121.722C520.936 121.722 519.406 120.354 519.406 118.032C519.406 115.71 520.936 114.396 522.736 114.396C524.536 114.396 526.084 115.764 526.084 118.05ZM537.78 120.318C537.708 116.79 531.984 118.068 531.984 115.728C531.984 114.936 532.704 114.36 533.91 114.36C535.224 114.36 535.98 115.08 536.052 116.07H537.69C537.582 114.144 536.142 112.974 533.964 112.974C531.768 112.974 530.346 114.216 530.346 115.728C530.346 119.4 536.178 118.122 536.178 120.318C536.178 121.128 535.458 121.776 534.162 121.776C532.776 121.776 531.93 121.056 531.84 120.102H530.148C530.256 121.902 531.876 123.162 534.18 123.162C536.358 123.162 537.78 121.938 537.78 120.318ZM541.874 121.992C541.874 121.362 541.388 120.876 540.794 120.876C540.164 120.876 539.678 121.362 539.678 121.992C539.678 122.622 540.164 123.108 540.794 123.108C541.388 123.108 541.874 122.622 541.874 121.992Z" fill="white"/>
<path d="M342.631 171H343.975L340.461 161.298H338.991L335.463 171H336.807L337.591 168.83H341.847L342.631 171ZM341.483 167.794H337.955L339.719 162.866L341.483 167.794ZM344.743 163.328L347.753 171H349.237L352.247 163.328H350.889L348.509 169.824L346.115 163.328H344.743ZM353.164 167.136C353.164 169.516 354.746 171.126 356.79 171.126C358.204 171.126 359.198 170.398 359.66 169.572V171H360.948V163.328H359.66V164.728C359.212 163.93 358.232 163.202 356.804 163.202C354.746 163.202 353.164 164.742 353.164 167.136ZM359.66 167.15C359.66 168.956 358.456 170.006 357.056 170.006C355.656 170.006 354.466 168.942 354.466 167.136C354.466 165.33 355.656 164.308 357.056 164.308C358.456 164.308 359.66 165.372 359.66 167.15ZM363.241 171H364.515V163.328H363.241V171ZM363.899 162.082C364.361 162.082 364.739 161.704 364.739 161.214C364.739 160.724 364.361 160.346 363.899 160.346C363.409 160.346 363.031 160.724 363.031 161.214C363.031 161.704 363.409 162.082 363.899 162.082ZM366.826 171H368.1V160.64H366.826V171ZM369.936 167.136C369.936 169.516 371.518 171.126 373.562 171.126C374.976 171.126 375.97 170.398 376.432 169.572V171H377.72V163.328H376.432V164.728C375.984 163.93 375.004 163.202 373.576 163.202C371.518 163.202 369.936 164.742 369.936 167.136ZM376.432 167.15C376.432 168.956 375.228 170.006 373.828 170.006C372.428 170.006 371.238 168.942 371.238 167.136C371.238 165.33 372.428 164.308 373.828 164.308C375.228 164.308 376.432 165.372 376.432 167.15ZM381.287 164.756V160.64H380.013V171H381.287V169.586C381.763 170.426 382.757 171.126 384.157 171.126C386.215 171.126 387.797 169.516 387.797 167.136C387.797 164.742 386.229 163.202 384.157 163.202C382.799 163.202 381.777 163.902 381.287 164.756ZM386.495 167.136C386.495 168.942 385.305 170.006 383.891 170.006C382.505 170.006 381.287 168.956 381.287 167.15C381.287 165.372 382.505 164.308 383.891 164.308C385.305 164.308 386.495 165.33 386.495 167.136ZM389.614 171H390.888V160.64H389.614V171ZM396.461 164.28C397.777 164.28 398.897 165.106 398.883 166.604H394.039C394.179 165.106 395.215 164.28 396.461 164.28ZM400.045 168.634H398.673C398.393 169.46 397.665 170.048 396.517 170.048C395.215 170.048 394.123 169.194 394.025 167.64H400.157C400.185 167.374 400.199 167.15 400.199 166.87C400.199 164.77 398.743 163.202 396.517 163.202C394.277 163.202 392.723 164.728 392.723 167.15C392.723 169.586 394.333 171.126 396.517 171.126C398.421 171.126 399.653 170.034 400.045 168.634ZM405.893 171H407.167V161.242H405.893V171ZM415.092 171H416.352V166.478C416.352 164.28 414.994 163.188 413.216 163.188C412.18 163.188 411.256 163.622 410.752 164.42V163.328H409.478V171H410.752V166.758C410.752 165.106 411.648 164.294 412.95 164.294C414.238 164.294 415.092 165.092 415.092 166.66V171Z" fill="white"/>
<g filter="url(#filter1_d_124_8678)">
<path d="M352.611 51.85V56.53H346.971V73H341.091V56.53H335.511V51.85L352.611 51.85ZM369.166 69.55H361.666L360.526 73H354.346L362.056 51.85H368.836L376.516 73L370.306 73L369.166 69.55ZM367.696 65.05L365.416 58.21L363.166 65.05H367.696ZM387.413 73.21C384.953 73.21 382.933 72.63 381.353 71.47C379.773 70.29 378.923 68.61 378.803 66.43H385.073C385.133 67.17 385.353 67.71 385.733 68.05C386.113 68.39 386.603 68.56 387.203 68.56C387.743 68.56 388.183 68.43 388.523 68.17C388.883 67.89 389.063 67.51 389.063 67.03C389.063 66.41 388.773 65.93 388.193 65.59C387.613 65.25 386.673 64.87 385.373 64.45C383.993 63.99 382.873 63.55 382.013 63.13C381.173 62.69 380.433 62.06 379.793 61.24C379.173 60.4 378.863 59.31 378.863 57.97C378.863 56.61 379.203 55.45 379.883 54.49C380.563 53.51 381.503 52.77 382.703 52.27C383.903 51.77 385.263 51.52 386.783 51.52C389.243 51.52 391.203 52.1 392.663 53.26C394.143 54.4 394.933 56.01 395.033 58.09H388.643C388.623 57.45 388.423 56.97 388.043 56.65C387.683 56.33 387.213 56.17 386.633 56.17C386.193 56.17 385.833 56.3 385.553 56.56C385.273 56.82 385.133 57.19 385.133 57.67C385.133 58.07 385.283 58.42 385.583 58.72C385.903 59 386.293 59.25 386.753 59.47C387.213 59.67 387.893 59.93 388.793 60.25C390.133 60.71 391.233 61.17 392.093 61.63C392.973 62.07 393.723 62.7 394.343 63.52C394.983 64.32 395.303 65.34 395.303 66.58C395.303 67.84 394.983 68.97 394.343 69.97C393.723 70.97 392.813 71.76 391.613 72.34C390.433 72.92 389.033 73.21 387.413 73.21ZM411.546 73L404.916 63.73V73H399.036V51.85H404.916V60.97L411.486 51.85H418.266L410.496 62.11L418.656 73H411.546ZM447.476 51.85V73H441.596V64.51H434.426V73L428.546 73V51.85H434.426V59.8L441.596 59.8V51.85H447.476ZM457.601 51.85V64.12C457.601 65.26 457.861 66.14 458.381 66.76C458.921 67.38 459.731 67.69 460.811 67.69C461.891 67.69 462.701 67.38 463.241 66.76C463.801 66.12 464.081 65.24 464.081 64.12V51.85L469.961 51.85V64.12C469.961 66.06 469.551 67.72 468.731 69.1C467.911 70.46 466.791 71.49 465.371 72.19C463.971 72.87 462.411 73.21 460.691 73.21C458.971 73.21 457.431 72.87 456.071 72.19C454.731 71.49 453.671 70.46 452.891 69.1C452.131 67.74 451.751 66.08 451.751 64.12V51.85L457.601 51.85ZM487.699 62.14C488.939 62.42 489.919 63.04 490.639 64C491.379 64.94 491.749 66.02 491.749 67.24C491.749 69.04 491.129 70.45 489.889 71.47C488.649 72.49 486.909 73 484.669 73L474.199 73V51.85L484.339 51.85C486.499 51.85 488.189 52.33 489.409 53.29C490.649 54.25 491.269 55.6 491.269 57.34C491.269 58.58 490.939 59.62 490.279 60.46C489.639 61.28 488.779 61.84 487.699 62.14ZM480.079 60.25L483.049 60.25C484.529 60.25 485.269 59.64 485.269 58.42C485.269 57.16 484.529 56.53 483.049 56.53L480.079 56.53V60.25ZM483.499 68.26C484.979 68.26 485.719 67.64 485.719 66.4C485.719 65.76 485.519 65.27 485.119 64.93C484.739 64.59 484.189 64.42 483.469 64.42H480.079V68.26H483.499Z" fill="white"/>
</g>
<path d="M357.086 232C344.889 232 335 221.926 335 209.5C335 197.074 344.889 187 357.086 187C369.284 187 379.173 197.074 379.173 209.5C379.173 221.926 369.284 232 357.086 232Z" fill="#24264B"/>
<path d="M349.183 203.766V209.758H351.059C351.269 209.128 351.787 208.68 352.599 208.68C353.705 208.68 354.279 209.31 354.279 210.458C354.279 211.536 353.761 212.348 352.613 212.348C351.661 212.348 351.087 211.83 350.919 211.116H349.015C349.183 212.782 350.443 214 352.641 214C354.965 214 356.169 212.516 356.169 210.43C356.169 208.848 355.357 207.056 352.977 207.056C352.123 207.056 351.353 207.42 350.975 207.882V205.488H355.511V203.766H349.183ZM361.44 204.228H358.024V214H361.44C364.562 214 366.592 212.082 366.592 209.128C366.592 206.16 364.562 204.228 361.44 204.228ZM359.984 212.334V205.88H361.37C363.428 205.88 364.59 207.098 364.59 209.128C364.59 211.158 363.428 212.334 361.37 212.334H359.984Z" fill="#03FB75"/>
<path d="M424.086 232C411.889 232 402 221.926 402 209.5C402 197.074 411.889 187 424.086 187C436.284 187 446.173 197.074 446.173 209.5C446.173 221.926 436.284 232 424.086 232Z" fill="#24264B"/>
<path d="M418.574 205.25V203.794H421.486V214H419.876V205.25H418.574ZM424.7 211.83C425.596 211.055 426.301 210.421 426.814 209.926C427.337 209.422 427.771 208.899 428.116 208.358C428.462 207.817 428.634 207.275 428.634 206.734C428.634 206.174 428.499 205.735 428.228 205.418C427.967 205.101 427.552 204.942 426.982 204.942C426.432 204.942 426.002 205.119 425.694 205.474C425.396 205.819 425.237 206.286 425.218 206.874H423.678C423.706 205.81 424.024 204.998 424.63 204.438C425.246 203.869 426.026 203.584 426.968 203.584C427.986 203.584 428.779 203.864 429.348 204.424C429.927 204.984 430.216 205.731 430.216 206.664C430.216 207.336 430.044 207.985 429.698 208.61C429.362 209.226 428.956 209.781 428.48 210.276C428.014 210.761 427.416 211.326 426.688 211.97L426.058 212.53H430.496V213.86H423.692V212.698L424.7 211.83Z" fill="#03FB75"/>
<path d="M455.686 212.95C455.686 212.306 455.182 211.802 454.496 211.802C453.782 211.802 453.278 212.306 453.278 212.95C453.278 213.594 453.782 214.098 454.496 214.098C455.182 214.098 455.686 213.594 455.686 212.95ZM455.686 207.154C455.686 206.51 455.182 206.006 454.496 206.006C453.782 206.006 453.278 206.51 453.278 207.154C453.278 207.798 453.782 208.302 454.496 208.302C455.182 208.302 455.686 207.798 455.686 207.154Z" fill="#03FB75"/>
<path d="M516.686 212.95C516.686 212.306 516.182 211.802 515.496 211.802C514.782 211.802 514.278 212.306 514.278 212.95C514.278 213.594 514.782 214.098 515.496 214.098C516.182 214.098 516.686 213.594 516.686 212.95ZM516.686 207.154C516.686 206.51 516.182 206.006 515.496 206.006C514.782 206.006 514.278 206.51 514.278 207.154C514.278 207.798 514.782 208.302 515.496 208.302C516.182 208.302 516.686 207.798 516.686 207.154Z" fill="#03FB75"/>
<path d="M485.086 232C472.889 232 463 221.926 463 209.5C463 197.074 472.889 187 485.086 187C497.284 187 507.173 197.074 507.173 209.5C507.173 221.926 497.284 232 485.086 232Z" fill="#24264B"/>
<path d="M479.095 211.872V210.668L483.799 203.92H485.731V210.486H487.033V211.872H485.731V214H484.163V211.872H479.095ZM484.233 205.544L480.929 210.486H484.233V205.544ZM488.286 205.25V203.794H491.198V214H489.588V205.25H488.286Z" fill="#03FB75"/>
<path d="M546.086 232C533.889 232 524 221.926 524 209.5C524 197.074 533.889 187 546.086 187C558.284 187 568.173 197.074 568.173 209.5C568.173 221.926 558.284 232 546.086 232Z" fill="#24264B"/>
<path d="M538.87 208.764C538.87 207.149 539.14 205.889 539.682 204.984C540.232 204.069 541.175 203.612 542.51 203.612C543.844 203.612 544.782 204.069 545.324 204.984C545.874 205.889 546.15 207.149 546.15 208.764C546.15 210.397 545.874 211.676 545.324 212.6C544.782 213.515 543.844 213.972 542.51 213.972C541.175 213.972 540.232 213.515 539.682 212.6C539.14 211.676 538.87 210.397 538.87 208.764ZM544.582 208.764C544.582 208.008 544.53 207.369 544.428 206.846C544.334 206.323 544.138 205.899 543.84 205.572C543.541 205.236 543.098 205.068 542.51 205.068C541.922 205.068 541.478 205.236 541.18 205.572C540.881 205.899 540.68 206.323 540.578 206.846C540.484 207.369 540.438 208.008 540.438 208.764C540.438 209.548 540.484 210.206 540.578 210.738C540.671 211.27 540.867 211.699 541.166 212.026C541.474 212.353 541.922 212.516 542.51 212.516C543.098 212.516 543.541 212.353 543.84 212.026C544.148 211.699 544.348 211.27 544.442 210.738C544.535 210.206 544.582 209.548 544.582 208.764ZM554.446 205.026L550.554 214H548.944L552.878 205.194H547.698V203.836H554.446V205.026Z" fill="#03FB75"/>
<defs>
<filter id="filter0_f_124_8678" x="-352.85" y="-323.757" width="1306.87" height="1161.07" filterUnits="userSpaceOnUse" color-interpolation-filters="sRGB">
<feFlood flood-opacity="0" result="BackgroundImageFix"/>
<feBlend mode="normal" in="SourceGraphic" in2="BackgroundImageFix" result="shape"/>
<feGaussianBlur stdDeviation="200" result="effect1_foregroundBlur_124_8678"/>
</filter>
<filter id="filter1_d_124_8678" x="332.511" y="49.52" width="164.238" height="29.6899" filterUnits="userSpaceOnUse" color-interpolation-filters="sRGB">
<feFlood flood-opacity="0" result="BackgroundImageFix"/>
<feColorMatrix in="SourceAlpha" type="matrix" values="0 0 0 0 0 0 0 0 0 0 0 0 0 0 0 0 0 0 127 0" result="hardAlpha"/>
<feOffset dx="1" dy="2"/>
<feGaussianBlur stdDeviation="2"/>
<feComposite in2="hardAlpha" operator="out"/>
<feColorMatrix type="matrix" values="0 0 0 0 0.6875 0 0 0 0 0.6875 0 0 0 0 0.6875 0 0 0 0.18 0"/>
<feBlend mode="normal" in2="BackgroundImageFix" result="effect1_dropShadow_124_8678"/>
<feBlend mode="normal" in="SourceGraphic" in2="effect1_dropShadow_124_8678" result="shape"/>
</filter>
<radialGradient id="paint0_radial_124_8678" cx="0" cy="0" r="1" gradientUnits="userSpaceOnUse" gradientTransform="translate(122.879 192.454) rotate(-90) scale(65.4801 111.397)">
<stop stop-color="#729EB1"/>
<stop offset="0.29" stop-color="#87ABB8"/>
<stop offset="0.74" stop-color="#A1BAC0"/>
<stop offset="1" stop-color="#ABC0C3"/>
</radialGradient>
<radialGradient id="paint1_radial_124_8678" cx="0" cy="0" r="1" gradientUnits="userSpaceOnUse" gradientTransform="translate(288.571 117.331) rotate(180) scale(189.685 190.984)">
<stop offset="0.04" stop-color="#F3F8FB"/>
<stop offset="0.57" stop-color="#DFEEF0"/>
<stop offset="0.78" stop-color="#ECFCFF"/>
<stop offset="1" stop-color="#A6BBBE"/>
</radialGradient>
<linearGradient id="paint2_linear_124_8678" x1="84.692" y1="62.4937" x2="194.689" y2="273.653" gradientUnits="userSpaceOnUse">
<stop stop-color="#E43E4F"/>
<stop offset="0.53" stop-color="#941919"/>
<stop offset="1" stop-color="#E43E4F"/>
</linearGradient>
<linearGradient id="paint3_linear_124_8678" x1="145.888" y1="30.619" x2="255.887" y2="241.779" gradientUnits="userSpaceOnUse">
<stop stop-color="#C54331"/>
<stop offset="0.53" stop-color="#C40000"/>
<stop offset="1" stop-color="#C54331"/>
</linearGradient>
<linearGradient id="paint4_linear_124_8678" x1="133.316" y1="37.1727" x2="243.314" y2="248.334" gradientUnits="userSpaceOnUse">
<stop stop-color="#C54331"/>
<stop offset="0.53" stop-color="#C40000"/>
<stop offset="1" stop-color="#C54331"/>
</linearGradient>
<linearGradient id="paint5_linear_124_8678" x1="147.462" y1="29.7955" x2="257.46" y2="240.955" gradientUnits="userSpaceOnUse">
<stop stop-color="#C54331"/>
<stop offset="0.53" stop-color="#C40000"/>
<stop offset="1" stop-color="#C54331"/>
</linearGradient>
<linearGradient id="paint6_linear_124_8678" x1="121.349" y1="43.4171" x2="231.334" y2="254.556" gradientUnits="userSpaceOnUse">
<stop stop-color="#C54331"/>
<stop offset="0.53" stop-color="#C40000"/>
<stop offset="1" stop-color="#C54331"/>
</linearGradient>
<linearGradient id="paint7_linear_124_8678" x1="105.564" y1="51.6256" x2="215.561" y2="262.785" gradientUnits="userSpaceOnUse">
<stop stop-color="#C54331"/>
<stop offset="0.53" stop-color="#C40000"/>
<stop offset="1" stop-color="#C54331"/>
</linearGradient>
<linearGradient id="paint8_linear_124_8678" x1="255.811" y1="117.311" x2="108.12" y2="178.53" gradientUnits="userSpaceOnUse">
<stop stop-color="#F58C86"/>
<stop offset="0.23" stop-color="#EC6268"/>
<stop offset="0.44" stop-color="#E43E4F"/>
<stop offset="0.61" stop-color="#E43E4F"/>
<stop offset="0.69" stop-color="#E23A4A"/>
<stop offset="0.78" stop-color="#DD303D"/>
<stop offset="0.88" stop-color="#D41E26"/>
<stop offset="0.98" stop-color="#C70607"/>
<stop offset="1" stop-color="#C40000"/>
</linearGradient>
<linearGradient id="paint9_linear_124_8678" x1="145.868" y1="30.6322" x2="255.866" y2="241.793" gradientUnits="userSpaceOnUse">
<stop stop-color="#C54331"/>
<stop offset="0.53" stop-color="#C40000"/>
<stop offset="1" stop-color="#C54331"/>
</linearGradient>
<linearGradient id="paint10_linear_124_8678" x1="256.576" y1="119.114" x2="108.884" y2="180.335" gradientUnits="userSpaceOnUse">
<stop stop-color="#F58C86"/>
<stop offset="0.23" stop-color="#EC6268"/>
<stop offset="0.44" stop-color="#E43E4F"/>
<stop offset="0.61" stop-color="#E43E4F"/>
<stop offset="0.69" stop-color="#E23A4A"/>
<stop offset="0.78" stop-color="#DD303D"/>
<stop offset="0.88" stop-color="#D41E26"/>
<stop offset="0.98" stop-color="#C70607"/>
<stop offset="1" stop-color="#C40000"/>
</linearGradient>
<linearGradient id="paint11_linear_124_8678" x1="69.4311" y1="88.6047" x2="193.372" y2="258.983" gradientUnits="userSpaceOnUse">
<stop stop-color="#E43E4F"/>
<stop offset="0.34" stop-color="#C40000"/>
<stop offset="0.38" stop-color="#C70607"/>
<stop offset="0.55" stop-color="#D41E26"/>
<stop offset="0.71" stop-color="#DD303D"/>
<stop offset="0.86" stop-color="#E23A4A"/>
<stop offset="1" stop-color="#E43E4F"/>
</linearGradient>
<linearGradient id="paint12_linear_124_8678" x1="255.087" y1="115.527" x2="107.395" y2="176.747" gradientUnits="userSpaceOnUse">
<stop stop-color="#F58C86"/>
<stop offset="0.23" stop-color="#EC6268"/>
<stop offset="0.44" stop-color="#E43E4F"/>
<stop offset="0.61" stop-color="#E43E4F"/>
<stop offset="0.69" stop-color="#E23A4A"/>
<stop offset="0.78" stop-color="#DD303D"/>
<stop offset="0.88" stop-color="#D41E26"/>
<stop offset="0.98" stop-color="#C70607"/>
<stop offset="1" stop-color="#C40000"/>
</linearGradient>
<linearGradient id="paint13_linear_124_8678" x1="255.348" y1="116.141" x2="107.656" y2="177.362" gradientUnits="userSpaceOnUse">
<stop stop-color="#F58C86"/>
<stop offset="0.23" stop-color="#EC6268"/>
<stop offset="0.44" stop-color="#E43E4F"/>
<stop offset="0.61" stop-color="#E43E4F"/>
<stop offset="0.69" stop-color="#E23A4A"/>
<stop offset="0.78" stop-color="#DD303D"/>
<stop offset="0.88" stop-color="#D41E26"/>
<stop offset="0.98" stop-color="#C70607"/>
<stop offset="1" stop-color="#C40000"/>
</linearGradient>
<linearGradient id="paint14_linear_124_8678" x1="290.889" y1="46.6461" x2="287.085" y2="68.8167" gradientUnits="userSpaceOnUse">
<stop stop-color="#E43E4F"/>
<stop offset="0.14" stop-color="#F58C86"/>
<stop offset="0.38" stop-color="#EC6268"/>
<stop offset="0.61" stop-color="#E43E4F"/>
<stop offset="0.69" stop-color="#E23A4A"/>
<stop offset="0.78" stop-color="#DD303D"/>
<stop offset="0.88" stop-color="#D41E26"/>
<stop offset="0.98" stop-color="#C70607"/>
<stop offset="1" stop-color="#C40000"/>
</linearGradient>
<linearGradient id="paint15_linear_124_8678" x1="290.876" y1="69.3273" x2="257.905" y2="69.3273" gradientUnits="userSpaceOnUse">
<stop stop-color="#C54331"/>
<stop offset="0.53" stop-color="#C40000"/>
<stop offset="1" stop-color="#C54331"/>
</linearGradient>
<linearGradient id="paint16_linear_124_8678" x1="210.329" y1="141.082" x2="198.304" y2="123.066" gradientUnits="userSpaceOnUse">
<stop stop-color="#F6D952"/>
<stop offset="0.06" stop-color="#F2C744"/>
<stop offset="0.16" stop-color="#EDB033"/>
<stop offset="0.25" stop-color="#EAA228"/>
<stop offset="0.32" stop-color="#E99D24"/>
<stop offset="0.53" stop-color="#EAA026"/>
<stop offset="0.67" stop-color="#ECA92C"/>
<stop offset="0.79" stop-color="#F1B836"/>
<stop offset="0.9" stop-color="#F7CD44"/>
<stop offset="1" stop-color="#FFE856"/>
</linearGradient>
<linearGradient id="paint17_linear_124_8678" x1="211.929" y1="115.851" x2="220.854" y2="133.937" gradientUnits="userSpaceOnUse">
<stop stop-color="#F6D952"/>
<stop offset="0.51" stop-color="#F5CD46"/>
<stop offset="1" stop-color="#F4C841"/>
</linearGradient>
<radialGradient id="paint18_radial_124_8678" cx="0" cy="0" r="1" gradientUnits="userSpaceOnUse" gradientTransform="translate(218.177 126.757) rotate(180) scale(10.7666 10.8403)">
<stop stop-color="#EFAB26"/>
<stop offset="0.52" stop-color="#DF8B26"/>
<stop offset="0.6" stop-color="#D9831E"/>
<stop offset="0.84" stop-color="#CA6F08"/>
<stop offset="1" stop-color="#C46700"/>
</radialGradient>
<radialGradient id="paint19_radial_124_8678" cx="0" cy="0" r="1" gradientUnits="userSpaceOnUse" gradientTransform="translate(217.135 124.575) rotate(-128.28) scale(19.4616 5.62479)">
<stop offset="0.21" stop-color="#F4C841"/>
<stop offset="0.69" stop-color="#F6D246"/>
<stop offset="0.7" stop-color="#F7D54D"/>
<stop offset="0.75" stop-color="#FAE36D"/>
<stop offset="0.81" stop-color="#FCEF86"/>
<stop offset="0.87" stop-color="#FEF798"/>
<stop offset="0.93" stop-color="#FFFBA3"/>
<stop offset="1" stop-color="#FFFDA6"/>
</radialGradient>
<linearGradient id="paint20_linear_124_8678" x1="257.997" y1="91.021" x2="261.812" y2="95.9812" gradientUnits="userSpaceOnUse">
<stop offset="0.06" stop-color="#EFAB26"/>
<stop offset="0.15" stop-color="#ECA526"/>
<stop offset="0.28" stop-color="#E49524"/>
<stop offset="0.36" stop-color="#DD8523"/>
<stop offset="0.45" stop-color="#DE8823"/>
<stop offset="0.51" stop-color="#E39124"/>
<stop offset="0.56" stop-color="#EAA025"/>
<stop offset="0.59" stop-color="#EFAB26"/>
</linearGradient>
<linearGradient id="paint21_linear_124_8678" x1="302.248" y1="55.5889" x2="302.311" y2="62.2797" gradientUnits="userSpaceOnUse">
<stop stop-color="#F6D952"/>
<stop offset="0.12" stop-color="#FCE355"/>
<stop offset="0.25" stop-color="#FFE856"/>
<stop offset="0.29" stop-color="#FCDE4F"/>
<stop offset="0.47" stop-color="#F2BB38"/>
<stop offset="0.62" stop-color="#EBA529"/>
<stop offset="0.71" stop-color="#E99D24"/>
</linearGradient>
<linearGradient id="paint22_linear_124_8678" x1="299.597" y1="69.0028" x2="298.536" y2="88.2701" gradientUnits="userSpaceOnUse">
<stop offset="0.09" stop-color="#E43E4F"/>
<stop offset="0.3" stop-color="#F58C86"/>
<stop offset="0.44" stop-color="#EC6268"/>
<stop offset="0.57" stop-color="#E43E4F"/>
<stop offset="0.64" stop-color="#E23A4A"/>
<stop offset="0.71" stop-color="#DD303D"/>
<stop offset="0.79" stop-color="#D41E26"/>
<stop offset="0.87" stop-color="#C70607"/>
<stop offset="0.88" stop-color="#C40000"/>
</linearGradient>
<linearGradient id="paint23_linear_124_8678" x1="270.69" y1="67.1013" x2="288.611" y2="90.5217" gradientUnits="userSpaceOnUse">
<stop stop-color="#E43E4F"/>
<stop offset="0.09" stop-color="#DD303D"/>
<stop offset="0.42" stop-color="#C40000"/>
<stop offset="0.78" stop-color="#D92934"/>
<stop offset="0.95" stop-color="#E43E4F"/>
</linearGradient>
</defs>
</svg>
