<svg width="40" height="40" viewBox="0 0 40 40" fill="none" xmlns="http://www.w3.org/2000/svg">
<g filter="url(#filter0_d_256_2677)">
<path d="M20 2C16.8355 2 13.7421 2.93838 11.1109 4.69649C8.4797 6.45459 6.42894 8.95344 5.21793 11.8771C4.00693 14.8007 3.69008 18.0177 4.30744 21.1214C4.92481 24.2251 6.44866 27.0761 8.6863 29.3137C10.9239 31.5513 13.7749 33.0752 16.8786 33.6926C19.9823 34.3099 23.1993 33.9931 26.1229 32.7821C29.0466 31.5711 31.5454 29.5203 33.3035 26.8891C35.0616 24.2579 36 21.1645 36 18C36 15.8988 35.5861 13.8183 34.7821 11.8771C33.978 9.93585 32.7994 8.17203 31.3137 6.68629C29.828 5.20055 28.0641 4.022 26.1229 3.21793C24.1817 2.41385 22.1012 2 20 2ZM25.136 20.864C25.286 21.0127 25.405 21.1897 25.4862 21.3847C25.5675 21.5796 25.6093 21.7888 25.6093 22C25.6093 22.2112 25.5675 22.4203 25.4862 22.6153C25.405 22.8103 25.286 22.9873 25.136 23.136C24.9873 23.286 24.8103 23.405 24.6153 23.4862C24.4204 23.5674 24.2112 23.6093 24 23.6093C23.7888 23.6093 23.5797 23.5674 23.3847 23.4862C23.1897 23.405 23.0127 23.286 22.864 23.136L20 20.256L17.136 23.136C16.9873 23.286 16.8103 23.405 16.6153 23.4862C16.4204 23.5674 16.2112 23.6093 16 23.6093C15.7888 23.6093 15.5797 23.5674 15.3847 23.4862C15.1897 23.405 15.0127 23.286 14.864 23.136C14.714 22.9873 14.595 22.8103 14.5138 22.6153C14.4325 22.4203 14.3907 22.2112 14.3907 22C14.3907 21.7888 14.4325 21.5796 14.5138 21.3847C14.595 21.1897 14.714 21.0127 14.864 20.864L17.744 18L14.864 15.136C14.5627 14.8347 14.3935 14.4261 14.3935 14C14.3935 13.5739 14.5627 13.1653 14.864 12.864C15.1653 12.5627 15.5739 12.3935 16 12.3935C16.4261 12.3935 16.8347 12.5627 17.136 12.864L20 15.744L22.864 12.864C23.1653 12.5627 23.5739 12.3935 24 12.3935C24.4261 12.3935 24.8347 12.5627 25.136 12.864C25.4373 13.1653 25.6065 13.5739 25.6065 14C25.6065 14.4261 25.4373 14.8347 25.136 15.136L22.256 18L25.136 20.864Z" fill="#FF013E"/>
</g>
<defs>
<filter id="filter0_d_256_2677" x="0" y="0" width="40" height="40" filterUnits="userSpaceOnUse" color-interpolation-filters="sRGB">
<feFlood flood-opacity="0" result="BackgroundImageFix"/>
<feColorMatrix in="SourceAlpha" type="matrix" values="0 0 0 0 0 0 0 0 0 0 0 0 0 0 0 0 0 0 127 0" result="hardAlpha"/>
<feOffset dy="2"/>
<feGaussianBlur stdDeviation="2"/>
<feComposite in2="hardAlpha" operator="out"/>
<feColorMatrix type="matrix" values="0 0 0 0 0 0 0 0 0 0 0 0 0 0 0 0 0 0 0.15 0"/>
<feBlend mode="normal" in2="BackgroundImageFix" result="effect1_dropShadow_256_2677"/>
<feBlend mode="normal" in="SourceGraphic" in2="effect1_dropShadow_256_2677" result="shape"/>
</filter>
</defs>
</svg>
