<svg width="52" height="52" viewBox="0 0 52 52" fill="none" xmlns="http://www.w3.org/2000/svg">
<g clip-path="url(#clip0_124_4500)">
<path d="M26 52C40.3594 52 52 40.3594 52 26C52 11.6406 40.3594 0 26 0C11.6406 0 0 11.6406 0 26C0 40.3594 11.6406 52 26 52Z" fill="#F0F0F0"/>
<path d="M23.7392 26C23.7392 26 7.63047 44.3884 7.61523 44.3847C12.3202 49.0898 18.8203 52 26.0001 52C40.3594 52 52.0001 40.3593 52.0001 26H23.7392Z" fill="#D80027"/>
<path d="M7.61521 7.61523C-2.5384 17.7688 -2.5384 34.2312 7.61521 44.3849C11.8111 40.1891 15.8464 36.1537 26 26.0001L7.61521 7.61523Z" fill="#0052B4"/>
</g>
<defs>
<clipPath id="clip0_124_4500">
<rect width="52" height="52" fill="white"/>
</clipPath>
</defs>
</svg>
