<svg width="162" height="55" viewBox="0 0 162 55" fill="none" xmlns="http://www.w3.org/2000/svg">
<g filter="url(#filter0_d_124_4639)">
<rect x="4" width="154" height="47" rx="23.5" fill="#FF0F26"/>
</g>
<circle cx="16.3016" cy="16.3016" r="16.3016" transform="matrix(-1 -2.18557e-08 -2.18557e-08 1 154 7)" fill="white"/>
<path d="M133.148 29.9981C132.851 30.0154 132.559 29.9162 132.333 29.7214C131.889 29.2719 131.889 28.5459 132.333 28.0963L142.07 18.311C142.532 17.8761 143.258 17.9003 143.691 18.3651C144.082 18.7854 144.105 19.4314 143.744 19.8785L133.95 29.7214C133.728 29.9134 133.441 30.0124 133.148 29.9981Z" fill="#FF0F26"/>
<path d="M142.77 29.9938C142.471 29.9925 142.184 29.8728 141.971 29.6603L132.275 19.8978C131.864 19.4155 131.92 18.6896 132.399 18.2765C132.827 17.9078 133.457 17.9078 133.885 18.2765L143.638 28.039C144.099 28.473 144.123 29.2007 143.692 29.6643C143.674 29.6827 143.657 29.7006 143.638 29.7178C143.4 29.9269 143.085 30.0268 142.77 29.9938Z" fill="#FF0F26"/>
<path d="M23.292 17.454L19.386 17.454V30H23.292C27.414 30 29.952 27.642 29.952 23.754C29.952 19.866 27.414 17.454 23.292 17.454ZM21.024 28.65V18.786L23.292 18.786C26.568 18.786 28.278 20.694 28.278 23.754C28.278 26.814 26.568 28.65 23.292 28.65H21.024ZM32.4126 30H34.0506V20.136H32.4126V30ZM33.2586 18.534C33.8526 18.534 34.3386 18.048 34.3386 17.418C34.3386 16.788 33.8526 16.302 33.2586 16.302C32.6286 16.302 32.1426 16.788 32.1426 17.418C32.1426 18.048 32.6286 18.534 33.2586 18.534ZM44.2343 27.318C44.1623 23.79 38.4383 25.068 38.4383 22.728C38.4383 21.936 39.1583 21.36 40.3643 21.36C41.6783 21.36 42.4343 22.08 42.5063 23.07L44.1443 23.07C44.0363 21.144 42.5963 19.974 40.4183 19.974C38.2223 19.974 36.8003 21.216 36.8003 22.728C36.8003 26.4 42.6323 25.122 42.6323 27.318C42.6323 28.128 41.9123 28.776 40.6163 28.776C39.2303 28.776 38.3843 28.056 38.2943 27.102H36.6023C36.7103 28.902 38.3303 30.162 40.6343 30.162C42.8123 30.162 44.2343 28.938 44.2343 27.318ZM46.2345 25.05C46.2345 28.182 48.2325 30.162 51.0405 30.162C53.4885 30.162 55.0905 28.794 55.5945 26.832H53.8305C53.4705 28.074 52.4985 28.776 51.0405 28.776C49.2405 28.776 47.9085 27.498 47.9085 25.05C47.9085 22.638 49.2405 21.36 51.0405 21.36C52.4985 21.36 53.4885 22.116 53.8305 23.304H55.5945C55.0905 21.234 53.4885 19.974 51.0405 19.974C48.2325 19.974 46.2345 21.954 46.2345 25.05ZM57.4681 25.032C57.4681 28.092 59.5021 30.162 62.1301 30.162C63.9481 30.162 65.2261 29.226 65.8201 28.164V30H67.4761V20.136L65.8201 20.136V21.936C65.2441 20.91 63.9841 19.974 62.1481 19.974C59.5021 19.974 57.4681 21.954 57.4681 25.032ZM65.8201 25.05C65.8201 27.372 64.2721 28.722 62.4721 28.722C60.6721 28.722 59.1421 27.354 59.1421 25.032C59.1421 22.71 60.6721 21.396 62.4721 21.396C64.2721 21.396 65.8201 22.764 65.8201 25.05ZM72.1822 24.636C72.1822 22.35 73.3702 21.648 74.9362 21.648H75.3682V19.956C73.8022 19.956 72.7402 20.64 72.1822 21.738V20.136H70.5442V30H72.1822V24.636ZM76.947 25.032C76.947 28.092 78.981 30.162 81.627 30.162C83.427 30.162 84.705 29.244 85.299 28.146V30H86.955V16.68H85.299V21.9C84.615 20.766 83.193 19.974 81.645 19.974C78.981 19.974 76.947 21.954 76.947 25.032ZM85.299 25.05C85.299 27.372 83.751 28.722 81.951 28.722C80.151 28.722 78.621 27.354 78.621 25.032C78.621 22.71 80.151 21.396 81.951 21.396C83.751 21.396 85.299 22.764 85.299 25.05Z" fill="white"/>
<defs>
<filter id="filter0_d_124_4639" x="0" y="0" width="162" height="55" filterUnits="userSpaceOnUse" color-interpolation-filters="sRGB">
<feFlood flood-opacity="0" result="BackgroundImageFix"/>
<feColorMatrix in="SourceAlpha" type="matrix" values="0 0 0 0 0 0 0 0 0 0 0 0 0 0 0 0 0 0 127 0" result="hardAlpha"/>
<feOffset dy="4"/>
<feGaussianBlur stdDeviation="2"/>
<feComposite in2="hardAlpha" operator="out"/>
<feColorMatrix type="matrix" values="0 0 0 0 0.0208333 0 0 0 0 0.0208333 0 0 0 0 0.0208333 0 0 0 0.25 0"/>
<feBlend mode="normal" in2="BackgroundImageFix" result="effect1_dropShadow_124_4639"/>
<feBlend mode="normal" in="SourceGraphic" in2="effect1_dropShadow_124_4639" result="shape"/>
</filter>
</defs>
</svg>
