<svg width="38" height="22" viewBox="0 0 38 22" fill="none" xmlns="http://www.w3.org/2000/svg">
<g opacity="0.6" filter="url(#filter0_b_124_2238)">
<rect width="38" height="22" rx="11" fill="#FF4C00"/>
</g>
<path d="M15.352 5.242V15H14.078V5.242H15.352ZM21.2613 7.188C22.1946 7.188 22.9506 7.47267 23.5293 8.042C24.108 8.602 24.3973 9.414 24.3973 10.478V15H23.1373V10.66C23.1373 9.89467 22.946 9.31133 22.5633 8.91C22.1806 8.49933 21.658 8.294 20.9953 8.294C20.3233 8.294 19.7866 8.504 19.3853 8.924C18.9933 9.344 18.7973 9.95533 18.7973 10.758V15H17.5233V7.328H18.7973V8.42C19.0493 8.028 19.39 7.72467 19.8193 7.51C20.258 7.29533 20.7386 7.188 21.2613 7.188Z" fill="white"/>
<defs>
<filter id="filter0_b_124_2238" x="-20" y="-20" width="78" height="62" filterUnits="userSpaceOnUse" color-interpolation-filters="sRGB">
<feFlood flood-opacity="0" result="BackgroundImageFix"/>
<feGaussianBlur in="BackgroundImageFix" stdDeviation="10"/>
<feComposite in2="SourceAlpha" operator="in" result="effect1_backgroundBlur_124_2238"/>
<feBlend mode="normal" in="SourceGraphic" in2="effect1_backgroundBlur_124_2238" result="shape"/>
</filter>
</defs>
</svg>
