<svg width="113" height="32" viewBox="0 0 113 32" fill="none" xmlns="http://www.w3.org/2000/svg">
<path d="M1.232 21H2.688V9.848H1.232V21ZM11.5855 21H13.0255V15.832C13.0255 13.32 11.4735 12.072 9.4415 12.072C8.2575 12.072 7.2015 12.568 6.6255 13.48V12.232H5.1695V21H6.6255V16.152C6.6255 14.264 7.6495 13.336 9.1375 13.336C10.6095 13.336 11.5855 14.248 11.5855 16.04V21ZM15.7239 18.6C15.7239 20.36 16.6039 21 18.1559 21H19.4679V19.768H18.3959C17.4999 19.768 17.1799 19.464 17.1799 18.6V13.432H19.4679V12.232H17.1799V10.024H15.7239V12.232H14.5879V13.432H15.7239V18.6ZM24.96 13.32C26.464 13.32 27.744 14.264 27.728 15.976H22.192C22.352 14.264 23.536 13.32 24.96 13.32ZM29.056 18.296H27.488C27.168 19.24 26.336 19.912 25.024 19.912C23.536 19.912 22.288 18.936 22.176 17.16H29.184C29.216 16.856 29.232 16.6 29.232 16.28C29.232 13.88 27.568 12.088 25.024 12.088C22.464 12.088 20.688 13.832 20.688 16.6C20.688 19.384 22.528 21.144 25.024 21.144C27.2 21.144 28.608 19.896 29.056 18.296ZM32.6099 16.232C32.6099 14.2 33.6659 13.576 35.0579 13.576H35.4419V12.072C34.0499 12.072 33.1059 12.68 32.6099 13.656V12.232H31.1539V21H32.6099V16.232ZM43.5386 21H44.9786V15.832C44.9786 13.32 43.4266 12.072 41.3946 12.072C40.2106 12.072 39.1546 12.568 38.5786 13.48V12.232H37.1226V21H38.5786V16.152C38.5786 14.264 39.6026 13.336 41.0906 13.336C42.5626 13.336 43.5386 14.248 43.5386 16.04V21Z" fill="#C5C5C5"/>
<rect x="61" width="52" height="32" rx="16" fill="#080935"/>
<circle cx="77" cy="16" r="12" fill="white"/>
</svg>
