<svg width="113" height="32" viewBox="0 0 113 32" fill="none" xmlns="http://www.w3.org/2000/svg">
<path d="M1.232 22H2.688V10.848H1.232V22ZM11.5855 22H13.0255V16.832C13.0255 14.32 11.4735 13.072 9.4415 13.072C8.2575 13.072 7.2015 13.568 6.6255 14.48V13.232H5.1695V22H6.6255V17.152C6.6255 15.264 7.6495 14.336 9.1375 14.336C10.6095 14.336 11.5855 15.248 11.5855 17.04V22ZM15.7239 19.6C15.7239 21.36 16.6039 22 18.1559 22H19.4679V20.768H18.3959C17.4999 20.768 17.1799 20.464 17.1799 19.6V14.432H19.4679V13.232H17.1799V11.024H15.7239V13.232H14.5879V14.432H15.7239V19.6ZM24.96 14.32C26.464 14.32 27.744 15.264 27.728 16.976H22.192C22.352 15.264 23.536 14.32 24.96 14.32ZM29.056 19.296H27.488C27.168 20.24 26.336 20.912 25.024 20.912C23.536 20.912 22.288 19.936 22.176 18.16H29.184C29.216 17.856 29.232 17.6 29.232 17.28C29.232 14.88 27.568 13.088 25.024 13.088C22.464 13.088 20.688 14.832 20.688 17.6C20.688 20.384 22.528 22.144 25.024 22.144C27.2 22.144 28.608 20.896 29.056 19.296ZM32.6099 17.232C32.6099 15.2 33.6659 14.576 35.0579 14.576H35.4419V13.072C34.0499 13.072 33.1059 13.68 32.6099 14.656V13.232H31.1539V22H32.6099V17.232ZM43.5386 22H44.9786V16.832C44.9786 14.32 43.4266 13.072 41.3946 13.072C40.2106 13.072 39.1546 13.568 38.5786 14.48V13.232H37.1226V22H38.5786V17.152C38.5786 15.264 39.6026 14.336 41.0906 14.336C42.5626 14.336 43.5386 15.248 43.5386 17.04V22Z" fill="white"/>
<rect x="61" width="52" height="32" rx="16" fill="#080935"/>
<circle cx="77" cy="16" r="12" fill="white"/>
</svg>
