<svg width="22" height="26" viewBox="0 0 22 26" fill="none" xmlns="http://www.w3.org/2000/svg">
<path d="M21.1605 18.3224C19.5225 16.9379 18.5833 14.9143 18.5833 12.7703V9.75C18.5833 5.93775 15.7515 2.782 12.0833 2.25333V1.08333C12.0833 0.48425 11.598 0 11 0C10.402 0 9.91663 0.48425 9.91663 1.08333V2.25333C6.24738 2.782 3.41663 5.93775 3.41663 9.75V12.7703C3.41663 14.9143 2.47738 16.9379 0.829626 18.3311C0.408209 18.6918 0.166626 19.2162 0.166626 19.7708C0.166626 20.8162 1.01704 21.6667 2.06246 21.6667H19.9375C20.9829 21.6667 21.8333 20.8162 21.8333 19.7708C21.8333 19.2162 21.5917 18.6918 21.1605 18.3224Z" fill="#9FA5AC"/>
<path d="M10.9999 26C12.9619 26 14.6031 24.6014 14.9801 22.75H7.01978C7.39678 24.6014 9.03803 26 10.9999 26Z" fill="#9FA5AC"/>
</svg>
