<svg width="24" height="24" viewBox="0 0 24 24" fill="none" xmlns="http://www.w3.org/2000/svg">
<g clip-path="url(#clip0_256_1726)">
<path d="M1.98998 18.1478H22.0102C22.9485 16.4836 23.4846 14.5624 23.4846 12.5157C23.4846 6.17301 18.3428 1.03125 12.0001 1.03125C5.65739 1.03125 0.515625 6.17301 0.515625 12.5157C0.515578 14.5624 1.05159 16.4836 1.98998 18.1478Z" fill="#FFC839"/>
<path d="M11.0059 16.1638C11.0059 16.1638 11.7019 16.4691 12.0001 16.9071C12.2983 16.4691 12.9943 16.1638 12.9943 16.1638L15.797 14.7383C15.5619 14.6658 15.3227 14.6009 15.0783 14.5445C14.6024 14.0686 14.4817 13.1664 14.46 12.5352C14.2117 12.8244 13.9511 13.0664 13.702 13.2597C13.2168 13.6366 12.618 13.8412 12.0013 13.8412C11.3846 13.8412 10.7858 13.6366 10.3006 13.2597C10.0516 13.0663 9.79096 12.8244 9.54257 12.5352C9.52087 13.1664 9.40021 14.0686 8.92434 14.5445C8.67932 14.601 8.4397 14.666 8.2041 14.7388L11.0059 16.1638Z" fill="#FFAA7B"/>
<path d="M11.8848 13.8378C11.3095 13.8138 10.7551 13.6118 10.3005 13.2588C10.0515 13.0654 9.79082 12.8234 9.54247 12.5342C9.52358 13.0832 9.42955 13.837 9.09229 14.3372C9.57196 15.3054 10.1935 16.1154 10.8221 15.6917C11.5972 15.1692 11.8272 14.3926 11.8848 13.8378Z" fill="#FC9460"/>
<path d="M11.1044 16.0143L9.86093 15.3818C9.33181 15.5428 8.60928 15.9629 8.58378 17.0596C8.22645 17.1215 6.42725 17.5172 6.42725 19.1982V22.5583C8.07757 23.4763 9.97756 23.9996 12.0001 23.9996C12.0402 23.9996 12.08 23.9984 12.1201 23.9981C12.1201 21.4388 12.1201 17.416 12.1201 17.03C12.1201 16.4596 11.1044 16.0143 11.1044 16.0143Z" fill="#7E6DD1"/>
<path d="M6.49739 22.5975C6.49739 21.7167 6.49739 20.3322 6.49739 19.1988C6.49739 17.3827 8.65321 17.1204 8.65321 17.1204C8.65321 15.9675 9.42745 15.5667 9.94903 15.4273L8.45034 14.665C5.24142 15.7114 3.70879 16.1299 2.90967 16.7003C3.74161 17.2681 5.04998 18.4476 5.04998 20.2521V21.6586C5.50673 22.0064 5.99062 22.3202 6.49739 22.5975Z" fill="#7255CE"/>
<path d="M15.55 14.665L12.896 16.0149C12.896 16.0149 11.8804 16.4602 11.8804 17.0305V23.9986C11.9204 23.9991 11.9602 24.0001 12.0004 24.0001C12.5391 24.0001 13.0689 23.9625 13.5879 23.8907L13.5876 23.8905L16.8586 22.924V22.9241C17.6027 22.5761 18.3035 22.1511 18.9503 21.6586C18.9503 21.1694 18.9503 20.6923 18.9503 20.2521C18.9503 18.4476 20.2587 17.2681 21.0906 16.7003C20.2915 16.1299 18.7589 15.7114 15.55 14.665Z" fill="#9589E8"/>
<path d="M14.7292 13.4587C14.6753 13.4289 14.6082 13.46 14.5959 13.5204C14.5157 13.9132 14.1677 15.1507 12.8754 15.8851C12.7481 15.9575 12.7177 16.1272 12.8139 16.2375L14.1197 17.7332C14.3909 18.0455 14.89 17.9893 15.0857 17.6249C15.4166 17.009 15.8775 16.0715 16.2187 15.0636C16.2797 14.8831 16.2363 14.6836 16.1076 14.5431C15.7104 14.1099 15.245 13.7434 14.7292 13.4587Z" fill="#B5B0F7"/>
<path d="M11.1255 15.8859C10.8146 15.7092 10.5588 15.5033 10.3477 15.2871C10.0333 15.3138 8.66568 15.5155 8.5874 16.9879C8.70389 17.225 8.81545 17.4402 8.91515 17.6258C9.11086 17.9901 9.61003 18.0463 9.88115 17.734L11.1869 16.2384C11.2832 16.128 11.2527 15.9582 11.1255 15.8859Z" fill="#9589E8"/>
<path d="M9.4054 13.5204C9.39308 13.4601 9.326 13.4289 9.27209 13.4587C8.75628 13.7434 8.2909 14.1099 7.89373 14.5432C7.76501 14.6836 7.72156 14.8831 7.78264 15.0636C8.04054 15.8256 8.36679 16.547 8.65362 17.1199C8.65367 15.3818 10.414 15.3525 10.414 15.3525L10.414 15.3523C9.69594 14.6554 9.46826 13.8284 9.4054 13.5204Z" fill="#7E6DD1"/>
<path d="M18.8564 21.7296C20.1416 20.7718 21.219 19.5512 22.0103 18.1478C21.9219 17.8848 21.8262 17.6435 21.7223 17.4316C21.5726 17.1262 21.3648 16.8868 21.0443 16.668C20.2157 17.2228 18.8564 18.4131 18.8564 20.2521V21.7296Z" fill="#B5B0F7"/>
<path d="M2.95628 16.668C2.6358 16.8868 2.42795 17.1262 2.27828 17.4316C2.17441 17.6435 2.07869 17.8848 1.99023 18.1478C2.78158 19.5512 3.859 20.7718 5.14413 21.7296C5.14413 21.2156 5.14413 20.7137 5.14413 20.2521C5.14417 18.4131 3.78489 17.2228 2.95628 16.668Z" fill="#7E6DD1"/>
<path d="M16.2959 19.7168H14.1162C13.8068 19.7168 13.5537 19.9699 13.5537 20.2793V23.7012C13.5537 23.7675 13.5659 23.8311 13.5874 23.8903C14.7414 23.7308 15.8405 23.3999 16.8584 22.9239V20.2793C16.8584 19.9699 16.6053 19.7168 16.2959 19.7168Z" fill="#B5B0F7"/>
<path d="M19.8513 4.13477C18.761 4.94073 17.4044 6.29945 17.9795 8.00181C18.8701 10.6382 14.8388 12.3009 19.3388 14.2117C21.1381 14.9758 22.1835 15.7729 22.791 16.4547C23.2396 15.2261 23.4848 13.8996 23.4848 12.5156C23.4848 9.2095 22.0872 6.23017 19.8513 4.13477Z" fill="#FFDD40"/>
<path d="M4.14919 4.13477C5.2395 4.94073 6.59611 6.29945 6.021 8.00181C5.13038 10.6382 9.16162 12.3009 4.66162 14.2117C2.86238 14.9758 1.81687 15.7729 1.20952 16.4547C0.760828 15.2261 0.515625 13.8996 0.515625 12.5156C0.515672 9.2095 1.91325 6.23017 4.14919 4.13477Z" fill="#FFDD40"/>
<path d="M7.72852 7.38168H16.3193C16.3346 6.7627 16.4378 5.12432 17.0847 3.95723C17.1747 3.7949 17.1908 3.60206 17.1281 3.42735C16.8934 2.77288 16.1922 1.24288 14.6631 0.834791C14.5816 0.813041 14.5601 0.707666 14.6264 0.655588L14.8555 0.475541C14.9594 0.393885 14.9195 0.228041 14.7898 0.203057C13.6615 -0.0145369 9.91458 -0.535224 8.75067 1.85807C8.6812 2.0009 8.55028 2.10374 8.39653 2.14354C8.05786 2.2312 7.44872 2.49538 7.05169 3.28706C6.97402 3.44188 6.9608 3.62146 7.01644 3.78548C7.20938 4.35412 7.67948 5.88103 7.72852 7.38168Z" fill="#56415E"/>
<path d="M11.5725 3.59882C10.2004 1.50777 12.6005 0.000976562 12.6005 0.000976562C11.1449 0.0198203 9.46345 0.39257 8.75067 1.85821C8.6812 2.00104 8.55028 2.10388 8.39653 2.14368C8.05786 2.23134 7.44872 2.49552 7.05169 3.2872C6.97402 3.44202 6.9608 3.6216 7.01644 3.78562C7.20938 4.35426 7.67948 5.88116 7.72852 7.38182H9.7282C10.9938 6.35662 12.3878 4.84138 11.5725 3.59882Z" fill="#45304C"/>
<path d="M16.6527 7.13112C16.4604 6.95487 16.0304 7.04422 15.8648 7.15212C15.901 7.37811 15.9031 7.6093 15.8718 7.83758L15.6763 9.26127C15.6763 9.37602 15.6727 9.48861 15.666 9.59923C16.1427 9.743 16.4263 9.31508 16.4662 9.02141C16.4834 8.89498 16.5115 8.77039 16.5504 8.6488C16.6772 8.25289 17.1346 7.57273 16.6527 7.13112Z" fill="#FFAA7B"/>
<path d="M7.34767 7.13112C7.53999 6.95487 7.96998 7.04422 8.13563 7.15212C8.09935 7.37811 8.09729 7.6093 8.12865 7.83758L8.32412 9.26127C8.32412 9.37602 8.32773 9.48861 8.33438 9.59923C7.85771 9.743 7.57407 9.31508 7.53418 9.02141C7.51702 8.89498 7.48895 8.77039 7.44999 8.6488C7.3232 8.25289 6.86579 7.57273 7.34767 7.13112Z" fill="#FC9460"/>
<path d="M15.7938 6.71262C15.7498 6.59782 15.6944 6.48157 15.6245 6.37193C15.5061 6.18621 15.454 5.96656 15.4699 5.74756C15.5155 5.11765 15.4911 3.88563 14.6642 3.51354C13.9616 3.19741 13.0998 3.38046 12.5503 3.56318C12.2065 3.67751 11.8352 3.6814 11.4894 3.57551C10.8633 4.05607 10.8485 5.13809 10.8909 5.71423C10.907 5.93445 10.8528 6.15471 10.7338 6.34146C10.6653 6.44909 10.6104 6.56299 10.5665 6.67573C10.4241 7.04145 10.3826 7.4381 10.4359 7.82651L10.634 9.26937C10.634 11.3437 11.7413 12.7536 12.6832 13.485C12.8222 13.593 12.9709 13.6858 13.1262 13.7651C13.3298 13.6749 13.5228 13.5602 13.7006 13.4222C14.6302 12.7003 15.723 11.3088 15.723 9.26159L15.9184 7.8379C15.9706 7.45835 15.9311 7.07074 15.7938 6.71262Z" fill="#FFC7AB"/>
<path d="M12.6902 13.4222C11.7606 12.7004 10.6678 11.3089 10.6678 9.26163L10.4723 7.83762C10.4196 7.45432 10.4606 7.06282 10.6011 6.70188C10.6444 6.5906 10.6985 6.4782 10.7663 6.37198C10.8837 6.18766 10.9372 5.9703 10.9213 5.75295C10.8782 5.16626 10.8949 4.04815 11.5726 3.59881C11.5314 3.5884 11.4904 3.57668 11.4499 3.56318C10.9003 3.38046 10.0385 3.19741 9.33602 3.51354C8.5067 3.88666 8.48449 5.12468 8.53066 5.75295C8.54664 5.9703 8.49311 6.18766 8.37564 6.37198C8.30795 6.4782 8.25377 6.5906 8.21045 6.70188C8.06997 7.06282 8.029 7.45432 8.08164 7.83762L8.27716 9.26163C8.27716 11.3089 9.37 12.7003 10.2995 13.4222C10.7847 13.799 11.3835 14.0036 12.0002 14.0036C12.4167 14.0036 12.8248 13.9099 13.1955 13.7333C13.0173 13.6484 12.8477 13.5446 12.6902 13.4222Z" fill="#FFAA7B"/>
</g>
<defs>
<clipPath id="clip0_256_1726">
<rect width="24" height="24" fill="white"/>
</clipPath>
</defs>
</svg>
