<svg width="52" height="52" viewBox="0 0 52 52" fill="none" xmlns="http://www.w3.org/2000/svg">
<g clip-path="url(#clip0_124_4473)">
<path d="M26 52C40.3594 52 52 40.3594 52 26C52 11.6406 40.3594 0 26 0C11.6406 0 0 11.6406 0 26C0 40.3594 11.6406 52 26 52Z" fill="#F0F0F0"/>
<path d="M51.9999 25.9999C51.9999 15.692 46.0011 6.78533 37.3042 2.57983V49.4199C46.0011 45.2146 51.9999 36.3079 51.9999 25.9999Z" fill="#D80027"/>
<path d="M0 25.9999C0 36.3079 5.99879 45.2146 14.6957 49.4201V2.57983C5.99879 6.78533 0 15.692 0 25.9999Z" fill="#6DA544"/>
<path d="M19.2173 25.9999C19.2173 29.7458 22.254 32.7825 25.9999 32.7825C29.7459 32.7825 32.7826 29.7458 32.7826 25.9999V23.739H19.2173V25.9999Z" fill="#6DA544"/>
<path d="M35.0434 21.4782H28.2607C28.2607 20.2296 27.2484 19.2173 25.9998 19.2173C24.7512 19.2173 23.7389 20.2296 23.7389 21.4782H16.9563C16.9563 22.7269 18.0439 23.7391 19.2924 23.7391H19.2172C19.2172 24.9878 20.2294 25.9999 21.4781 25.9999C21.4781 27.2486 22.4902 28.2608 23.7389 28.2608H28.2607C29.5094 28.2608 30.5216 27.2486 30.5216 25.9999C31.7703 25.9999 32.7825 24.9878 32.7825 23.7391H32.7071C33.9558 23.7391 35.0434 22.7269 35.0434 21.4782Z" fill="#FF9811"/>
</g>
<defs>
<clipPath id="clip0_124_4473">
<rect width="52" height="52" fill="white"/>
</clipPath>
</defs>
</svg>
