<svg width="139" height="56" viewBox="0 0 139 56" fill="none" xmlns="http://www.w3.org/2000/svg">
<g filter="url(#filter0_bd_124_5781)">
<rect x="6" y="6" width="127" height="44" rx="22" fill="#1A1C43"/>
</g>
<path d="M49.064 29.52H45.704L46.312 26.64H49.672L49.064 29.52ZM48.104 34H49.496L50.184 30.8H52.664V29.52H50.456L51.064 26.64H53.56V25.36H51.336L52.024 22.16H50.632L49.944 25.36H46.584L47.272 22.16H45.88L45.192 25.36H42.44V26.64H44.92L44.312 29.52H41.528V30.8H44.04L43.352 34H44.744L45.432 30.8H48.792L48.104 34ZM55.6695 34H57.1255V25.728L60.8215 34H61.8455L65.5255 25.744V34H66.9815V22.928H65.4295L61.3335 32.08L57.2375 22.928H55.6695V34ZM75.4988 34H77.4028L72.2988 28.432L77.3548 22.848H75.5148L70.9068 28.016V22.848H69.4508V34H70.9068V28.912L75.4988 34ZM78.7569 25.344H80.1809C80.3249 24.224 81.1409 23.456 82.5009 23.456C83.8929 23.456 84.6289 24.224 84.6289 25.328C84.6289 26.672 83.5889 27.264 81.6529 27.28H81.2689V28.496H81.6369C83.7169 28.496 84.8529 29.12 84.8529 30.752C84.8529 31.936 84.1169 32.848 82.5649 32.848C81.0289 32.848 80.1329 31.904 79.9889 30.672H78.5809C78.7569 32.912 80.3889 34.08 82.5809 34.08C84.9969 34.08 86.2449 32.672 86.2449 30.88C86.2449 29.216 85.3329 28.224 83.9889 27.904V27.824C85.2049 27.552 86.0369 26.512 86.0369 25.184C86.0369 23.52 84.8049 22.208 82.5489 22.208C80.4049 22.208 78.9009 23.36 78.7569 25.344ZM93.7788 34H95.2188V31.424H96.8188V30.16H95.2188V22.544H93.4748L87.8588 30.32V31.424H93.7788V34ZM89.5388 30.16L93.8428 24.064V30.16H89.5388Z" fill="#B1B1B1"/>
<defs>
<filter id="filter0_bd_124_5781" x="-14" y="-14" width="167" height="84" filterUnits="userSpaceOnUse" color-interpolation-filters="sRGB">
<feFlood flood-opacity="0" result="BackgroundImageFix"/>
<feGaussianBlur in="BackgroundImageFix" stdDeviation="10"/>
<feComposite in2="SourceAlpha" operator="in" result="effect1_backgroundBlur_124_5781"/>
<feColorMatrix in="SourceAlpha" type="matrix" values="0 0 0 0 0 0 0 0 0 0 0 0 0 0 0 0 0 0 127 0" result="hardAlpha"/>
<feOffset/>
<feGaussianBlur stdDeviation="3"/>
<feComposite in2="hardAlpha" operator="out"/>
<feColorMatrix type="matrix" values="0 0 0 0 0.371944 0 0 0 0 0.371944 0 0 0 0 0.433333 0 0 0 1 0"/>
<feBlend mode="normal" in2="effect1_backgroundBlur_124_5781" result="effect2_dropShadow_124_5781"/>
<feBlend mode="normal" in="SourceGraphic" in2="effect2_dropShadow_124_5781" result="shape"/>
</filter>
</defs>
</svg>
