<svg width="52" height="52" viewBox="0 0 52 52" fill="none" xmlns="http://www.w3.org/2000/svg">
<g clip-path="url(#clip0_124_4504)">
<path d="M26 52C40.3594 52 52 40.3594 52 26C52 11.6406 40.3594 0 26 0C11.6406 0 0 11.6406 0 26C0 40.3594 11.6406 52 26 52Z" fill="#D80027"/>
<path d="M41.3664 21.3382H29.6257L26 10.1765L22.3742 21.3382H10.6335L20.1296 28.2343L16.5039 39.396L26 32.5L35.496 39.396L31.8703 28.2343L41.3664 21.3382ZM22.7906 27.371L24.0195 23.5929H27.9906L29.2195 27.371L26.0101 29.707L22.7906 27.371ZM27.2492 21.3382H24.7507L26 17.489L27.2492 21.3382ZM31.139 25.9796L30.3671 23.6031H34.4093L31.139 25.9796ZM21.6429 23.6031L20.871 25.9796L17.6007 23.6031H21.6429ZM20.8 33.4851L22.0492 29.6359L24.0703 31.1085L20.8 33.4851ZM27.9195 31.1085L29.9406 29.6359L31.1898 33.4851L27.9195 31.1085Z" fill="#6DA544"/>
</g>
<defs>
<clipPath id="clip0_124_4504">
<rect width="52" height="52" fill="white"/>
</clipPath>
</defs>
</svg>
