<svg width="150" height="56" viewBox="0 0 150 56" fill="none" xmlns="http://www.w3.org/2000/svg">
<g filter="url(#filter0_bd_124_5786)">
<rect x="6" y="6" width="138" height="44" rx="22" fill="#0CA92E"/>
</g>
<path d="M122.174 28.3183L124.473 30.6176L125.877 32.0287C126.472 32.6232 127.439 32.6232 128.033 32.0287L131.744 28.3183C132.231 27.8312 131.88 27.0003 131.199 27.0003H127.181H122.718C122.031 27.0003 121.687 27.8312 122.174 28.3183Z" fill="white"/>
<path d="M29.888 28.416C29.888 25.072 27.44 22.72 24.288 22.72C21.152 22.72 18.688 25.072 18.688 28.416C18.688 31.76 21.152 34.112 24.288 34.112C27.44 34.112 29.888 31.76 29.888 28.416ZM20.176 28.416C20.176 25.68 21.936 23.984 24.288 23.984C26.64 23.984 28.4 25.68 28.4 28.416C28.4 31.136 26.64 32.848 24.288 32.848C21.936 32.848 20.176 31.136 20.176 28.416ZM33.2661 26.848V25.232H31.8101V38.16H33.2661V32.384C33.8101 33.28 34.9461 34.144 36.5461 34.144C38.8981 34.144 40.7061 32.304 40.7061 29.584C40.7061 26.848 38.8981 25.088 36.5461 25.088C34.9461 25.088 33.7941 25.92 33.2661 26.848ZM39.2181 29.584C39.2181 31.648 37.8581 32.864 36.2421 32.864C34.6581 32.864 33.2661 31.664 33.2661 29.6C33.2661 27.568 34.6581 26.352 36.2421 26.352C37.8581 26.352 39.2181 27.52 39.2181 29.584ZM46.3506 26.32C47.8546 26.32 49.1346 27.264 49.1186 28.976H43.5826C43.7426 27.264 44.9266 26.32 46.3506 26.32ZM50.4466 31.296H48.8786C48.5586 32.24 47.7266 32.912 46.4146 32.912C44.9266 32.912 43.6786 31.936 43.5666 30.16H50.5746C50.6066 29.856 50.6226 29.6 50.6226 29.28C50.6226 26.88 48.9586 25.088 46.4146 25.088C43.8546 25.088 42.0786 26.832 42.0786 29.6C42.0786 32.384 43.9186 34.144 46.4146 34.144C48.5906 34.144 49.9986 32.896 50.4466 31.296ZM58.9605 34H60.4005V28.832C60.4005 26.32 58.8485 25.072 56.8165 25.072C55.6325 25.072 54.5765 25.568 54.0005 26.48V25.232H52.5445V34H54.0005V29.152C54.0005 27.264 55.0245 26.336 56.5125 26.336C57.9845 26.336 58.9605 27.248 58.9605 29.04V34Z" fill="white"/>
<defs>
<filter id="filter0_bd_124_5786" x="-14" y="-14" width="178" height="84" filterUnits="userSpaceOnUse" color-interpolation-filters="sRGB">
<feFlood flood-opacity="0" result="BackgroundImageFix"/>
<feGaussianBlur in="BackgroundImageFix" stdDeviation="10"/>
<feComposite in2="SourceAlpha" operator="in" result="effect1_backgroundBlur_124_5786"/>
<feColorMatrix in="SourceAlpha" type="matrix" values="0 0 0 0 0 0 0 0 0 0 0 0 0 0 0 0 0 0 127 0" result="hardAlpha"/>
<feOffset/>
<feGaussianBlur stdDeviation="3"/>
<feComposite in2="hardAlpha" operator="out"/>
<feColorMatrix type="matrix" values="0 0 0 0 0.371944 0 0 0 0 0.371944 0 0 0 0 0.433333 0 0 0 1 0"/>
<feBlend mode="normal" in2="effect1_backgroundBlur_124_5786" result="effect2_dropShadow_124_5786"/>
<feBlend mode="normal" in="SourceGraphic" in2="effect2_dropShadow_124_5786" result="shape"/>
</filter>
</defs>
</svg>
