<svg width="52" height="52" viewBox="0 0 52 52" fill="none" xmlns="http://www.w3.org/2000/svg">
<g clip-path="url(#clip0_124_4428)">
<path d="M26 52C40.3594 52 52 40.3594 52 26C52 11.6406 40.3594 0 26 0C11.6406 0 0 11.6406 0 26C0 40.3594 11.6406 52 26 52Z" fill="#3D9635"/>
<path d="M7.64575 15.1368C7.55962 16.4807 7.44912 18.858 8.45825 19.0985C9.68512 19.2253 9.00912 16.7569 9.45112 16.3084C9.53562 16.0907 9.69162 16.0907 9.703 16.3653V18.468C9.68591 18.6913 9.74621 18.9137 9.87375 19.0977C10.0013 19.2818 10.1883 19.4164 10.4034 19.4788C10.7284 19.4544 10.9396 19.4658 11.0647 19.8233C11.1189 21.029 11.1693 22.2348 11.2159 23.4405C11.2159 23.4405 11.965 23.6924 12.0007 21.4077C11.9259 20.503 11.9026 19.5947 11.9309 18.6874C11.9309 18.4339 12.2234 18.4112 12.4314 18.5493C12.7564 18.8028 12.8961 19.1115 13.3934 18.9864C14.1539 18.7443 14.6056 18.3364 14.6186 17.6767C14.5999 17.039 14.4849 16.4079 14.2774 15.8047C14.3099 15.6893 14.1262 15.4033 14.1652 15.2879C14.3001 15.53 14.5049 15.5057 14.5504 15.2879C14.4765 14.8433 14.246 14.4398 13.9004 14.1504C13.6306 13.8855 13.2325 13.9424 13.0879 14.5063C13.0727 15.2257 13.2917 15.9306 13.7119 16.5148C13.8415 16.835 13.8943 17.1812 13.8662 17.5255C13.7652 17.5881 13.6437 17.6087 13.5277 17.5829C13.4117 17.5571 13.3104 17.4869 13.2455 17.3874C13.2455 17.3874 12.6345 16.8707 12.6345 16.7683C12.7824 16.234 12.7648 15.6674 12.5841 15.1433C12.5167 14.8286 12.3814 14.5325 12.1876 14.2755C12.0381 14.0805 11.8334 14.0805 11.7359 14.2755C11.5209 14.9744 11.538 15.7241 11.7846 16.4124C11.9195 16.8707 12.1372 17.1583 12.0381 17.1583C11.9536 17.4232 11.7814 17.3533 11.6579 17.0543C11.5094 16.4107 11.439 15.7517 11.4482 15.0913C11.3914 14.5745 11.3296 13.4663 11.029 13.1852C10.8454 12.9089 10.5691 13.047 10.4716 13.3119C10.4482 13.8093 10.4585 14.3077 10.5025 14.8037C10.6824 15.598 10.8078 16.4037 10.8779 17.2152C10.9039 18.3527 10.2961 17.7027 10.3221 17.1355C10.4519 16.417 10.4448 15.6804 10.301 14.9645C10.2019 14.6672 10.0849 14.5973 9.8395 14.6558C9.6445 14.6314 9.15212 15.2408 9.014 16.2515C8.94172 16.5776 8.88747 16.9075 8.8515 17.2395C8.78 17.7563 8.47612 18.1235 8.26325 17.1583C8.07475 16.4579 7.96425 14.7354 7.6555 15.1368" fill="white"/>
<path d="M10.9851 20.6488C9.90123 21.2582 8.84823 21.8091 7.78223 22.3827C7.96217 21.8078 8.29177 21.2911 8.73724 20.8857C9.18271 20.4802 9.72801 20.2004 10.3172 20.0752C10.9672 20.0979 10.8047 20.3628 10.9851 20.6488Z" fill="white"/>
<path d="M15.0687 13.047C14.998 13.0616 14.9292 13.0845 14.8639 13.1153C14.6982 13.1728 14.561 13.2922 14.4811 13.4484C14.4011 13.6046 14.3846 13.7857 14.4349 13.9538C14.7437 16.0663 14.9403 17.675 15.2474 19.7762C15.3011 20.0297 15.1126 20.3514 14.8769 20.3287C14.4723 20.0183 14.3716 19.3862 13.6826 19.4203C13.3916 19.4791 13.126 19.6266 12.9223 19.8425C12.7187 20.0585 12.5869 20.3322 12.5451 20.626C12.4523 21.0807 12.4523 21.5494 12.5451 22.004C12.6676 22.1816 12.8481 22.3111 13.0556 22.3704C13.263 22.4297 13.4847 22.4151 13.6826 22.329C13.9848 22.1909 14.2367 21.8415 14.3439 21.9277C14.4106 22.0658 14.3342 23.1675 12.9172 24.006C12.0413 24.4415 11.3491 24.5569 10.9672 23.7525C10.7397 23.2488 10.9851 21.341 10.4179 21.7782C8.73118 26.6694 14.3651 27.3584 14.9972 21.9845C15.0378 21.835 15.1597 21.6855 15.2523 21.7213C15.2946 21.744 15.3238 21.8009 15.3336 21.9163C15.2036 26.7734 10.9769 27.0952 10.2603 25.579C10.0866 25.049 10.001 24.494 10.0068 23.9362C10.0062 23.7429 9.94602 23.5545 9.83456 23.3967C9.66231 23.2602 9.43318 23.6388 9.38118 24.2937C9.32949 24.6814 9.31263 25.073 9.33081 25.4637C9.55506 29.323 14.9988 27.6688 15.8877 24.4887C16.0629 23.4858 16.1121 22.465 16.0339 21.4499H16.0518L16.0648 21.4385C16.6157 22.0885 17.3648 21.5182 17.5354 21.3004C17.5534 21.2679 17.5787 21.2402 17.6095 21.2195C17.6402 21.1987 17.6755 21.1856 17.7123 21.1811C17.7491 21.1767 17.7865 21.1811 17.8213 21.1939C17.8561 21.2067 17.8873 21.2276 17.9124 21.2549C18.0186 21.3399 18.1441 21.3975 18.2777 21.4226C18.4114 21.4476 18.5492 21.4394 18.679 21.3986C18.8087 21.3578 18.9265 21.2857 19.0218 21.1887C19.1171 21.0917 19.187 20.9726 19.2254 20.8422C19.321 20.2373 19.3823 19.6275 19.4091 19.0157C19.1955 19.0622 18.995 19.1561 18.8224 19.2903C18.7995 19.3165 18.7843 19.3486 18.7786 19.3829C18.7574 19.5454 18.7347 19.7274 18.7087 19.8997C18.7057 19.915 18.7019 19.9302 18.6973 19.9452C18.6844 19.9658 18.6658 19.9821 18.6437 19.9923C18.6176 20.0099 18.5874 20.0203 18.556 20.0224C18.5246 20.0245 18.4933 20.0181 18.4651 20.0041C18.437 19.99 18.4131 19.9687 18.396 19.9424C18.3788 19.916 18.3689 19.8856 18.3674 19.8542C18.2391 19.2042 17.7028 19.0953 17.3762 20.1288C17.1519 20.3368 16.7587 20.3709 16.7148 20.0833C16.7717 19.3829 16.5182 19.2903 16.0209 19.612C15.8584 18.234 15.6959 16.9259 15.5334 15.5495C15.7447 15.5495 15.9299 15.7218 16.1233 15.4569C15.9487 14.6408 15.6517 13.8557 15.2426 13.1283C15.2305 13.1119 15.2174 13.0961 15.2036 13.0812C15.2001 13.0809 15.1967 13.0797 15.1939 13.0777C15.191 13.0757 15.1888 13.073 15.1873 13.0698H15.1678C15.1581 13.0584 15.1418 13.0584 15.1402 13.047C15.1142 13.047 15.0914 13.0357 15.0687 13.047ZM13.5542 20.5919C13.6203 20.5857 13.6865 20.603 13.7412 20.6407C13.7959 20.6785 13.8355 20.7343 13.8532 20.7983C13.8731 20.86 13.8778 20.9255 13.8671 20.9894C13.8563 21.0534 13.8304 21.1138 13.7914 21.1655C13.7476 21.2468 13.6046 21.2127 13.4973 21.2127C13.4432 21.2177 13.3888 21.2061 13.3415 21.1794C13.2941 21.1527 13.2561 21.1121 13.2324 21.0632C13.1934 20.9364 13.3007 20.8097 13.3527 20.7073C13.4047 20.6049 13.3624 20.6845 13.3706 20.6732C13.4235 20.6303 13.4868 20.6022 13.5542 20.5919Z" fill="white"/>
<path d="M18.8632 12.9316C18.7301 12.9446 18.6009 12.9839 18.483 13.047C18.3463 13.1905 18.2606 13.3749 18.2388 13.5719C18.2171 13.7689 18.2606 13.9675 18.3627 14.1374C18.5772 14.2414 18.7917 14.4949 18.6455 14.6249C18.0442 15.3496 16.4663 16.5749 16.3867 16.7959V16.8073V16.8186H16.3997C16.7888 16.8851 17.186 16.889 17.5762 16.83V16.8186C18.2868 16.1395 18.9391 15.4019 19.5262 14.6135C19.4466 14.5339 19.3637 14.4754 19.2841 14.3958C19.2651 14.3805 19.2498 14.3612 19.2393 14.3393C19.2287 14.3174 19.2233 14.2933 19.2233 14.269C19.2233 14.2447 19.2287 14.2207 19.2393 14.1987C19.2498 14.1768 19.2651 14.1575 19.2841 14.1423C19.4372 14.0039 19.53 13.811 19.5425 13.605C19.5549 13.399 19.4861 13.1963 19.3507 13.0405C19.2017 12.9595 19.0324 12.9233 18.8632 12.9365M18.7885 13.5686C18.8876 13.5573 19.003 13.6726 19.0615 13.8091C19.12 13.9456 19.0923 14.1081 18.9948 14.1423C18.8973 14.1764 18.7625 14.0626 18.6975 13.9131C18.6325 13.7636 18.6682 13.6028 18.7706 13.58C18.7706 13.58 18.7706 13.5686 18.7885 13.5686Z" fill="white"/>
<path d="M7.89437 24.118C7.62368 24.5949 7.45502 25.1228 7.39908 25.6683C7.34313 26.2137 7.40112 26.7649 7.56937 27.2868C7.64307 27.3938 7.74804 27.4755 7.86992 27.5205C7.9918 27.5656 8.12464 27.572 8.25025 27.5387C8.62562 27.355 8.79462 26.4938 8.702 26.185C8.57687 25.9543 8.47775 25.9202 8.34937 26.1152C8.08775 26.7132 7.97562 26.2988 7.95125 25.9527C7.92087 25.3851 7.94481 24.8159 8.02275 24.2529C8.08937 23.7833 8.02275 23.9198 7.89112 24.1164" fill="white"/>
<path d="M33.5955 22.3956C33.017 20.9818 32.211 19.5925 31.9558 19.0643C31.7007 18.5362 29.7653 15.3788 29.4793 15.0116C28.8488 14.1731 30.4998 15.3675 29.2697 13.6905C28.805 13.242 28.7822 13.2192 28.3808 12.852C28.1923 12.6895 27.7065 12.4165 27.6285 12.8747C27.5841 13.2077 27.5978 13.5458 27.6691 13.8741C27.7915 14.1786 27.9555 14.4646 28.1566 14.724C30.2261 17.801 32.0257 21.0512 33.5353 24.4382C33.8018 24.3017 33.745 22.6361 33.5873 22.3956" fill="white"/>
<path d="M31.0473 27.1032C30.9286 27.2414 31.3251 27.8719 31.8435 27.8605C32.7031 27.7581 33.4685 27.2105 34.164 25.7707C34.4537 25.279 34.6349 24.7311 34.6954 24.1636C34.7821 21.4425 34.5877 18.7198 34.1153 16.0386C34.0852 15.8516 34.0923 15.6606 34.1364 15.4764C34.1916 15.3967 34.3818 15.4764 34.4809 15.2927C34.632 15.1205 34.0925 13.7197 33.7854 13.1802C33.6765 12.9381 33.6375 12.7789 33.4604 13.203C33.2407 13.6852 33.1371 14.2123 33.1581 14.7419C33.5693 17.935 33.6944 20.7544 33.9706 23.9394C34.0166 24.2675 33.9453 24.6013 33.7691 24.8819C33.0388 25.8151 32.1117 26.5758 31.0538 27.1097" fill="white"/>
<path d="M40.9208 31.7702C40.2984 32.1732 40.2984 32.6428 40.8038 32.6542C41.318 32.6666 41.8265 32.545 42.2795 32.3014C42.7325 32.0578 43.1143 31.7006 43.3875 31.2648C43.6348 30.6995 43.7763 30.0937 43.8052 29.4773C43.9219 26.5409 43.7652 23.6 43.3372 20.6926C43.2821 20.4203 43.2533 20.1433 43.251 19.8655C43.3095 19.716 43.5874 19.8882 43.6817 19.703C43.8344 19.5405 42.9618 18.2681 42.6498 17.7286C42.5458 17.4865 42.5068 17.3256 42.3248 17.7627C42.1196 18.2441 42.0575 18.7745 42.146 19.2902C42.6079 22.5802 42.8965 25.8922 43.0105 29.2125C42.9887 29.4896 42.9308 29.7628 42.8383 30.025C42.6019 30.4284 42.3188 30.8025 41.9949 31.1397C41.7089 31.3688 41.1109 31.598 40.9175 31.7702" fill="white"/>
<path d="M43.1488 23.9687C43.139 23.1562 43.1699 22.4526 43.139 21.8432C43.1081 21.2339 42.866 18.9605 42.7896 18.4795C42.7133 17.9985 42.6174 17.251 42.5004 16.6644C42.4323 16.324 42.3963 15.978 42.3931 15.6309C42.4386 15.4684 42.6385 15.6422 42.7279 15.4472C42.6256 14.5526 42.3496 13.6865 41.9154 12.8976C41.8033 12.6571 41.5904 12.7351 41.332 13.1284C41.085 13.3802 41.1695 13.9539 41.2686 14.5064C41.945 18.0988 42.2736 21.7481 42.2501 25.4036C42.2144 25.6912 43.1585 24.5196 43.1488 23.9687Z" fill="white"/>
<path d="M38.5842 19.4658C38.1926 19.4544 37.3768 18.6159 37.1396 18.1236C37.0682 17.8843 37.0843 17.6273 37.1851 17.3988C37.3297 17.2964 37.5523 17.1697 37.7165 17.2964C37.7165 17.2964 37.8887 17.5597 37.8562 17.5954C38.0675 17.7092 38.1601 17.6409 38.1812 17.5369C38.1942 17.3744 38.1146 17.2737 38.1146 17.0901C38.204 16.5733 38.7223 16.5034 38.9271 16.8252C39.0669 17.1032 39.1413 17.4094 39.1448 17.7206C39.1448 17.8701 38.932 17.6978 38.8198 17.7319C38.7077 17.7661 38.672 17.9172 38.6573 18.057C38.6313 18.4356 38.5956 19.0222 38.5907 19.4691" fill="white"/>
<path d="M31.3983 24.8754C31.5088 23.7607 31.3626 21.51 31.3528 20.8568C31.3171 19.3179 31.0879 16.3425 30.9856 15.8485C30.8621 14.9077 31.3252 15.9525 31.2586 15.4017C31.0544 14.5202 30.6613 13.6935 30.1064 12.9788C29.9342 12.7025 29.9439 12.6457 29.6677 13.047C29.4919 13.6644 29.5044 14.3202 29.7034 14.9304C30.0749 16.733 30.3171 18.5598 30.4282 20.3969C30.5456 22.3318 30.5602 24.2715 30.4721 26.2079C30.7662 26.2079 31.2358 25.6684 31.3983 24.8754Z" fill="white"/>
<path d="M44.4765 23.0961C43.7956 21.7961 42.7556 20.2816 42.481 19.7649C42.2064 19.2481 39.8599 15.3904 39.5674 15.0524C38.7094 14.053 39.9606 14.8899 39.4049 14.0985C39.106 13.6971 38.7661 13.3279 38.3909 12.9968C38.191 12.8586 38.0659 12.571 38.0009 13.0423C37.9654 13.4621 37.9551 13.8838 37.97 14.3049C38.0151 14.5903 38.1326 14.8594 38.3112 15.0865C40.6281 18.2655 42.686 21.6255 44.4651 25.1339C44.7251 24.9974 44.6357 23.3318 44.4749 23.1026" fill="white"/>
<path d="M36.1678 35.3956C36.0469 35.4319 35.9388 35.5015 35.8556 35.5964C35.7725 35.6913 35.7177 35.8077 35.6975 35.9323C35.6773 36.0568 35.6926 36.1846 35.7416 36.3009C35.7905 36.4172 35.8712 36.5173 35.9744 36.59C29.5638 36.59 19.7244 36.4746 17.6233 36.4746C16.4387 36.4746 12.7093 36.3121 12.6394 36.3121C13.0102 36.8777 13.5321 37.3281 14.1459 37.6122C14.7597 37.8962 15.4408 38.0026 16.112 37.9192C18.9623 37.9192 32.1492 37.8851 35.898 37.8851C35.8032 38.1405 35.7752 38.416 35.8167 38.6853C35.8582 38.9547 35.9679 39.2089 36.1353 39.424L36.1499 39.4353C36.1519 39.4394 36.1553 39.4428 36.1594 39.4448C36.1635 39.4469 36.1681 39.4475 36.1727 39.4467H36.184C36.4343 39.5166 36.5432 39.3086 36.6309 39.1721C37.589 39.2257 38.5495 39.2219 39.5072 39.1607C39.6485 39.3898 39.7915 39.6076 40.0564 39.5735C40.5244 39.4581 40.8917 39.4012 40.9079 38.3336C40.9079 38.3336 40.8592 36.5185 39.7964 36.6338C39.5445 36.668 38.8409 36.7492 38.8409 36.7492C38.0284 36.6452 37.4223 36.6338 36.5058 36.5867C36.5919 36.4713 36.7382 35.9773 36.5562 35.8051C36.5259 35.7797 36.491 35.7606 36.4533 35.7489C36.4157 35.7372 36.376 35.7331 36.3368 35.7368H36.3189C36.3189 35.7368 36.3043 35.7255 36.2994 35.7141V35.7027C36.2575 35.602 36.2233 35.4982 36.197 35.3923H36.1759M36.6114 37.9923C37.5409 38.0378 38.4184 38.0037 39.3577 38.0492C39.4148 38.1267 39.4436 38.2214 39.4392 38.3176C39.4348 38.4138 39.3974 38.5055 39.3333 38.5773C39.3333 38.5887 39.3203 38.5887 39.3203 38.5887H39.2943C38.9904 38.5773 38.8165 38.5773 38.5127 38.566C38.5127 38.5432 38.5029 38.5318 38.5029 38.5091C38.4282 38.267 37.9114 38.2913 37.7847 38.4863V38.4977V38.5205V38.5432C37.7815 38.5544 37.7815 38.5662 37.7847 38.5773C37.386 38.6027 36.9858 38.5874 36.5903 38.5318C36.4749 38.3693 36.4879 38.072 36.6293 37.9923" fill="white"/>
<path d="M19.9502 14.0351C19.3278 16.0322 20.311 18.2373 20.9902 18.031C21.4777 18.2487 21.7913 17.1925 21.9961 16.0436C22.1358 15.7186 22.2382 15.6877 22.3097 15.8486C22.2886 17.3875 22.4056 17.732 22.7566 18.1918C22.8507 18.2929 22.9643 18.3739 23.0905 18.43C23.2168 18.4861 23.353 18.5161 23.4911 18.5182C23.6292 18.5203 23.7663 18.4945 23.8942 18.4424C24.0221 18.3902 24.1381 18.3127 24.2353 18.2146C24.2857 18.1691 24.8447 17.537 24.8447 17.537C24.8743 17.4986 24.9119 17.4671 24.9549 17.4447C24.9979 17.4223 25.0453 17.4096 25.0938 17.4074C25.1422 17.4053 25.1905 17.4137 25.2353 17.4322C25.2802 17.4506 25.3205 17.4786 25.3533 17.5142C25.5337 17.6978 25.5158 18.031 25.9091 18.2487C26.1168 18.3299 26.3443 18.346 26.5614 18.2949C26.7784 18.2438 26.9749 18.128 27.1246 17.9627C27.3488 17.537 27.3976 17.3875 27.5 17.2266C27.6625 16.9861 27.9322 17.0901 27.9322 17.1697C27.9078 17.3078 27.7551 17.4346 27.8542 17.6751C28.0492 17.8376 28.0931 17.732 28.2068 17.6978C28.6033 17.4801 28.9023 16.5148 28.9023 16.5148C28.9153 16.1476 28.7398 16.1817 28.6163 16.263C28.4685 16.3653 28.4538 16.4011 28.3043 16.5035C28.1126 16.5262 27.7356 16.6757 27.5536 16.354C27.3602 15.964 27.3602 15.4131 27.2107 15.0231C27.2107 15.0003 26.9621 14.4137 27.1961 14.3731C27.3115 14.3958 27.5617 14.4755 27.604 14.235C27.7307 14.0058 27.3391 13.3396 27.0742 13.0178C27.0269 12.9485 26.964 12.8913 26.8906 12.8507C26.8171 12.81 26.7352 12.7871 26.6514 12.7838C26.5675 12.7805 26.484 12.7969 26.4076 12.8316C26.3312 12.8663 26.264 12.9184 26.2113 12.9837C26.0574 13.1887 25.9762 13.4392 25.9806 13.6955C25.9462 13.8619 25.9468 14.0336 25.9823 14.1998C26.0178 14.366 26.0875 14.5229 26.187 14.6607C26.5572 15.2452 26.7283 15.9339 26.6745 16.6237C26.6116 16.7363 26.5196 16.8298 26.4081 16.8944C26.2965 16.9591 26.1696 16.9924 26.0407 16.991C25.8782 16.9455 25.602 16.8642 25.4557 15.6698C25.4902 14.7293 25.384 13.7889 25.1405 12.8797C25.0153 12.5125 24.9276 12.1566 24.6237 12.7887C24.4914 12.9877 24.4064 13.2143 24.3754 13.4512C24.3444 13.6882 24.3682 13.9291 24.445 14.1553C24.6786 14.8376 24.7455 15.5658 24.64 16.2792C24.5365 16.4848 24.4146 16.6806 24.276 16.8642C24.1881 16.9793 24.059 17.0557 23.9158 17.0772C23.7727 17.0987 23.6268 17.0637 23.509 16.9796C23.3775 16.9054 23.2662 16.8001 23.1849 16.6729C23.1036 16.5457 23.0547 16.4004 23.0426 16.25C23.0967 15.4645 23.0711 14.6756 22.9662 13.8953C22.781 13.4582 22.4673 13.6191 22.3373 13.7458C21.7274 14.5141 21.3301 15.4292 21.1852 16.3995C21.0065 17.0413 20.8163 16.8577 20.6847 16.5945C20.3597 16.2613 20.3402 13.5963 19.9502 14.0335" fill="white"/>
<path d="M22.0562 18.1805C22.0562 18.1919 22.0481 18.1919 22.0384 18.1919V18.2032C21.9977 18.226 21.9441 18.3072 21.8369 18.3982C21.746 18.5203 21.6811 18.6597 21.6465 18.8079C21.6118 18.9561 21.608 19.1098 21.6354 19.2595C21.6435 19.318 21.9766 20.3629 22.2659 21.1087C22.5082 21.916 22.5899 22.7628 22.5064 23.6015C22.0417 24.6789 21.263 25.5912 20.272 26.2194C20.1274 26.2925 19.9676 26.3306 19.8056 26.3306C19.6436 26.3306 19.4838 26.2925 19.3392 26.2194V26.208C19.2498 26.138 19.1797 26.0464 19.1356 25.9417C19.0915 25.8371 19.0749 25.7229 19.0874 25.61C20.0861 24.9951 20.8708 24.0872 21.3347 23.01C21.5539 22.4039 21.5749 21.7438 21.3949 21.125C21.3386 20.8114 21.2076 20.516 21.013 20.2637C21.013 20.2637 21.013 20.2637 21.013 20.2524C21.1381 20.1841 21.4615 20.4587 21.5151 20.2865C21.4211 19.7923 21.1967 19.3323 20.8651 18.954C20.8221 18.8908 20.7653 18.8382 20.699 18.8C20.6327 18.7619 20.5587 18.7392 20.4824 18.7337C20.4061 18.7283 20.3296 18.7401 20.2585 18.7684C20.1875 18.7967 20.1238 18.8407 20.0721 18.8971C19.804 19.0694 19.7471 19.6787 19.8722 20.2182C20.0185 20.6082 20.4134 20.6781 20.6945 21.4809V21.4922C20.7481 21.7715 20.7313 22.0596 20.6457 22.3307C20.1688 22.9944 19.6029 23.5893 18.9639 24.0987L18.9525 24.1101V24.1231H18.9346C18.9346 24.1101 18.9346 24.1101 18.9346 24.1101C18.9409 24.0225 18.9409 23.9345 18.9346 23.8469C18.9346 23.6177 19.0175 23.0652 19.011 22.9629V22.9515C18.5316 23.3074 18.361 24.3864 18.2781 24.7081C17.0565 25.4695 15.9134 26.3502 14.8656 27.3374C14.4464 28.0621 17.7435 26.4875 18.1156 26.3039C18.1156 26.3039 18.1254 26.3039 18.1302 26.3152C18.1999 26.5524 18.2987 26.78 18.4244 26.9929C18.6168 27.2721 18.8913 27.4846 19.2097 27.601C19.5282 27.7174 19.875 27.7321 20.2021 27.6429C21.2847 27.1191 22.182 26.2779 22.7745 25.2314C22.872 25.0689 23.0296 24.9437 23.171 25.0689C23.5117 25.7356 24.035 26.2917 24.6798 26.6724C25.3245 27.053 26.0642 27.2425 26.8126 27.2187C27.2237 26.6549 27.0304 26.3689 26.8614 26.2649C26.8077 26.2194 25.9725 25.8521 25.8457 25.4849C25.7661 25.1517 25.9595 24.8527 26.3609 24.622C27.5044 24.5033 28.6318 24.2609 29.723 23.8989C29.7622 23.446 29.8874 23.0048 30.0919 22.5989C30.1342 22.5068 30.1997 22.4273 30.282 22.3681C30.282 22.3681 30.282 22.3681 30.282 22.3567V22.3454C30.2833 22.3378 30.2833 22.3301 30.282 22.3226L30.0919 22.1959L26.4389 22.1731C26.4024 22.1588 26.368 22.1397 26.3365 22.1162V22.1049V22.0935V22.0821V22.0707V22.0594C26.3365 22.048 26.3365 22.048 26.3365 22.048C26.3651 22.0091 26.4056 21.9806 26.4519 21.9667C27.3294 21.84 28.8764 21.554 28.9771 19.8656C29.0039 19.6754 28.9914 19.4818 28.9403 19.2966C28.8892 19.1115 28.8007 18.9388 28.6802 18.7892C28.5597 18.6396 28.4099 18.5164 28.2398 18.427C28.0698 18.3377 27.8833 18.2842 27.6917 18.2699C27.326 18.3483 27.0049 18.5656 26.7961 18.8759C26.5873 19.1863 26.507 19.5655 26.5721 19.9339C26.5412 20.1532 26.6436 20.6001 26.4389 20.6456C25.0934 20.7951 23.6276 21.7376 23.574 22.4152H23.5561L23.5464 22.4266H23.5285L23.5122 22.4152C23.4435 22.3729 23.3895 22.3104 23.3575 22.2363C23.3255 22.1621 23.3172 22.0799 23.3335 22.0009C23.2719 20.7784 22.9571 19.582 22.4089 18.4876C22.2236 18.2699 22.1391 18.1886 22.0839 18.1772H22.0611M27.4025 19.682C27.5045 19.6715 27.6066 19.6999 27.6885 19.7616C27.7529 19.7942 27.8076 19.8432 27.847 19.9037C27.8864 19.9642 27.909 20.034 27.9127 20.1061V20.1289V20.1402V20.15C27.9127 20.15 27.8997 20.1614 27.89 20.1727C27.8185 20.2524 27.6625 20.241 27.5065 20.137C27.4464 20.104 27.3948 20.0575 27.3559 20.001C27.317 19.9446 27.2918 19.8799 27.2822 19.812V19.799C27.2822 19.7762 27.292 19.7649 27.2985 19.7649L27.3082 19.7421C27.3082 19.7307 27.3082 19.7307 27.3261 19.7194C27.3373 19.708 27.3508 19.6992 27.3656 19.6933C27.3804 19.6874 27.3963 19.6847 27.4122 19.6852M24.0144 23.153H24.0501C24.5536 23.2597 25.0651 23.3249 25.5792 23.348C26.0034 23.3821 26.213 23.7494 25.8165 23.9102C25.42 24.0711 25.0479 24.1751 25.0479 24.8186C25.1016 24.9983 25.1016 25.1898 25.0479 25.3695C25.0479 25.3809 25.0381 25.3922 25.0316 25.3922V25.4036V25.415H25.0202L25.0024 25.4264C25.0014 25.4295 24.9995 25.4323 24.9968 25.4343C24.9942 25.4364 24.9911 25.4376 24.9877 25.4377C24.8902 25.4491 24.7554 25.3354 24.6514 25.2882C24.3717 25.0959 24.1364 24.8458 23.9615 24.5548C23.7866 24.2638 23.6761 23.9388 23.6374 23.6015C23.6325 23.547 23.6385 23.4921 23.655 23.4399C23.6715 23.3878 23.6983 23.3394 23.7336 23.2977C23.769 23.2559 23.8124 23.2217 23.8611 23.1968C23.9099 23.172 23.9631 23.1571 24.0176 23.153" fill="white"/>
<path d="M12.2527 14.0578C12.6768 14.2755 13.4649 14.1845 13.4324 13.4256C13.4324 13.3574 13.4194 13.1283 13.4145 13.0698C13.3317 12.8406 13.0895 12.8861 13.0408 13.1283C13.0229 13.1965 13.0668 13.3233 13.0083 13.3688C12.9498 13.4143 12.8377 13.3801 12.8458 13.1738C12.8417 13.1072 12.8179 13.0433 12.7775 12.9901C12.7649 12.9761 12.7488 12.9655 12.7309 12.9595C12.7129 12.9535 12.6937 12.9523 12.6752 12.956C12.6183 12.9674 12.6183 12.9788 12.5923 13.0356C12.5721 13.0909 12.5611 13.1491 12.5598 13.2079C12.55 13.2875 12.5208 13.3119 12.472 13.3233C12.4233 13.3346 12.4347 13.3346 12.3859 13.3005C12.3632 13.2648 12.3242 13.2534 12.3242 13.1965C12.3231 13.1349 12.3166 13.0734 12.3047 13.0129C12.2783 12.9787 12.241 12.9546 12.199 12.9446C11.9667 12.9446 11.952 13.242 11.9667 13.3574C11.9472 13.3801 11.9407 13.9083 12.2527 14.0578Z" fill="white"/>
<path d="M24.5977 19.9369C25.0186 20.1563 26.0196 20.0295 25.7791 19.2869C25.7764 19.1679 25.7677 19.0492 25.7531 18.931C25.6702 18.7019 25.4378 18.7588 25.3809 18.9895C25.3679 19.0692 25.4134 19.1959 25.3533 19.2414C25.2932 19.2869 25.1811 19.2414 25.1908 19.035C25.1865 18.9719 25.1627 18.9117 25.1226 18.8628C25.1103 18.8501 25.0953 18.8403 25.0786 18.8344C25.062 18.8285 25.0442 18.8265 25.0267 18.8287C24.9714 18.84 24.9714 18.8514 24.9389 18.9083C24.9211 18.9641 24.9108 19.022 24.9081 19.0805C24.9081 19.1618 24.8739 19.1845 24.8236 19.1959C24.7732 19.2073 24.7878 19.2073 24.7391 19.1732C24.6903 19.139 24.6773 19.1277 24.6773 19.0692C24.6794 19.0068 24.6701 18.9445 24.6497 18.8855C24.6258 18.8503 24.5891 18.8257 24.5473 18.8173C24.3198 18.8173 24.3068 19.1147 24.3149 19.23C24.3019 19.2414 24.2922 19.7695 24.6042 19.9304" fill="white"/>
<path d="M31.7966 17.5028C32.2158 17.7205 33.0072 17.6182 32.9747 16.8528C32.9747 16.7959 32.9617 16.5668 32.9568 16.4969C32.8675 16.2792 32.6318 16.3247 32.5831 16.5668C32.5636 16.635 32.6075 16.7618 32.5457 16.7959C32.5148 16.8414 32.3832 16.8187 32.3832 16.6009C32.3751 16.5352 32.3517 16.4723 32.315 16.4173C32.2855 16.4058 32.2537 16.4019 32.2223 16.4059C32.1671 16.4059 32.1671 16.4173 32.133 16.4742C32.1141 16.5337 32.1032 16.5954 32.1005 16.6578C32.1005 16.7277 32.0696 16.7504 32.016 16.7618C31.9623 16.7732 31.9721 16.7732 31.9347 16.739C31.9167 16.7281 31.9016 16.7129 31.8908 16.6948C31.8801 16.6766 31.8739 16.6561 31.873 16.635C31.871 16.5692 31.8617 16.5038 31.8453 16.44C31.815 16.4176 31.78 16.402 31.743 16.3945C31.5138 16.3945 31.4943 16.6919 31.5106 16.7959C31.4943 16.8187 31.4846 17.3468 31.7982 17.4963" fill="white"/>
<path d="M35.5227 23.6013C35.2708 24.0186 35.1177 24.4881 35.0752 24.9736C35.0326 25.4592 35.1018 25.9481 35.2773 26.4028C35.4343 26.8839 35.7552 27.2945 36.1841 27.5631C36.2473 27.6319 36.326 27.6846 36.4137 27.717C36.5013 27.7493 36.5954 27.7603 36.6882 27.749C36.7809 27.7377 36.8697 27.7045 36.947 27.6521C37.0244 27.5997 37.0882 27.5297 37.1331 27.4477C37.5621 26.9423 37.5734 25.6683 37.7717 25.4148C37.9179 24.9436 38.2706 25.0248 38.4428 25.2312C38.5992 25.4755 38.81 25.6801 39.0587 25.8292C39.1403 25.9259 39.2403 26.0054 39.353 26.063C39.4656 26.1207 39.5887 26.1552 39.7148 26.1648C39.841 26.1743 39.9678 26.1586 40.0879 26.1186C40.2079 26.0785 40.3188 26.015 40.4139 25.9316C40.771 25.7053 41.0293 25.3524 41.1371 24.9436C41.2943 23.0109 41.3122 21.0695 41.1907 19.1342C41.1696 18.9961 40.7747 16.7455 40.7747 16.7211C40.7747 16.6967 40.7178 15.5738 40.6772 15.309C40.6674 15.1952 40.6447 15.1595 40.7471 15.1725C40.8543 15.2862 40.8641 15.2976 40.9323 15.3203C41.0396 15.3447 41.1371 15.1367 41.0737 14.9417C40.7487 14.2527 40.4026 13.5523 40.0678 12.8747C39.9914 12.7723 39.8842 12.6797 39.7526 12.8861C39.673 12.9684 39.6105 13.0656 39.5687 13.1721C39.5268 13.2787 39.5065 13.3924 39.5088 13.5068C39.5397 13.9943 39.6161 14.5062 39.6437 15.0002C39.7786 15.8371 39.9118 16.687 40.0467 17.5368C40.1718 19.3406 40.2092 20.9932 40.3327 22.797C40.3616 23.4489 40.2116 24.0963 39.8988 24.669C39.8988 24.669 39.6047 24.8753 39.4016 24.6576C39.1199 24.315 38.8728 23.9454 38.6638 23.5542C38.3616 23.2455 38.1601 23.3251 37.9456 23.5542C37.4153 24.3856 36.9932 25.2811 36.6894 26.2192C36.5822 26.4028 36.2913 26.5637 35.9696 26.2078C35.5446 25.4119 35.3879 24.5 35.5227 23.6078" fill="white"/>
<path d="M31.9866 13.0698C32.1922 13.2458 32.3507 13.4705 32.4474 13.7234C32.5442 13.9762 32.5763 14.2493 32.5407 14.5176C32.4643 15.0344 32.2677 15.608 32.1215 15.5284C31.9752 15.4488 32.2255 15.0116 32.0808 14.5404C31.9915 14.23 31.4812 13.6792 31.5348 13.5069C31.513 13.4445 31.5095 13.3771 31.5247 13.3128C31.5399 13.2484 31.5733 13.1898 31.6208 13.1438C31.6683 13.0978 31.7281 13.0664 31.7929 13.0533C31.8577 13.0401 31.9249 13.0459 31.9866 13.0698Z" fill="white"/>
<path d="M36.7382 24.1181C36.7728 23.3588 36.7462 22.598 36.6586 21.8431C36.6359 21.2467 36.0541 16.3181 35.9306 15.8598C35.7876 15.0002 36.501 15.7461 36.4181 15.2407C36.1744 14.6086 35.5617 13.6791 35.3716 13.1282C35.2497 12.8861 35.3001 12.6797 35.0466 13.0697C34.8242 13.7665 34.7452 14.5011 34.8142 15.2293C35.5429 18.6426 35.9304 22.1199 35.9712 25.6098C36.2621 25.6098 36.5985 24.8639 36.7447 24.1181" fill="white"/>
<path d="M41.4083 18.9783C41.7609 19.1847 41.9592 20.2523 41.9218 20.5627C41.8552 21.125 41.6732 21.7343 41.5415 21.6531C41.4099 21.5718 41.5692 20.8162 41.5009 20.5855C41.418 20.2523 40.9549 19.6446 41.002 19.4609C40.9078 19.0807 41.2068 18.9214 41.4083 18.9734" fill="white"/>
<path d="M17.625 22.165C17.95 22.3031 18.145 23.0961 18.1125 23.3252C18.0458 23.738 17.872 24.1751 17.7485 24.1377C17.625 24.1003 17.7777 23.517 17.7078 23.3447C17.6835 22.9206 17.2203 22.6947 17.2366 22.5176C17.1488 22.1845 17.4218 22.1276 17.6298 22.1731" fill="white"/>
<path d="M8.83034 12.8066C9.31784 12.9691 9.34384 13.7702 9.31784 14.0123C9.25122 14.4365 9.07734 14.8963 8.95059 14.8395C8.82384 14.7826 8.95059 14.2073 8.88234 14.027C8.81247 13.7621 8.39484 13.3152 8.45009 13.1771C8.35584 12.8895 8.63372 12.7513 8.83522 12.8098" fill="white"/>
<path d="M18.4162 16.5961C18.2254 16.7461 18.0927 16.9579 18.0408 17.1951C17.9889 17.4322 18.0211 17.68 18.1318 17.8961C18.1959 17.9917 18.2895 18.0638 18.3983 18.1014C18.5072 18.1389 18.6253 18.1399 18.7347 18.1041C19.1003 18.161 19.3165 17.3338 19.3165 17.3338C19.3165 17.3338 19.3278 17.1047 18.8988 17.5402C18.7136 17.5873 18.6908 17.5061 18.6437 17.3907C18.6004 17.1759 18.6196 16.9531 18.699 16.7488C18.7656 16.5408 18.6258 16.4498 18.4162 16.5993" fill="white"/>
<path d="M21.2063 12.4962C21.0437 12.6283 20.9096 12.792 20.8121 12.9775C20.7146 13.163 20.6558 13.3663 20.6392 13.5752C20.6245 13.8514 20.5774 13.8514 20.7415 14.035C20.8634 14.23 20.9837 14.2073 21.2209 14.0578C21.2819 14.015 21.3337 13.9605 21.3734 13.8974C21.413 13.8344 21.4396 13.764 21.4517 13.6905C21.5102 13.3655 21.1527 13.84 21.1039 13.4842C21.0275 13.151 21.255 13.0243 21.4744 12.6912C21.4744 12.4734 21.4744 12.3239 21.2063 12.4962Z" fill="white"/>
<path d="M23.4602 12.9446C23.3708 13.3564 23.3164 13.7749 23.2977 14.1959C23.231 14.5062 23.5918 14.6427 23.7494 14.2414C23.9118 13.8037 23.9981 13.3415 24.0045 12.8747C23.933 12.4035 23.647 12.4279 23.4602 12.9446Z" fill="white"/>
<path d="M37.6466 21.0632C37.6986 21.0161 39.6453 19.4545 39.6453 19.4545C39.8452 19.3749 39.8078 20.267 39.712 20.2475C39.1216 20.9034 38.423 21.453 37.6466 21.8725C37.5523 21.9424 37.4548 21.2647 37.6466 21.0697" fill="white"/>
<path d="M39.4259 21.0517C39.7736 21.2467 39.9134 22.3712 39.8711 22.6767C39.8841 23.2747 39.5461 23.7557 39.4064 23.6875C39.2666 23.6192 39.421 22.9416 39.3544 22.6995C39.2037 22.3337 39.0947 21.9521 39.0294 21.562C38.9319 21.1817 39.2146 20.9753 39.4242 21.0452" fill="white"/>
<path d="M27.8249 25.9203C27.9851 25.7168 28.1714 25.5354 28.3791 25.3808C28.4416 25.3493 28.513 25.3401 28.5815 25.3546C28.65 25.369 28.7116 25.4064 28.7561 25.4604C28.7902 25.6684 28.6358 25.8748 28.6846 26.1608C28.7236 26.2762 28.7561 26.4143 28.9446 26.3574C29.0676 26.2487 29.2113 26.1661 29.3672 26.1147C29.5231 26.0633 29.6878 26.0442 29.8513 26.0584C30.0951 26.0584 30.0967 26.5167 29.9521 26.5167C29.5232 26.6347 29.1081 26.7981 28.7138 27.0042C28.6585 27.0439 28.5898 27.0602 28.5226 27.0496C28.4553 27.0389 28.395 27.0022 28.3547 26.9473C28.317 26.8881 28.2942 26.8207 28.2882 26.7508C28.2823 26.6809 28.2934 26.6106 28.3206 26.5459C28.3368 26.3152 28.2539 26.19 28.0801 26.2014C27.9501 26.2924 27.8379 26.3379 27.7729 26.1787C27.7502 26.0519 27.7404 25.9837 27.8249 25.9138" fill="white"/>
<path d="M41.4797 26.5297C41.535 26.5864 41.566 26.6625 41.566 26.7417C41.566 26.821 41.535 26.8971 41.4797 26.9538C41.34 27.1033 41.2474 27.1716 41.1076 27.3211C41.0459 27.4478 41.0053 27.6314 41.2003 27.6883C41.5626 27.8037 42.4076 27.2008 42.4076 27.1716C42.4529 27.1305 42.4846 27.0767 42.4988 27.0173C42.513 26.9578 42.509 26.8955 42.4873 26.8384C42.4076 26.7361 42.2305 26.7929 42.1119 26.7929C42.0501 26.7929 41.8633 26.7474 41.9494 26.5752C42.0118 26.4727 42.063 26.3637 42.1021 26.2502C42.1558 26.1007 42.1135 26.0097 41.9006 25.9252C41.7285 25.8967 41.5528 25.8967 41.3806 25.9252C41.2555 25.9593 41.2181 26.0292 41.1889 26.1901C41.197 26.4419 41.3368 26.4306 41.483 26.5346" fill="white"/>
</g>
<defs>
<clipPath id="clip0_124_4428">
<rect width="52" height="52" fill="white"/>
</clipPath>
</defs>
</svg>
