<svg width="52" height="52" viewBox="0 0 52 52" fill="none" xmlns="http://www.w3.org/2000/svg">
<g clip-path="url(#clip0_124_4558)">
<path d="M26 52C40.3594 52 52 40.3594 52 26C52 11.6406 40.3594 0 26 0C11.6406 0 0 11.6406 0 26C0 40.3594 11.6406 52 26 52Z" fill="#F0F0F0"/>
<path d="M26 0C11.6407 0 0 11.6407 0 26C0 29.1803 0.572102 32.2269 1.61718 35.0434H50.3829C51.428 32.2269 52 29.1803 52 26C52 11.6407 40.3593 0 26 0Z" fill="#0052B4"/>
<path d="M26 0C14.8209 0 5.2908 7.05575 1.61719 16.9566H50.3829C46.7092 7.05575 37.1791 0 26 0Z" fill="#D80027"/>
<path d="M6.72314 14.6958V27.6659C6.72314 35.0438 16.3615 37.3045 16.3615 37.3045C16.3615 37.3045 25.9998 35.0438 25.9998 27.6659V14.6958H6.72314Z" fill="#D80027"/>
<path d="M10.7095 16.9565H22.0139V12.4347L19.753 13.5651L16.3617 10.1738L12.9704 13.5651L10.7095 12.4347V16.9565Z" fill="#FFDA44"/>
<path d="M23.7391 29.4716L16.3913 22.1238L9.04346 29.4716L11.4414 31.8696L16.3913 26.9198L21.3412 31.8696L23.7391 29.4716Z" fill="#FFDA44"/>
<path d="M23.7391 22.6088H20.3108C20.5036 22.2761 20.6157 21.8908 20.6157 21.4787C20.6157 20.2298 19.6034 19.2178 18.3548 19.2178C17.492 19.2178 16.7428 19.701 16.3616 20.4114C15.9805 19.7011 15.2313 19.2178 14.3685 19.2178C13.1199 19.2178 12.1076 20.2298 12.1076 21.4787C12.1076 21.8908 12.2197 22.2762 12.4125 22.6088H9.04346C9.04346 23.8576 10.1311 24.8697 11.3796 24.8697H11.3043C11.3043 26.1184 12.3165 27.1306 13.5652 27.1306C13.5652 28.2362 14.3592 29.1548 15.4079 29.3514L13.6265 33.3735C14.4802 33.7205 15.4132 33.9133 16.3914 33.9133C17.3697 33.9133 18.3026 33.7205 19.1563 33.3735L17.3749 29.3514C18.4236 29.155 19.2176 28.2363 19.2176 27.1306C20.4663 27.1306 21.4785 26.1184 21.4785 24.8697H21.4032C22.6516 24.8697 23.7391 23.8575 23.7391 22.6088Z" fill="#F0F0F0"/>
</g>
<defs>
<clipPath id="clip0_124_4558">
<rect width="52" height="52" fill="white"/>
</clipPath>
</defs>
</svg>
