<svg width="157" height="44" viewBox="0 0 157 44" fill="none" xmlns="http://www.w3.org/2000/svg">
<path d="M13.285 8.96204C16.9945 9.07972 20.136 9.3509 23.0627 10.7477C23.4158 10.9166 23.7586 11.111 24.0937 11.3131C25.2091 11.9834 25.5596 12.8532 24.9993 14.0249C24.4749 15.1224 23.8225 16.1636 23.1523 17.1818C22.7122 17.8495 21.955 17.8725 20.9521 17.5528C19.0053 16.9336 17.061 16.2762 15.0706 15.8413C14.0678 15.6238 10.1818 15.0891 10.1357 16.7955C10.1178 17.4376 10.5732 17.7165 11.1053 17.8597C11.6732 18.0107 12.2514 18.1258 12.8296 18.2256C15.1269 18.6247 17.4447 18.9265 19.7165 19.4331C21.5533 19.8398 23.3058 20.5562 24.677 21.9351C26.9718 24.2452 27.0767 28.3487 24.9072 30.9172C23.1855 32.9587 20.8907 34.0562 18.3529 34.6037C12.8577 35.7882 7.51348 35.2765 2.38669 32.8999C1.87503 32.662 1.3864 32.3652 0.910557 32.0608C0.145631 31.5721 -0.19462 30.9428 0.112374 30.1088C0.629147 28.7043 1.24569 27.3254 1.92619 25.9925C2.30482 25.2506 3.23348 25.1611 4.20818 25.6011C5.67408 26.2663 7.10927 27.0133 8.61099 27.5812C10.8699 28.4331 13.221 28.7145 15.6232 28.3052C16.0223 28.2361 16.4649 28.1236 16.7719 27.8856C17.1352 27.6042 17.3884 27.1361 17.1966 26.6781C16.8052 25.7341 14.5974 25.7239 13.7608 25.5755C11.7014 25.2122 9.61895 24.9487 7.58256 24.4934C5.69454 24.0712 3.9191 23.3166 2.57856 21.8276C0.324711 19.3333 0.434716 14.9766 2.78322 12.559C4.64821 10.6403 7.01206 9.75255 9.57546 9.3381C10.9774 9.11042 12.3998 9.04646 13.285 8.96204Z" fill="white"/>
<path d="M81.3009 16.6794H80.5999C77.6553 16.6794 74.7082 16.6846 71.761 16.6769C70.1212 16.6743 69.5507 16.1141 69.52 14.487C69.5046 13.6351 69.4995 12.7832 69.5225 11.9338C69.566 10.3784 70.1365 9.81557 71.6792 9.76952C71.8096 9.76697 71.9427 9.76697 72.0731 9.76697H90.7307C90.9712 9.76697 91.2116 9.77208 91.4496 9.79511C92.6315 9.90512 93.161 10.4475 93.2122 11.6447C93.2429 12.3866 93.2173 13.1285 93.2327 13.8704C93.2557 15.0012 92.8464 15.935 92.0738 16.7588C88.9092 20.1331 85.7625 23.5254 82.6107 26.91C82.4649 27.0661 82.3242 27.2272 82.0735 27.5061C82.4265 27.5214 82.6491 27.5419 82.8691 27.5419C85.7062 27.5419 88.5433 27.5419 91.3779 27.5419C91.6619 27.5419 91.9484 27.5419 92.2273 27.5803C93.202 27.7235 93.7443 28.2224 93.8006 29.2048C93.8671 30.379 93.8722 31.5635 93.8057 32.7378C93.7392 33.8916 93.0613 34.4544 91.841 34.4646C89.7022 34.4825 87.5635 34.4723 85.4248 34.4723C80.9964 34.4723 76.5655 34.4723 72.1345 34.4672C71.7457 34.4672 71.3491 34.4339 70.9705 34.3546C70.2491 34.2011 69.7963 33.7048 69.7553 32.9936C69.6939 31.9089 69.6095 30.7909 69.7937 29.7344C69.9165 29.0385 70.3847 28.3196 70.8861 27.7901C74.1991 24.2852 77.5606 20.829 80.9069 17.3548C81.068 17.186 81.2241 17.0146 81.3853 16.8432C81.3546 16.7869 81.3264 16.7332 81.3009 16.6769" fill="white"/>
<path d="M54.2119 16.6794H52.0015C49.5558 16.6794 47.1101 16.6846 44.667 16.6769C43.022 16.6718 42.4668 16.1192 42.4566 14.4742C42.4489 13.5149 42.4412 12.5529 42.4745 11.5936C42.5154 10.4756 43.0552 9.9179 44.1553 9.80534C44.4367 9.7772 44.7207 9.76952 45.0047 9.76952C51.2034 9.76697 57.4046 9.76697 63.6034 9.76697H63.7338C65.5988 9.7772 66.0491 10.3349 66.1898 12.1897C66.3612 14.4665 65.65 16.2292 64.0178 17.8614C61.0834 20.788 58.3307 23.8989 55.5038 26.933C55.3631 27.084 55.2327 27.2477 54.9794 27.5445H55.8339C58.758 27.5445 61.6846 27.5368 64.6113 27.5445C65.8239 27.5496 66.5607 27.9461 66.6375 28.8773C66.7552 30.2818 66.7219 31.7068 66.6426 33.1164C66.6017 33.8302 66.0644 34.2702 65.343 34.3955C65.0437 34.4467 64.7367 34.4697 64.4348 34.4697C57.947 34.4723 51.4643 34.4723 44.9791 34.4723C44.7386 34.4723 44.4981 34.4774 44.2602 34.4467C43.2215 34.3137 42.6741 33.715 42.6127 32.6661C42.6127 32.6227 42.6127 32.5792 42.6075 32.5357C42.5223 30.269 43.2625 28.3179 44.8281 26.6823C47.8392 23.551 50.858 20.4299 53.8742 17.3011C54.02 17.1502 54.1607 16.9941 54.304 16.8406C54.2733 16.7843 54.2426 16.7306 54.2119 16.6769" fill="white"/>
<path d="M97.6377 15.2854V2.38915C97.6377 0.583001 98.2184 0.00483231 100.025 0.00227403C101.401 0.00227403 102.775 -0.00284254 104.149 0.00227403C105.847 0.00994887 106.482 0.631611 106.523 2.3124C106.528 2.48637 106.523 2.66033 106.523 2.83685V24.2445C106.523 26.3611 107.571 27.4211 109.667 27.4245C109.948 27.4245 110.235 27.4296 110.514 27.4782C111.483 27.6419 112.002 28.1741 112.038 29.1437C112.079 30.3409 112.087 31.5433 112.041 32.7406C112 33.7793 111.381 34.4342 110.345 34.4495C108.012 34.4828 105.668 34.5621 103.345 34.3958C99.8455 34.1425 97.891 32.0166 97.6633 28.5092C97.6428 28.1817 97.6403 27.8543 97.6403 27.5294C97.6403 23.4464 97.6403 19.3659 97.6403 15.2854" fill="white"/>
<path d="M142.461 2.66336C142.461 2.37939 142.456 2.09542 142.441 1.81401C142.38 0.74209 141.799 0.0667065 140.745 0.0385654C138.893 -0.0100419 137.035 0.000188394 135.183 0.0436792C134.334 0.0641454 133.786 0.634645 133.661 1.48144C133.61 1.82425 133.602 2.17729 133.602 2.52522C133.597 4.96837 133.6 7.41409 133.6 9.85725V10.6529C133.323 10.5761 133.157 10.5403 132.996 10.484C132.873 10.4405 132.76 10.374 132.64 10.3203C130.535 9.38141 128.324 8.98232 126.03 9.09744C123.589 9.22024 121.348 9.96726 119.288 11.3001C117.047 12.7507 115.41 14.7001 114.366 17.1484C113.243 19.7808 113.128 22.5182 113.67 25.2837C114.315 28.5813 115.94 31.2752 118.787 33.1606C121.105 34.6956 123.691 35.2328 126.421 35.1945C129.061 35.1561 131.489 34.4654 133.541 32.7181C133.914 32.4008 134.26 32.0478 134.654 31.6768C134.781 32.0478 134.884 32.3548 134.991 32.6592C135.447 33.9767 136.109 34.4551 137.521 34.473C138.284 34.4833 139.049 34.473 139.814 34.473C141.929 34.473 142.467 33.9332 142.467 31.7971C142.461 22.0858 142.461 12.3746 142.461 2.6608M132.796 25.7979C131.722 27.5759 130.074 28.1311 128.132 28.108C124.784 28.0671 123.269 25.6802 122.942 22.8891C122.781 21.5205 122.855 20.1467 123.405 18.8471C124.507 16.235 126.766 15.378 129.529 15.8257C131.939 16.2146 133.438 18.1205 133.725 20.886C133.758 21.2109 133.771 21.5384 133.797 21.9042C133.779 23.2575 133.536 24.5776 132.796 25.7979Z" fill="white"/>
<path d="M147.938 21.9092C147.127 23.6079 145.968 25.1736 145.554 27.0078C145.16 28.75 145.5 30.6483 146.478 32.1449C147.227 33.2935 148.381 34.2222 149.724 34.5062C151.487 34.8771 153.377 34.0661 154.534 32.6847C154.644 32.5516 154.749 32.4135 154.848 32.2728C156.828 29.4331 156.14 25.6954 154.723 22.779C154.462 22.2418 154.122 21.748 153.569 21.3259C153.569 22.8865 153.641 24.4496 153.459 26.005C153.4 26.509 153.198 27.1306 152.692 27.1792C152.351 27.2125 152.044 26.9285 151.929 26.6062C151.817 26.2839 151.85 25.9282 151.888 25.588C152.119 23.5209 152.41 21.4282 152.113 19.3714C151.817 17.312 150.837 15.2449 149.061 14.1602C149.532 16.7722 149.079 19.5146 147.938 21.9092Z" fill="#FDC00F"/>
<mask id="mask0_2_2775" style="mask-type:luminance" maskUnits="userSpaceOnUse" x="145" y="14" width="12" height="21">
<path d="M147.941 21.9136C147.13 23.6123 145.971 25.178 145.556 27.0122C145.162 28.7544 145.503 30.6527 146.48 32.1493C147.229 33.2979 148.383 34.2266 149.726 34.5106C151.489 34.8815 153.379 34.0705 154.536 32.6891C154.646 32.556 154.751 32.4179 154.85 32.2772C156.831 29.4375 156.142 25.6998 154.725 22.7834C154.464 22.2462 154.124 21.7524 153.571 21.3303C153.571 22.8909 153.643 24.454 153.461 26.0094C153.402 26.5134 153.2 27.135 152.694 27.1836C152.354 27.2169 152.047 26.9329 151.931 26.6106C151.819 26.2882 151.852 25.9326 151.891 25.5924C152.121 23.5253 152.412 21.4326 152.116 19.3758C151.819 17.3164 150.839 15.2493 149.064 14.1646C149.534 16.7766 149.082 19.519 147.941 21.9136Z" fill="white"/>
</mask>
<g mask="url(#mask0_2_2775)">
<path d="M156.831 14.1646H145.162V34.8815H156.831V14.1646Z" fill="#FDC00F"/>
</g>
<path d="M36.3951 24.5654C38.9918 24.5654 40.7186 25.9981 40.7186 30.1757C40.7186 31.9179 40.3502 33.8648 39.7337 35.5379C39.552 32.3605 38.0196 30.9714 36.019 30.6541L36.3977 24.5629L36.3951 24.5654Z" fill="url(#paint0_linear_2_2775)"/>
<path d="M32.0774 24.5636C29.4807 24.5636 27.7539 25.9962 27.7539 30.1739C27.7539 31.9161 28.1223 33.863 28.7363 35.5386C28.9205 32.3612 30.4529 30.9721 32.4535 30.6549L32.0774 24.5636Z" fill="url(#paint1_linear_2_2775)"/>
<path d="M32.4169 38.0088C32.4066 34.9696 33.2125 32.5009 34.2128 32.5009C35.2156 32.5009 36.0394 34.9645 36.0471 38.0037C36.0599 41.0455 34.2537 43.5117 34.2537 43.5117C34.2537 43.5117 32.4271 41.0481 32.4143 38.0088H32.4169Z" fill="url(#paint2_linear_2_2775)"/>
<path d="M34.2354 32.9833C35.031 32.9833 35.755 33.0652 36.3102 33.2008C37.7735 29.5322 38.7738 22.4407 38.7738 16.1063C38.7738 7.07562 34.2328 0.731079 34.2328 0.731079C34.2328 0.731079 29.6945 7.07562 29.6919 16.1063C29.6919 22.4407 30.6947 29.5322 32.1555 33.2008C32.7107 33.0678 33.4347 32.9859 34.2328 32.9859L34.2354 32.9833Z" fill="url(#paint3_linear_2_2775)"/>
<path d="M36.6148 14.3851C36.6148 15.6975 35.5506 16.7643 34.2356 16.7643C32.9232 16.7643 31.8564 15.6975 31.8564 14.3851C31.8564 13.0727 32.9232 12.0059 34.2356 12.0059C35.548 12.0059 36.6148 13.0701 36.6148 14.3851Z" fill="white"/>
<mask id="mask1_2_2775" style="mask-type:luminance" maskUnits="userSpaceOnUse" x="145" y="14" width="12" height="21">
<path d="M147.94 21.9086C147.129 23.6073 145.97 25.1729 145.556 27.0072C145.162 28.7494 145.502 30.6477 146.48 32.1443C147.229 33.2929 148.383 34.2216 149.726 34.5056C151.489 34.8765 153.379 34.0655 154.536 32.6841C154.646 32.551 154.75 32.4129 154.85 32.2722C156.83 29.4325 156.142 25.6948 154.725 22.7784C154.464 22.2412 154.124 21.7474 153.571 21.3253C153.571 22.8858 153.643 24.449 153.461 26.0044C153.402 26.5084 153.2 27.13 152.694 27.1786C152.353 27.2119 152.046 26.9279 151.931 26.6056C151.819 26.2832 151.852 25.9276 151.89 25.5874C152.121 23.5203 152.412 21.4276 152.115 19.3708C151.819 17.3113 150.839 15.2443 149.063 14.1595C149.534 16.7716 149.081 19.514 147.94 21.9086Z" fill="white"/>
</mask>
<g mask="url(#mask1_2_2775)">
<path d="M156.833 14.1595H145.165V34.8765H156.833V14.1595Z" fill="url(#paint4_radial_2_2775)"/>
</g>
<defs>
<linearGradient id="paint0_linear_2_2775" x1="54.408" y1="46.5794" x2="24.8035" y2="14.7058" gradientUnits="userSpaceOnUse">
<stop stop-color="#0021F5"/>
<stop offset="0.12" stop-color="#2A31F5"/>
<stop offset="0.25" stop-color="#5240F5"/>
<stop offset="0.39" stop-color="#734DF5"/>
<stop offset="0.53" stop-color="#8C57F5"/>
<stop offset="0.68" stop-color="#9F5EF5"/>
<stop offset="0.83" stop-color="#A962F5"/>
<stop offset="1" stop-color="#AD63F5"/>
</linearGradient>
<linearGradient id="paint1_linear_2_2775" x1="44.1295" y1="25.2441" x2="16.3389" y2="34.6611" gradientUnits="userSpaceOnUse">
<stop stop-color="#0021F5"/>
<stop offset="0.12" stop-color="#2A31F5"/>
<stop offset="0.25" stop-color="#5240F5"/>
<stop offset="0.39" stop-color="#734DF5"/>
<stop offset="0.53" stop-color="#8C57F5"/>
<stop offset="0.68" stop-color="#9F5EF5"/>
<stop offset="0.83" stop-color="#A962F5"/>
<stop offset="1" stop-color="#AD63F5"/>
</linearGradient>
<linearGradient id="paint2_linear_2_2775" x1="31.8489" y1="22.6285" x2="36.0445" y2="49.1706" gradientUnits="userSpaceOnUse">
<stop stop-color="#0021F5"/>
<stop offset="0.12" stop-color="#2A31F5"/>
<stop offset="0.25" stop-color="#5240F5"/>
<stop offset="0.39" stop-color="#734DF5"/>
<stop offset="0.53" stop-color="#8C57F5"/>
<stop offset="0.68" stop-color="#9F5EF5"/>
<stop offset="0.83" stop-color="#A962F5"/>
<stop offset="1" stop-color="#AD63F5"/>
</linearGradient>
<linearGradient id="paint3_linear_2_2775" x1="34.3812" y1="56.6065" x2="34.1561" y2="-5.66718" gradientUnits="userSpaceOnUse">
<stop stop-color="#0021F5"/>
<stop offset="0.12" stop-color="#2A31F5"/>
<stop offset="0.25" stop-color="#5240F5"/>
<stop offset="0.39" stop-color="#734DF5"/>
<stop offset="0.53" stop-color="#8C57F5"/>
<stop offset="0.68" stop-color="#9F5EF5"/>
<stop offset="0.83" stop-color="#A962F5"/>
<stop offset="1" stop-color="#AD63F5"/>
</linearGradient>
<radialGradient id="paint4_radial_2_2775" cx="0" cy="0" r="1" gradientUnits="userSpaceOnUse" gradientTransform="translate(150.247 23.1006) scale(10.2178 19.5427)">
<stop stop-color="#FFFF54"/>
<stop offset="0.08" stop-color="#FFE34E"/>
<stop offset="0.26" stop-color="#FFAD43"/>
<stop offset="0.43" stop-color="#FF7F3A"/>
<stop offset="0.59" stop-color="#FF5C32"/>
<stop offset="0.75" stop-color="#FF432D"/>
<stop offset="0.89" stop-color="#FF332A"/>
<stop offset="1" stop-color="#FF2E29"/>
</radialGradient>
</defs>
</svg>
