<svg width="52" height="52" viewBox="0 0 52 52" fill="none" xmlns="http://www.w3.org/2000/svg">
<g clip-path="url(#clip0_124_4346)">
<path d="M26 52C40.3594 52 52 40.3594 52 26C52 11.6406 40.3594 0 26 0C11.6406 0 0 11.6406 0 26C0 40.3594 11.6406 52 26 52Z" fill="#F0F0F0"/>
<path d="M5.37476 10.1707C3.33244 12.8278 1.79245 15.8905 0.895752 19.2175H14.4216L5.37476 10.1707Z" fill="#0052B4"/>
<path d="M51.1043 19.2177C50.2076 15.8907 48.6675 12.8281 46.6253 10.1709L37.5786 19.2177H51.1043Z" fill="#0052B4"/>
<path d="M0.895752 32.7827C1.79255 36.1097 3.33254 39.1723 5.37476 41.8294L14.4213 32.7827H0.895752Z" fill="#0052B4"/>
<path d="M41.8295 5.37486C39.1723 3.33254 36.1098 1.79255 32.7827 0.895752V14.4215L41.8295 5.37486Z" fill="#0052B4"/>
<path d="M10.1707 46.6252C12.8278 48.6675 15.8905 50.2075 19.2174 51.1043V37.5786L10.1707 46.6252Z" fill="#0052B4"/>
<path d="M19.2173 0.895752C15.8903 1.79255 12.8277 3.33254 10.1707 5.37476L19.2173 14.4214V0.895752Z" fill="#0052B4"/>
<path d="M32.7827 51.1043C36.1097 50.2075 39.1723 48.6675 41.8294 46.6253L32.7827 37.5786V51.1043Z" fill="#0052B4"/>
<path d="M37.5786 32.7827L46.6253 41.8295C48.6675 39.1724 50.2076 36.1097 51.1043 32.7827H37.5786Z" fill="#0052B4"/>
<path d="M51.7799 22.6087H29.3915H29.3914V0.220086C28.2812 0.0755625 27.1494 0 26 0C24.8504 0 23.7188 0.0755625 22.6087 0.220086V22.6085V22.6086H0.220086C0.0755625 23.7188 0 24.8506 0 26C0 27.1496 0.0755625 28.2812 0.220086 29.3913H22.6085H22.6086V51.7799C23.7188 51.9244 24.8504 52 26 52C27.1494 52 28.2812 51.9245 29.3913 51.7799V29.3915V29.3914H51.7799C51.9244 28.2812 52 27.1496 52 26C52 24.8506 51.9244 23.7188 51.7799 22.6087Z" fill="#D80027"/>
<path d="M32.7827 32.7828L44.3848 44.3849C44.9184 43.8515 45.4274 43.2938 45.9131 42.7157L35.9801 32.7827H32.7827V32.7828Z" fill="#D80027"/>
<path d="M19.2174 32.7827H19.2172L7.61523 44.3847C8.14864 44.9183 8.70632 45.4273 9.28441 45.913L19.2174 35.9798V32.7827Z" fill="#D80027"/>
<path d="M19.2173 19.2176V19.2174L7.61523 7.61523C7.08162 8.14864 6.57259 8.70632 6.08691 9.28441L16.02 19.2175L19.2173 19.2176Z" fill="#D80027"/>
<path d="M32.7827 19.2177L44.3849 7.61537C43.8515 7.08176 43.2938 6.57273 42.7157 6.08716L32.7827 16.0203V19.2177Z" fill="#D80027"/>
</g>
<defs>
<clipPath id="clip0_124_4346">
<rect width="52" height="52" fill="white"/>
</clipPath>
</defs>
</svg>
