<svg width="20" height="20" viewBox="0 0 20 20" fill="none" xmlns="http://www.w3.org/2000/svg">
<g clip-path="url(#clip0_124_5371)">
<path d="M6.27051 16.5833C6.76668 18.1707 8.24848 19.3228 9.99941 19.3228C11.7504 19.3228 13.2321 18.1707 13.7283 16.5833H6.27051Z" fill="#808285"/>
<path d="M12.6031 16.5833C11.9283 17.7533 10.6655 18.5415 9.21777 18.5415C8.33832 18.5415 7.52691 18.2508 6.87402 17.7603C7.58668 18.709 8.72113 19.3228 9.99902 19.3228C11.75 19.3228 13.2318 18.1707 13.7279 16.5833H12.6031Z" fill="#58595B"/>
<path d="M13.1915 16.5833C12.5898 17.9654 11.2125 18.9322 9.60895 18.9322C8.62973 18.9322 7.73535 18.571 7.0498 17.9757C7.76598 18.8004 8.82145 19.3228 9.99957 19.3228C11.7505 19.3228 13.2323 18.1707 13.7285 16.5833H13.1915Z" fill="#414042"/>
<path d="M11.3042 17.2083H11.2734C11.1871 17.2083 11.1171 17.1383 11.1171 17.052C11.1171 16.9658 11.1871 16.8958 11.2734 16.8958H11.3042C11.3905 16.8958 11.4605 16.9658 11.4605 17.052C11.4605 17.1383 11.3905 17.2083 11.3042 17.2083ZM10.6484 17.2083H7.28906C7.20281 17.2083 7.13281 17.1383 7.13281 17.052C7.13281 16.9658 7.20281 16.8958 7.28906 16.8958H10.6484C10.7347 16.8958 10.8047 16.9658 10.8047 17.052C10.8047 17.1383 10.7347 17.2083 10.6484 17.2083Z" fill="#939598"/>
<path d="M9.16602 2.41888V2.29153C9.16602 1.83208 9.53984 1.45825 9.99937 1.45825C10.4589 1.45825 10.8327 1.83208 10.8327 2.29153V2.41888C11.1568 2.47302 11.4703 2.55786 11.7702 2.67099V2.29153C11.7702 1.31513 10.9759 0.520752 9.99937 0.520752C9.02289 0.520752 8.22852 1.31513 8.22852 2.29153V2.67099C8.52844 2.55794 8.84195 2.4731 9.16602 2.41888Z" fill="#808285"/>
<path d="M11.3802 2.29153V2.54247C11.5127 2.58028 11.6431 2.62278 11.7709 2.67099V2.29153C11.7709 1.31513 10.9765 0.520752 10 0.520752C9.93398 0.520752 9.86883 0.524658 9.80469 0.531768C10.6895 0.629346 11.3802 1.38114 11.3802 2.29153Z" fill="#58595B"/>
<path d="M15.0208 11.0183V7.36974C15.0208 4.59677 12.7729 2.34888 9.99997 2.34888C7.227 2.34888 4.97911 4.59685 4.97911 7.36974V11.0183C4.97911 11.97 4.62247 12.8873 3.97958 13.5892L2.38551 15.3293C1.94575 15.8095 2.2863 16.5833 2.93739 16.5833H17.0625C17.7136 16.5833 18.0543 15.8094 17.6144 15.3293L16.0204 13.5892C15.3775 12.8873 15.0208 11.97 15.0208 11.0183Z" fill="#D10028"/>
<path d="M17.614 15.3294L16.0199 13.5892C15.377 12.8874 15.0204 11.9701 15.0204 11.0183V7.36977C15.0204 5.09367 13.5054 3.17242 11.4291 2.55664C12.6601 3.47164 13.4579 4.93688 13.4579 6.58852V10.237C13.4579 11.1888 13.8145 12.1061 14.4574 12.808L16.0515 14.5481C16.4912 15.0283 16.1507 15.8021 15.4996 15.8021H2.18804C2.17296 16.1977 2.47741 16.5834 2.93694 16.5834H17.0621C17.7132 16.5834 18.0538 15.8095 17.614 15.3294Z" fill="#B7022D"/>
<path d="M16.4433 11.2762C16.3894 11.2762 16.3346 11.2649 16.2823 11.2413C16.0858 11.1523 15.9987 10.9208 16.0877 10.7243C16.7672 9.22445 16.7672 7.28609 16.0877 5.78625C15.9986 5.58968 16.0858 5.3582 16.2823 5.26922C16.4789 5.18031 16.7102 5.26742 16.7993 5.46382C17.5676 7.15953 17.5676 9.35101 16.7993 11.0467C16.734 11.1909 16.5919 11.2762 16.4433 11.2762Z" fill="#D10028"/>
<path d="M17.9277 12.0574C17.8737 12.0574 17.819 12.0461 17.7666 12.0225C17.5702 11.9334 17.483 11.702 17.572 11.5055C18.4666 9.53102 18.4666 6.97938 17.572 5.00493C17.483 4.80837 17.5702 4.57688 17.7666 4.4879C17.9634 4.39915 18.1947 4.4861 18.2837 4.68251C19.267 6.85282 19.267 9.65759 18.2837 11.8279C18.2184 11.972 18.0762 12.0574 17.9277 12.0574Z" fill="#D10028"/>
<path d="M3.55625 11.276C3.40758 11.276 3.26555 11.1907 3.20023 11.0465C2.43195 9.35075 2.43195 7.15934 3.20023 5.46356C3.28922 5.26707 3.52086 5.18012 3.71727 5.26895C3.91375 5.35801 4.00086 5.5895 3.91188 5.78598C3.23234 7.2859 3.23234 9.22418 3.91188 10.724C4.00094 10.9206 3.91375 11.1521 3.71727 11.2411C3.66492 11.2647 3.61016 11.276 3.55625 11.276Z" fill="#D10028"/>
<path d="M2.07205 12.0573C1.92338 12.0573 1.78135 11.972 1.71604 11.8277C0.732676 9.65742 0.732676 6.85266 1.71604 4.68234C1.8051 4.48586 2.03658 4.39883 2.23307 4.48773C2.42955 4.5768 2.51666 4.80828 2.42768 5.00476C1.53307 6.97922 1.53307 9.53086 2.42768 11.5053C2.51674 11.7019 2.42955 11.9334 2.23307 12.0223C2.18072 12.046 2.12596 12.0573 2.07205 12.0573Z" fill="#D10028"/>
<path d="M10 5.396C9.42785 5.396 8.97824 5.86287 9.02707 6.40639L9.4227 10.8062C9.4484 11.0919 9.69918 11.3115 10 11.3115C10.3009 11.3115 10.5517 11.092 10.5773 10.8062L10.9729 6.40639C11.0218 5.86287 10.5722 5.396 10 5.396Z" fill="#F1F2F2"/>
<path d="M9.99965 11.9409C9.47184 11.9409 9.04395 12.3488 9.04395 12.852C9.04395 13.3552 9.47184 13.7631 9.99965 13.7631C10.5275 13.7631 10.9554 13.3552 10.9554 12.852C10.9554 12.3488 10.5275 11.9409 9.99965 11.9409Z" fill="#F1F2F2"/>
</g>
<defs>
<clipPath id="clip0_124_5371">
<rect width="20" height="20" fill="white"/>
</clipPath>
</defs>
</svg>
