<svg width="11" height="9" viewBox="0 0 11 9" fill="none" xmlns="http://www.w3.org/2000/svg">
<path d="M0.973333 3.90327H8.14501L5.94995 1.26635C5.84703 1.14303 5.79826 0.984212 5.81245 0.824507C5.82754 0.663914 5.90469 0.516625 6.02891 0.41459C6.15223 0.311669 6.31109 0.261984 6.4708 0.277067C6.63139 0.291263 6.77863 0.369345 6.88156 0.492673L9.90447 4.12065C9.92488 4.14993 9.94352 4.1801 9.95949 4.21115C9.95949 4.24132 9.95949 4.25995 10.0012 4.29012C10.0287 4.35932 10.0429 4.43297 10.0438 4.5075C10.0429 4.58203 10.0287 4.65567 10.0012 4.72487C10.0012 4.75593 10.0012 4.77367 9.95949 4.80384C9.94352 4.83578 9.92488 4.86595 9.90447 4.89434L6.88156 8.52232C6.82477 8.59064 6.75292 8.64565 6.67306 8.68291C6.59232 8.72106 6.5045 8.74058 6.41578 8.7397C6.27471 8.74058 6.13715 8.6909 6.02891 8.60129C5.96768 8.54983 5.91714 8.48772 5.87987 8.41762C5.84261 8.34753 5.81955 8.27034 5.81245 8.19137C5.80536 8.11152 5.8133 8.03167 5.83726 7.95625C5.86032 7.87995 5.89938 7.80986 5.94995 7.74864L8.14501 5.11261H0.973333C0.81274 5.11261 0.65925 5.04872 0.545682 4.93515C0.432113 4.82158 0.369141 4.66809 0.369141 4.5075C0.369141 4.34691 0.432113 4.19341 0.545682 4.07984C0.65925 3.96627 0.81274 3.90327 0.973333 3.90327Z" fill="#E1E0FF"/>
</svg>
