<svg width="52" height="52" viewBox="0 0 52 52" fill="none" xmlns="http://www.w3.org/2000/svg">
<g clip-path="url(#clip0_124_4376)">
<path d="M26 52C40.3594 52 52 40.3594 52 26C52 11.6406 40.3594 0 26 0C11.6406 0 0 11.6406 0 26C0 40.3594 11.6406 52 26 52Z" fill="#D80027"/>
<path d="M14.2289 15.8232L16.4734 22.7295H23.7352L17.8648 27.0053L20.1094 33.9115L14.2289 29.6459L8.34844 33.9115L10.6031 27.0053L4.72266 22.7295H11.9844L14.2289 15.8232Z" fill="#FFDA44"/>
<path d="M30.8242 40.2694L29.1078 38.1569L26.5687 39.1421L28.0414 36.8569L26.325 34.7343L28.9554 35.4351L30.4382 33.1499L30.5804 35.8718L33.221 36.5726L30.6718 37.5476L30.8242 40.2694Z" fill="#FFDA44"/>
<path d="M34.2367 34.0741L35.0492 31.4741L32.825 29.8999L35.5468 29.8593L36.3492 27.2593L37.2328 29.839L39.9546 29.8085L37.771 31.4335L38.6445 34.0132L36.4203 32.439L34.2367 34.0741Z" fill="#FFDA44"/>
<path d="M38.8375 19.0835L37.6391 21.5312L39.5891 23.4304L36.8977 23.0445L35.6993 25.482L35.2321 22.8007L32.5305 22.4148L34.9477 21.1453L34.4805 18.4539L36.4305 20.3531L38.8375 19.0835Z" fill="#FFDA44"/>
<path d="M30.8952 11.6694L30.6921 14.3812L33.221 15.4069L30.5702 16.0569L30.3772 18.7788L28.9452 16.4632L26.2944 17.1132L28.0515 15.0312L26.6093 12.7257L29.1382 13.7515L30.8952 11.6694Z" fill="#FFDA44"/>
</g>
<defs>
<clipPath id="clip0_124_4376">
<rect width="52" height="52" fill="white"/>
</clipPath>
</defs>
</svg>
