<svg width="52" height="52" viewBox="0 0 52 52" fill="none" xmlns="http://www.w3.org/2000/svg">
<g clip-path="url(#clip0_124_4496)">
<path d="M26 52C40.3594 52 52 40.3594 52 26C52 11.6406 40.3594 0 26 0C11.6406 0 0 11.6406 0 26C0 40.3594 11.6406 52 26 52Z" fill="#F0F0F0"/>
<path d="M52 26C52 14.8209 44.9443 5.2908 35.0435 1.61719V50.3829C44.9443 46.7092 52 37.1791 52 26Z" fill="#D80027"/>
<path d="M0 26C0 37.1791 7.05585 46.7092 16.9566 50.3828V1.61719C7.05585 5.2908 0 14.8209 0 26Z" fill="#0052B4"/>
</g>
<defs>
<clipPath id="clip0_124_4496">
<rect width="52" height="52" fill="white"/>
</clipPath>
</defs>
</svg>
