<svg width="52" height="52" viewBox="0 0 52 52" fill="none" xmlns="http://www.w3.org/2000/svg">
<g clip-path="url(#clip0_124_4550)">
<path d="M26 52C40.3594 52 52 40.3594 52 26C52 11.6406 40.3594 0 26 0C11.6406 0 0 11.6406 0 26C0 40.3594 11.6406 52 26 52Z" fill="#D80027"/>
<path d="M28.6841 19.6694C28.0932 22.1271 27.0433 21.6584 26.5281 23.8018C23.4931 23.072 21.624 20.0201 22.3537 16.9849C23.0831 13.9499 26.1354 12.0807 29.1705 12.8105C28.1399 17.0971 29.2127 17.4713 28.6841 19.6694Z" fill="#F0F0F0"/>
<path d="M20.8087 21.4906C22.9636 22.8119 22.1933 23.6658 24.0724 24.8182C22.4405 27.4792 18.9605 28.3136 16.2994 26.6818C13.6383 25.05 12.8038 21.5697 14.4357 18.9087C18.1941 21.2133 18.8812 20.3087 20.8087 21.4906Z" fill="#F0F0F0"/>
<path d="M20.107 29.5438C22.0297 27.9027 22.6035 28.899 24.2801 27.468C26.3068 29.8422 26.0249 33.4099 23.6508 35.4366C21.2764 37.4633 17.7087 37.181 15.6824 34.807C19.0354 31.9447 18.3873 31.0114 20.107 29.5438Z" fill="#F0F0F0"/>
<path d="M27.5491 32.6996C26.5822 30.3639 27.7071 30.1259 26.8643 28.0893C29.7485 26.8956 33.0546 28.2661 34.2484 31.1503C35.442 34.0346 34.0713 37.3406 31.1871 38.5343C29.5014 34.4608 28.4138 34.7887 27.5491 32.6996Z" fill="#F0F0F0"/>
<path d="M32.8503 26.5967C30.3303 26.7944 30.4512 25.6508 28.2539 25.8233C28.0099 22.7115 30.335 19.9905 33.447 19.7463C36.5589 19.5026 39.2797 21.8276 39.5237 24.9397C35.1284 25.2843 35.1041 26.4201 32.8503 26.5967Z" fill="#F0F0F0"/>
</g>
<defs>
<clipPath id="clip0_124_4550">
<rect width="52" height="52" fill="white"/>
</clipPath>
</defs>
</svg>
