<?xml version="1.0" encoding="UTF-8"?>
<svg id="Layer_1" data-name="Layer 1" xmlns="http://www.w3.org/2000/svg" xmlns:xlink="http://www.w3.org/1999/xlink" viewBox="0 0 613.02 170.09">
  <defs>
    <style>
      .cls-1 {
        fill: none;
      }

      .cls-2 {
        fill: url(#linear-gradient);
      }

      .cls-3 {
        clip-path: url(#clippath);
      }

      .cls-4 {
        fill: #fff;
      }

      .cls-5 {
        fill: #fdc00f;
      }

      .cls-6 {
        fill: #2e3867;
      }

      .cls-7 {
        clip-path: url(#clippath-1);
      }

      .cls-8 {
        fill: url(#linear-gradient-3);
      }

      .cls-9 {
        fill: url(#linear-gradient-4);
      }

      .cls-10 {
        fill: url(#linear-gradient-2);
      }

      .cls-11 {
        fill: url(#radial-gradient);
      }
    </style>
    <clipPath id="clippath">
      <path class="cls-5" d="m578.27,85.64c-3.17,6.64-7.7,12.76-9.32,19.93-1.54,6.81-.21,14.23,3.61,20.08,2.93,4.49,7.44,8.12,12.69,9.23,6.89,1.45,14.28-1.72,18.8-7.12.43-.52.84-1.06,1.23-1.61,7.74-11.1,5.05-25.71-.49-37.11-1.02-2.1-2.35-4.03-4.51-5.68,0,6.1.28,12.21-.43,18.29-.23,1.97-1.02,4.4-3,4.59-1.33.13-2.53-.98-2.98-2.24-.44-1.26-.31-2.65-.16-3.98.9-8.08,2.04-16.26.88-24.3-1.16-8.05-4.99-16.13-11.93-20.37,1.84,10.21.07,20.93-4.39,30.29"/>
    </clipPath>
    <linearGradient id="linear-gradient" x1="212.66" y1="182.08" x2="96.94" y2="57.49" gradientUnits="userSpaceOnUse">
      <stop offset="0" stop-color="#0021f5"/>
      <stop offset=".12" stop-color="#2a31f5"/>
      <stop offset=".25" stop-color="#5240f5"/>
      <stop offset=".39" stop-color="#734df5"/>
      <stop offset=".53" stop-color="#8c57f5"/>
      <stop offset=".68" stop-color="#9f5ef5"/>
      <stop offset=".83" stop-color="#a962f5"/>
      <stop offset="1" stop-color="#ad63f5"/>
    </linearGradient>
    <linearGradient id="linear-gradient-2" x1="172.48" y1="98.69" x2="63.84" y2="135.49" xlink:href="#linear-gradient"/>
    <linearGradient id="linear-gradient-3" x1="124.47" y1="88.45" x2="140.87" y2="192.21" xlink:href="#linear-gradient"/>
    <linearGradient id="linear-gradient-4" x1="134.38" y1="221.28" x2="133.49" y2="-22.14" xlink:href="#linear-gradient"/>
    <clipPath id="clippath-1">
      <path class="cls-1" d="m578.27,85.64c-3.17,6.64-7.7,12.76-9.32,19.93-1.54,6.81-.21,14.23,3.61,20.08,2.93,4.49,7.44,8.12,12.69,9.23,6.89,1.45,14.28-1.72,18.8-7.12.43-.52.84-1.06,1.23-1.61,7.74-11.1,5.05-25.71-.49-37.11-1.02-2.1-2.35-4.03-4.51-5.68,0,6.1.28,12.21-.43,18.29-.23,1.97-1.02,4.4-3,4.59-1.33.13-2.53-.98-2.98-2.24-.44-1.26-.31-2.65-.16-3.98.9-8.08,2.04-16.26.88-24.3-1.16-8.05-4.99-16.13-11.93-20.37,1.84,10.21.07,20.93-4.39,30.29"/>
    </clipPath>
    <radialGradient id="radial-gradient" cx="-111.05" cy="-1922.95" fx="-111.05" fy="-1922.95" r="1" gradientTransform="translate(5024.28 146984.03) scale(39.94 76.39)" gradientUnits="userSpaceOnUse">
      <stop offset="0" stop-color="#ffff54"/>
      <stop offset=".08" stop-color="#ffe34e"/>
      <stop offset=".26" stop-color="#ffad43"/>
      <stop offset=".43" stop-color="#ff7f3a"/>
      <stop offset=".59" stop-color="#ff5c32"/>
      <stop offset=".75" stop-color="#ff432d"/>
      <stop offset=".89" stop-color="#ff332a"/>
      <stop offset="1" stop-color="#ff2e29"/>
    </radialGradient>
  </defs>
  <g>
    <path class="cls-6" d="m51.93,35.03c14.5.46,26.78,1.52,38.22,6.98,1.38.66,2.72,1.42,4.03,2.21,4.36,2.62,5.73,6.02,3.54,10.6-2.05,4.29-4.6,8.36-7.22,12.34-1.72,2.61-4.68,2.7-8.6,1.45-7.61-2.42-15.21-4.99-22.99-6.69-3.92-.85-19.11-2.94-19.29,3.73-.07,2.51,1.71,3.6,3.79,4.16,2.22.59,4.48,1.04,6.74,1.43,8.98,1.56,18.04,2.74,26.92,4.72,7.18,1.59,14.03,4.39,19.39,9.78,8.97,9.03,9.38,25.07.9,35.11-6.73,7.98-15.7,12.27-25.62,14.41-21.48,4.63-42.37,2.63-62.41-6.66-2-.93-3.91-2.09-5.77-3.28-2.99-1.91-4.32-4.37-3.12-7.63,2.02-5.49,4.43-10.88,7.09-16.09,1.48-2.9,5.11-3.25,8.92-1.53,5.73,2.6,11.34,5.52,17.21,7.74,8.83,3.33,18.02,4.43,27.41,2.83,1.56-.27,3.29-.71,4.49-1.64,1.42-1.1,2.41-2.93,1.66-4.72-1.53-3.69-10.16-3.73-13.43-4.31-8.05-1.42-16.19-2.45-24.15-4.23-7.38-1.65-14.32-4.6-19.56-10.42-8.81-9.75-8.38-26.78.8-36.23,7.29-7.5,16.53-10.97,26.55-12.59,5.48-.89,11.04-1.14,14.5-1.47"/>
    <path class="cls-6" d="m317.79,65.2h-2.74c-11.51,0-23.03.02-34.55-.01-6.41-.01-8.64-2.2-8.76-8.56-.06-3.33-.08-6.66.01-9.98.17-6.08,2.4-8.28,8.43-8.46.51-.01,1.03-.01,1.54-.01h72.93c.94,0,1.88.02,2.81.11,4.62.43,6.69,2.55,6.89,7.23.12,2.9.02,5.8.08,8.7.09,4.42-1.51,8.07-4.53,11.29-12.37,13.19-24.67,26.45-36.99,39.68-.57.61-1.12,1.24-2.1,2.33,1.38.06,2.25.14,3.11.14,11.09,0,22.18,0,33.26,0,1.11,0,2.23,0,3.32.15,3.81.56,5.93,2.51,6.15,6.35.26,4.59.28,9.22.02,13.81-.26,4.51-2.91,6.71-7.68,6.75-8.36.07-16.72.03-25.08.03-17.31,0-34.63,0-51.95-.02-1.52,0-3.07-.13-4.55-.44-2.82-.6-4.59-2.54-4.75-5.32-.24-4.24-.57-8.61.15-12.74.48-2.72,2.31-5.53,4.27-7.6,12.95-13.7,26.09-27.21,39.17-40.79.63-.66,1.24-1.33,1.87-2-.12-.22-.23-.43-.33-.65"/>
    <path class="cls-6" d="m211.91,65.2h-8.64c-9.56,0-19.12.02-28.67-.01-6.43-.02-8.6-2.18-8.64-8.61-.03-3.75-.06-7.51.07-11.26.16-4.37,2.27-6.55,6.57-6.99,1.1-.11,2.21-.14,3.32-.14,24.23-.01,48.47-.01,72.7-.01h.51c7.29.04,9.05,2.22,9.6,9.47.67,8.9-2.11,15.79-8.49,22.17-11.47,11.44-22.23,23.6-33.28,35.46-.55.59-1.06,1.23-2.05,2.39h3.34c11.43,0,22.87-.03,34.31,0,4.74.02,7.62,1.57,7.92,5.21.46,5.49.33,11.06.02,16.57-.16,2.79-2.26,4.51-5.08,5-1.17.2-2.37.29-3.55.29-25.36.01-50.7.01-76.05.01-.94,0-1.88.02-2.81-.1-4.06-.52-6.2-2.86-6.44-6.96,0-.17,0-.34-.02-.51q-.5-13.29,8.68-22.88c11.77-12.24,23.57-24.44,35.36-36.67.57-.59,1.12-1.2,1.68-1.8-.12-.22-.24-.43-.36-.64"/>
    <path class="cls-6" d="m381.66,59.75V9.34c0-7.06,2.27-9.32,9.33-9.33,5.38,0,10.75-.02,16.12,0,6.64.03,9.12,2.46,9.28,9.03.02.68,0,1.36,0,2.05v83.68q0,12.41,12.29,12.43c1.1,0,2.22.02,3.31.21,3.79.64,5.82,2.72,5.96,6.51.16,4.68.19,9.38.01,14.06-.16,4.06-2.58,6.62-6.63,6.68-9.12.13-18.28.44-27.36-.21-13.68-.99-21.32-9.3-22.21-23.01-.08-1.28-.09-2.56-.09-3.83,0-15.96,0-31.91,0-47.86"/>
    <path class="cls-6" d="m556.86,10.41c0-1.11-.02-2.22-.08-3.32-.24-4.19-2.51-6.83-6.63-6.94-7.24-.19-14.5-.15-21.74.02-3.32.08-5.46,2.31-5.95,5.62-.2,1.34-.23,2.72-.23,4.08-.02,9.55-.01,19.11-.01,28.66v3.11c-1.08-.3-1.73-.44-2.36-.66-.48-.17-.92-.43-1.39-.64-8.23-3.67-16.87-5.23-25.84-4.78-9.54.48-18.3,3.4-26.35,8.61-8.76,5.67-15.16,13.29-19.24,22.86-4.39,10.29-4.84,20.99-2.72,31.8,2.52,12.89,8.87,23.42,20,30.79,9.06,6,19.17,8.1,29.84,7.95,10.32-.15,19.81-2.85,27.83-9.68,1.46-1.24,2.81-2.62,4.35-4.07.5,1.45.9,2.65,1.32,3.84,1.78,5.15,4.37,7.02,9.89,7.09,2.98.04,5.97,0,8.96,0,8.27,0,10.37-2.11,10.37-10.46-.02-37.96-.02-75.92-.02-113.89m-37.78,90.44c-4.2,6.95-10.64,9.12-18.23,9.03-13.09-.16-19.01-9.49-20.29-20.4-.63-5.35-.34-10.72,1.81-15.8,4.31-10.21,13.14-13.56,23.94-11.81,9.42,1.52,15.28,8.97,16.4,19.78.13,1.27.18,2.55.28,3.98-.07,5.29-1.02,10.45-3.91,15.22"/>
  </g>
  <g>
    <path class="cls-5" d="m578.27,85.64c-3.17,6.64-7.7,12.76-9.32,19.93-1.54,6.81-.21,14.23,3.61,20.08,2.93,4.49,7.44,8.12,12.69,9.23,6.89,1.45,14.28-1.72,18.8-7.12.43-.52.84-1.06,1.23-1.61,7.74-11.1,5.05-25.71-.49-37.11-1.02-2.1-2.35-4.03-4.51-5.68,0,6.1.28,12.21-.43,18.29-.23,1.97-1.02,4.4-3,4.59-1.33.13-2.53-.98-2.98-2.24-.44-1.26-.31-2.65-.16-3.98.9-8.08,2.04-16.26.88-24.3-1.16-8.05-4.99-16.13-11.93-20.37,1.84,10.21.07,20.93-4.39,30.29"/>
    <g class="cls-3">
      <rect class="cls-5" x="567.41" y="55.36" width="45.61" height="80.98"/>
    </g>
  </g>
  <g>
    <path class="cls-2" d="m142.25,96.03c10.15,0,16.9,5.6,16.9,21.93,0,6.81-1.44,14.42-3.85,20.96-.71-12.42-6.7-17.85-14.52-19.09l1.48-23.81Z"/>
    <g>
      <path class="cls-10" d="m125.37,96.03c-10.15,0-16.9,5.6-16.9,21.93,0,6.81,1.44,14.42,3.84,20.97.72-12.42,6.71-17.85,14.53-19.09l-1.47-23.81Z"/>
      <path class="cls-8" d="m126.68,148.58c-.04-11.88,3.11-21.53,7.02-21.53,3.92,0,7.14,9.63,7.17,21.51.05,11.89-7.01,21.53-7.01,21.53,0,0-7.14-9.63-7.19-21.51Z"/>
      <path class="cls-9" d="m133.81,128.94c3.11,0,5.94.32,8.11.85,5.72-14.34,9.63-42.06,9.63-66.82,0-35.3-17.75-60.1-17.75-60.1,0,0-17.74,24.8-17.75,60.1,0,24.76,3.92,52.48,9.63,66.82,2.17-.52,5-.84,8.12-.84Z"/>
      <path class="cls-4" d="m143.11,56.24c0,5.13-4.16,9.3-9.3,9.3-5.13,0-9.3-4.17-9.3-9.3s4.17-9.3,9.3-9.3c5.13,0,9.3,4.16,9.3,9.3Z"/>
    </g>
  </g>
  <g class="cls-7">
    <rect class="cls-11" x="567.41" y="55.36" width="45.61" height="80.98"/>
  </g>
</svg>