<svg width="30" height="30" viewBox="0 0 30 30" fill="none" xmlns="http://www.w3.org/2000/svg">
<path d="M19.0487 27.8374H18.8862C13.3362 27.8374 10.6612 25.6499 10.1987 20.7499C10.1487 20.2374 10.5237 19.7749 11.0487 19.7249C11.5487 19.6749 12.0237 20.0624 12.0737 20.5749C12.4362 24.4999 14.2862 25.9624 18.8987 25.9624H19.0612C24.1487 25.9624 25.9487 24.1624 25.9487 19.0749V10.9249C25.9487 5.83735 24.1487 4.03735 19.0612 4.03735H18.8987C14.2612 4.03735 12.4112 5.52485 12.0737 9.52485C12.0112 10.0374 11.5737 10.4249 11.0487 10.3749C10.5237 10.3374 10.1487 9.87485 10.1862 9.36235C10.6112 4.38735 13.2987 2.16235 18.8862 2.16235H19.0487C25.1862 2.16235 27.8112 4.78735 27.8112 10.9249V19.0749C27.8112 25.2124 25.1862 27.8374 19.0487 27.8374Z" fill="#FF0013"/>
<path d="M18.7484 15.9375H4.52344C4.01094 15.9375 3.58594 15.5125 3.58594 15C3.58594 14.4875 4.01094 14.0625 4.52344 14.0625H18.7484C19.2609 14.0625 19.6859 14.4875 19.6859 15C19.6859 15.5125 19.2609 15.9375 18.7484 15.9375Z" fill="#FF0013"/>
<path d="M7.31133 20.1248C7.07383 20.1248 6.83633 20.0373 6.64883 19.8498L2.46133 15.6623C2.09883 15.2998 2.09883 14.6998 2.46133 14.3373L6.64883 10.1498C7.01133 9.7873 7.61133 9.7873 7.97383 10.1498C8.33633 10.5123 8.33633 11.1123 7.97383 11.4748L4.44883 14.9998L7.97383 18.5248C8.33633 18.8873 8.33633 19.4873 7.97383 19.8498C7.79883 20.0373 7.54883 20.1248 7.31133 20.1248Z" fill="#FF0013"/>
</svg>
