<svg width="533" height="221" viewBox="0 0 533 221" fill="none" xmlns="http://www.w3.org/2000/svg">
<path d="M15.74 58H8.18L22.58 20.38H30.02L44.18 58H36.62L33.92 50.32H18.38L15.74 58ZM26.12 27.28C25.68 28.8 25.18 30.4 24.62 32.08C24.1 33.76 23.6 35.32 23.12 36.76L20.48 44.38H31.82L29.18 36.76C28.74 35.48 28.24 34 27.68 32.32C27.12 30.6 26.6 28.92 26.12 27.28ZM66.178 18.1H73.138V58H67.018L66.598 55.24H66.298C65.178 56.36 63.838 57.2 62.278 57.76C60.758 58.28 58.998 58.54 56.998 58.54C53.038 58.54 50.198 57.34 48.478 54.94C46.798 52.54 45.958 48.6 45.958 43.12C45.958 37.72 46.998 33.82 49.078 31.42C51.198 28.98 54.678 27.76 59.518 27.76C60.798 27.76 61.998 27.86 63.118 28.06C64.278 28.22 65.298 28.46 66.178 28.78V18.1ZM60.478 34C57.398 34 55.358 34.62 54.358 35.86C53.398 37.1 52.918 39.52 52.918 43.12C52.918 46.6 53.338 48.96 54.178 50.2C55.058 51.44 56.838 52.06 59.518 52.06C60.798 52.06 61.998 51.94 63.118 51.7C64.238 51.42 65.258 51.02 66.178 50.5V35.02C65.338 34.66 64.458 34.4 63.538 34.24C62.618 34.08 61.598 34 60.478 34ZM86.6389 58H79.6789V28.36H86.0989L86.3989 30.58H86.5789C88.1389 29.62 89.6189 28.92 91.0189 28.48C92.4589 28 93.8589 27.76 95.2189 27.76C96.8589 27.76 98.2589 28.02 99.4189 28.54C100.619 29.02 101.579 29.78 102.299 30.82H102.479C103.959 29.86 105.559 29.12 107.279 28.6C109.039 28.04 110.759 27.76 112.439 27.76C115.319 27.76 117.479 28.54 118.919 30.1C120.359 31.66 121.079 33.98 121.079 37.06V58H114.119V37.96C114.119 36.6 113.739 35.6 112.979 34.96C112.259 34.32 111.099 34 109.499 34C108.539 34 107.559 34.12 106.559 34.36C105.559 34.6 104.639 34.92 103.799 35.32C103.839 35.52 103.859 35.74 103.859 35.98C103.859 36.22 103.859 36.58 103.859 37.06V58H96.8989V37.96C96.8989 36.6 96.5189 35.6 95.7589 34.96C95.0389 34.32 93.8789 34 92.2789 34C91.4389 34 90.5389 34.12 89.5789 34.36C88.6589 34.56 87.6789 34.9 86.6389 35.38V58ZM134.573 24.16H127.193V18.1H134.573V24.16ZM134.393 58H127.433V28.36H134.393V58ZM147.869 58H140.909V28.36H146.909L147.209 31.36H147.389C148.789 30.12 150.289 29.22 151.889 28.66C153.529 28.06 155.449 27.76 157.649 27.76C160.929 27.76 163.429 28.58 165.149 30.22C166.869 31.86 167.729 34.28 167.729 37.48V58H160.769V38.38C160.769 36.94 160.289 35.86 159.329 35.14C158.409 34.38 157.029 34 155.189 34C153.869 34 152.589 34.18 151.349 34.54C150.109 34.86 148.949 35.36 147.869 36.04V58ZM191.241 46.6V58H184.041V20.38H197.301C202.861 20.38 206.821 21.36 209.181 23.32C211.581 25.28 212.781 28.54 212.781 33.1C212.781 37.7 211.521 41.1 209.001 43.3C206.521 45.5 202.681 46.6 197.481 46.6H191.241ZM205.461 33.1C205.461 30.82 204.841 29.22 203.601 28.3C202.401 27.34 200.301 26.86 197.301 26.86H191.241V40.3H197.301C200.301 40.3 202.401 39.76 203.601 38.68C204.841 37.56 205.461 35.7 205.461 33.1ZM223.514 58.54C220.474 58.54 218.234 57.8 216.794 56.32C215.394 54.8 214.694 52.44 214.694 49.24C214.694 45.96 215.534 43.64 217.214 42.28C218.934 40.92 221.874 40.24 226.034 40.24C227.194 40.24 228.374 40.3 229.574 40.42C230.774 40.54 231.814 40.7 232.694 40.9V38.38C232.694 36.82 232.214 35.68 231.254 34.96C230.294 34.24 228.774 33.88 226.694 33.88C224.814 33.88 223.134 33.94 221.654 34.06C220.214 34.18 218.834 34.38 217.514 34.66V28.84C219.034 28.48 220.674 28.22 222.434 28.06C224.234 27.86 226.354 27.76 228.794 27.76C232.434 27.76 235.154 28.6 236.954 30.28C238.754 31.92 239.654 34.4 239.654 37.72V58H233.234L232.934 55.36H232.814C231.534 56.32 230.054 57.1 228.374 57.7C226.734 58.26 225.114 58.54 223.514 58.54ZM226.874 45.22C224.714 45.22 223.234 45.48 222.434 46C221.634 46.48 221.234 47.42 221.234 48.82C221.234 50.18 221.554 51.16 222.194 51.76C222.874 52.32 224.014 52.6 225.614 52.6C226.774 52.6 227.994 52.44 229.274 52.12C230.594 51.76 231.734 51.32 232.694 50.8V45.7C231.734 45.54 230.774 45.42 229.814 45.34C228.894 45.26 227.914 45.22 226.874 45.22ZM253.045 58H246.085V28.36H252.085L252.385 31.36H252.565C253.965 30.12 255.465 29.22 257.065 28.66C258.705 28.06 260.625 27.76 262.825 27.76C266.105 27.76 268.605 28.58 270.325 30.22C272.045 31.86 272.905 34.28 272.905 37.48V58H265.945V38.38C265.945 36.94 265.465 35.86 264.505 35.14C263.585 34.38 262.205 34 260.365 34C259.045 34 257.765 34.18 256.525 34.54C255.285 34.86 254.125 35.36 253.045 36.04V58ZM302.708 50.74V56.38C301.708 56.98 300.128 57.5 297.968 57.94C295.848 58.34 293.628 58.54 291.308 58.54C286.588 58.54 283.188 57.34 281.108 54.94C279.068 52.54 278.048 48.58 278.048 43.06C278.048 37.74 279.128 33.86 281.288 31.42C283.448 28.98 286.868 27.76 291.548 27.76C296.068 27.76 299.268 28.7 301.148 30.58C303.028 32.46 303.968 35.68 303.968 40.24C303.968 41.08 303.948 41.86 303.908 42.58C303.868 43.26 303.788 44.22 303.668 45.46H285.068C285.108 47.94 285.648 49.68 286.688 50.68C287.768 51.68 289.668 52.18 292.388 52.18C294.188 52.18 296.048 52.04 297.968 51.76C299.888 51.48 301.468 51.14 302.708 50.74ZM291.548 33.82C289.108 33.82 287.408 34.3 286.448 35.26C285.528 36.22 285.068 37.96 285.068 40.48H297.608V39.22C297.568 37.18 297.108 35.78 296.228 35.02C295.348 34.22 293.788 33.82 291.548 33.82ZM316.209 18.1V58H309.249V18.1H316.209Z" fill="#FF7938"/>
<path d="M45.3364 102.584C57.9955 102.986 68.7165 103.911 78.7041 108.678C79.9089 109.254 81.0788 109.918 82.2224 110.607C86.0289 112.895 87.225 115.863 85.313 119.862C83.5233 123.607 81.297 127.16 79.0097 130.635C77.508 132.914 74.9238 132.992 71.5015 131.901C64.8576 129.788 58.2225 127.544 51.4303 126.06C48.0079 125.318 34.7464 123.494 34.5893 129.317C34.5282 131.508 36.0822 132.46 37.8981 132.949C39.8363 133.464 41.8093 133.857 43.7824 134.197C51.6223 135.559 59.5321 136.589 67.2847 138.318C73.5531 139.706 79.5335 142.15 84.213 146.856C92.0442 154.74 92.4021 168.743 84.9987 177.509C79.1231 184.476 71.292 188.221 62.6314 190.089C43.8784 194.131 25.6406 192.385 8.14483 184.275C6.39875 183.463 4.73123 182.45 3.10738 181.411C0.49698 179.744 -0.664161 177.596 0.383489 174.75C2.14703 169.957 4.25106 165.251 6.57335 160.703C7.86546 158.171 11.0346 157.865 14.3609 159.367C19.3634 161.637 24.2612 164.186 29.3859 166.124C37.0949 169.031 45.1182 169.992 53.316 168.595C54.678 168.359 56.1883 167.975 57.236 167.163C58.4757 166.203 59.34 164.605 58.6852 163.042C57.3495 159.821 49.8151 159.786 46.9603 159.28C39.9323 158.04 32.8257 157.141 25.8763 155.587C19.4333 154.146 13.3744 151.571 8.79961 146.489C1.10811 137.977 1.48352 123.109 9.49804 114.859C15.8625 108.311 23.9294 105.282 32.6773 103.868C37.4616 103.091 42.3157 102.872 45.3364 102.584Z" fill="white"/>
<path d="M277.448 128.92H275.056C265.007 128.92 254.95 128.938 244.892 128.912C239.296 128.903 237.349 126.991 237.245 121.438C237.192 118.531 237.175 115.624 237.253 112.726C237.402 107.417 239.349 105.497 244.613 105.34C245.058 105.331 245.512 105.331 245.957 105.331H309.628C310.449 105.331 311.27 105.348 312.082 105.427C316.115 105.802 317.922 107.653 318.097 111.739C318.202 114.271 318.114 116.803 318.167 119.334C318.245 123.193 316.848 126.38 314.212 129.191C303.412 140.707 292.674 152.283 281.918 163.833C281.42 164.366 280.94 164.916 280.085 165.868C281.289 165.92 282.049 165.99 282.8 165.99C292.482 165.99 302.164 165.99 311.837 165.99C312.806 165.99 313.784 165.99 314.736 166.121C318.062 166.61 319.913 168.312 320.105 171.665C320.332 175.672 320.349 179.714 320.122 183.721C319.895 187.659 317.582 189.579 313.417 189.614C306.119 189.675 298.82 189.641 291.522 189.641C276.409 189.641 261.288 189.641 246.167 189.623C244.84 189.623 243.487 189.51 242.195 189.239C239.733 188.715 238.187 187.021 238.048 184.594C237.838 180.893 237.55 177.077 238.179 173.472C238.598 171.097 240.195 168.644 241.907 166.837C253.212 154.876 264.684 143.081 276.104 131.225C276.654 130.649 277.186 130.064 277.736 129.479C277.631 129.287 277.535 129.104 277.448 128.912" fill="white"/>
<path d="M185.005 128.92H177.462C169.116 128.92 160.77 128.938 152.432 128.912C146.818 128.894 144.924 127.009 144.889 121.395C144.863 118.121 144.837 114.838 144.95 111.564C145.09 107.749 146.932 105.846 150.686 105.462C151.646 105.366 152.615 105.34 153.584 105.34C174.738 105.331 195.901 105.331 217.055 105.331H217.5C223.864 105.366 225.401 107.269 225.881 113.599C226.466 121.369 224.039 127.384 218.469 132.954C208.455 142.942 199.061 153.558 189.414 163.912C188.934 164.427 188.489 164.986 187.624 165.999H190.54C200.519 165.999 210.507 165.972 220.494 165.999C224.633 166.016 227.147 167.369 227.409 170.547C227.81 175.34 227.697 180.203 227.426 185.013C227.287 187.449 225.453 188.951 222.991 189.379C221.97 189.553 220.922 189.632 219.892 189.632C197.752 189.641 175.629 189.641 153.497 189.641C152.676 189.641 151.856 189.658 151.044 189.553C147.499 189.099 145.631 187.056 145.421 183.477C145.421 183.328 145.421 183.18 145.404 183.032C145.113 175.296 147.639 168.638 152.982 163.056C163.258 152.37 173.56 141.719 183.853 131.042C184.35 130.527 184.831 129.994 185.319 129.47C185.215 129.278 185.11 129.095 185.005 128.912" fill="white"/>
<path d="M333.2 124.163V80.1532C333.2 73.9896 335.182 72.0165 341.345 72.0078C346.042 72.0078 350.73 71.9903 355.419 72.0078C361.216 72.034 363.381 74.1554 363.52 79.8913C363.538 80.485 363.52 81.0787 363.52 81.6811V154.737C363.52 161.96 367.097 165.577 374.25 165.589C375.211 165.589 376.188 165.607 377.14 165.772C380.449 166.331 382.221 168.147 382.343 171.456C382.483 175.542 382.509 179.645 382.352 183.731C382.212 187.276 380.1 189.51 376.564 189.563C368.602 189.676 360.604 189.947 352.677 189.38C340.734 188.515 334.064 181.26 333.287 169.291C333.217 168.173 333.208 167.056 333.208 165.947C333.208 152.013 333.208 138.088 333.208 124.163" fill="white"/>
<path d="M486.165 81.089C486.165 80.1199 486.147 79.1509 486.095 78.1905C485.885 74.5325 483.903 72.2276 480.306 72.1316C473.986 71.9657 467.647 72.0006 461.327 72.1491C458.428 72.2189 456.56 74.1658 456.132 77.0556C455.957 78.2254 455.931 79.4302 455.931 80.6176C455.914 88.9551 455.922 97.3014 455.922 105.639V108.354C454.979 108.092 454.412 107.97 453.862 107.778C453.443 107.63 453.059 107.403 452.648 107.219C445.463 104.015 437.92 102.653 430.089 103.046C421.76 103.465 414.112 106.014 407.084 110.563C399.437 115.513 393.849 122.166 390.287 130.521C386.454 139.504 386.062 148.846 387.912 158.283C390.112 169.537 395.656 178.73 405.373 185.164C413.283 190.403 422.109 192.236 431.425 192.105C440.435 191.974 448.72 189.617 455.722 183.654C456.996 182.571 458.175 181.367 459.519 180.101C459.956 181.367 460.305 182.414 460.672 183.453C462.226 187.949 464.487 189.582 469.306 189.643C471.908 189.678 474.518 189.643 477.129 189.643C484.349 189.643 486.182 187.801 486.182 180.511C486.165 147.37 486.165 114.23 486.165 81.0803M453.181 160.038C449.514 166.106 443.892 168 437.265 167.922C425.837 167.782 420.669 159.637 419.551 150.112C419.001 145.441 419.255 140.753 421.132 136.318C424.894 127.404 432.603 124.479 442.032 126.007C450.256 127.334 455.372 133.838 456.35 143.276C456.464 144.385 456.507 145.502 456.595 146.751C456.534 151.369 455.704 155.874 453.181 160.038Z" fill="white"/>
<path d="M504.856 146.768C502.089 152.565 498.134 157.908 496.72 164.167C495.375 170.113 496.536 176.591 499.871 181.698C502.429 185.618 506.367 188.787 510.95 189.756C516.965 191.022 523.417 188.255 527.363 183.54C527.739 183.086 528.097 182.615 528.437 182.134C535.194 172.444 532.846 159.689 528.009 149.736C527.119 147.903 525.958 146.218 524.072 144.777C524.072 150.103 524.316 155.437 523.697 160.745C523.496 162.465 522.806 164.586 521.077 164.752C519.916 164.866 518.869 163.897 518.476 162.797C518.092 161.697 518.205 160.483 518.336 159.322C519.122 152.268 520.117 145.126 519.104 138.107C518.092 131.079 514.748 124.025 508.689 120.323C510.295 129.237 508.75 138.596 504.856 146.768Z" fill="#FDC00F"/>
<mask id="mask0_5_689" style="mask-type:luminance" maskUnits="userSpaceOnUse" x="496" y="120" width="37" height="71">
<path d="M504.865 146.782C502.097 152.579 498.142 157.922 496.728 164.182C495.383 170.127 496.545 176.605 499.88 181.713C502.438 185.633 506.375 188.802 510.958 189.771C516.974 191.037 523.425 188.269 527.372 183.555C527.747 183.101 528.105 182.629 528.445 182.149C535.203 172.458 532.854 159.703 528.018 149.751C527.127 147.917 525.966 146.232 524.08 144.792C524.08 150.117 524.325 155.452 523.705 160.76C523.504 162.48 522.814 164.601 521.086 164.767C519.925 164.88 518.877 163.911 518.484 162.811C518.1 161.711 518.213 160.498 518.344 159.337C519.13 152.282 520.125 145.141 519.113 138.122C518.1 131.094 514.756 124.04 508.697 120.338C510.304 129.252 508.758 138.611 504.865 146.782Z" fill="white"/>
</mask>
<g mask="url(#mask0_5_689)">
<path d="M535.203 120.338H495.384V191.037H535.203V120.338Z" fill="#FDC00F"/>
</g>
<path d="M124.202 155.832C133.064 155.832 138.957 160.721 138.957 174.978C138.957 180.923 137.7 187.567 135.596 193.277C134.976 182.434 129.746 177.693 122.919 176.611L124.211 155.823L124.202 155.832Z" fill="url(#paint0_linear_5_689)"/>
<path d="M109.468 155.826C100.606 155.826 94.7134 160.715 94.7134 174.972C94.7134 180.917 95.9706 187.561 98.0659 193.279C98.6944 182.436 103.924 177.696 110.751 176.613L109.468 155.826Z" fill="url(#paint1_linear_5_689)"/>
<path d="M110.625 201.709C110.591 191.337 113.341 182.913 116.754 182.913C120.177 182.913 122.988 191.32 123.014 201.692C123.058 212.072 116.894 220.488 116.894 220.488C116.894 220.488 110.66 212.081 110.617 201.709H110.625Z" fill="url(#paint2_linear_5_689)"/>
<path d="M116.832 184.559C119.548 184.559 122.018 184.839 123.913 185.301C128.907 172.782 132.32 148.581 132.32 126.965C132.32 96.1463 116.824 74.4949 116.824 74.4949C116.824 74.4949 101.336 96.1463 101.327 126.965C101.327 148.581 104.749 172.782 109.735 185.301C111.629 184.847 114.1 184.568 116.824 184.568L116.832 184.559Z" fill="url(#paint3_linear_5_689)"/>
<path d="M124.952 121.09C124.952 125.569 121.321 129.21 116.833 129.21C112.354 129.21 108.714 125.569 108.714 121.09C108.714 116.612 112.354 112.971 116.833 112.971C121.312 112.971 124.952 116.603 124.952 121.09Z" fill="white"/>
<mask id="mask1_5_689" style="mask-type:luminance" maskUnits="userSpaceOnUse" x="496" y="120" width="37" height="71">
<path d="M504.863 146.765C502.095 152.562 498.14 157.906 496.726 164.165C495.381 170.111 496.543 176.589 499.878 181.696C502.436 185.616 506.373 188.785 510.956 189.754C516.972 191.02 523.424 188.252 527.37 183.538C527.745 183.084 528.103 182.613 528.443 182.132C535.201 172.442 532.852 159.687 528.016 149.734C527.125 147.9 525.964 146.215 524.078 144.775C524.078 150.101 524.323 155.435 523.703 160.743C523.502 162.463 522.812 164.584 521.084 164.75C519.923 164.864 518.875 163.895 518.482 162.795C518.098 161.694 518.211 160.481 518.342 159.32C519.128 152.266 520.123 145.124 519.111 138.105C518.098 131.077 514.754 124.023 508.695 120.321C510.302 129.235 508.756 138.594 504.863 146.765Z" fill="white"/>
</mask>
<g mask="url(#mask1_5_689)">
<path d="M535.21 120.321H495.39V191.02H535.21V120.321Z" fill="url(#paint4_radial_5_689)"/>
</g>
<defs>
<linearGradient id="paint0_linear_5_689" x1="185.673" y1="230.958" x2="84.6447" y2="122.185" gradientUnits="userSpaceOnUse">
<stop stop-color="#0021F5"/>
<stop offset="0.12" stop-color="#2A31F5"/>
<stop offset="0.25" stop-color="#5240F5"/>
<stop offset="0.39" stop-color="#734DF5"/>
<stop offset="0.53" stop-color="#8C57F5"/>
<stop offset="0.68" stop-color="#9F5EF5"/>
<stop offset="0.83" stop-color="#A962F5"/>
<stop offset="1" stop-color="#AD63F5"/>
</linearGradient>
<linearGradient id="paint1_linear_5_689" x1="150.597" y1="158.148" x2="55.7583" y2="190.285" gradientUnits="userSpaceOnUse">
<stop stop-color="#0021F5"/>
<stop offset="0.12" stop-color="#2A31F5"/>
<stop offset="0.25" stop-color="#5240F5"/>
<stop offset="0.39" stop-color="#734DF5"/>
<stop offset="0.53" stop-color="#8C57F5"/>
<stop offset="0.68" stop-color="#9F5EF5"/>
<stop offset="0.83" stop-color="#A962F5"/>
<stop offset="1" stop-color="#AD63F5"/>
</linearGradient>
<linearGradient id="paint2_linear_5_689" x1="108.687" y1="149.222" x2="123.005" y2="239.8" gradientUnits="userSpaceOnUse">
<stop stop-color="#0021F5"/>
<stop offset="0.12" stop-color="#2A31F5"/>
<stop offset="0.25" stop-color="#5240F5"/>
<stop offset="0.39" stop-color="#734DF5"/>
<stop offset="0.53" stop-color="#8C57F5"/>
<stop offset="0.68" stop-color="#9F5EF5"/>
<stop offset="0.83" stop-color="#A962F5"/>
<stop offset="1" stop-color="#AD63F5"/>
</linearGradient>
<linearGradient id="paint3_linear_5_689" x1="117.33" y1="265.176" x2="116.562" y2="52.6601" gradientUnits="userSpaceOnUse">
<stop stop-color="#0021F5"/>
<stop offset="0.12" stop-color="#2A31F5"/>
<stop offset="0.25" stop-color="#5240F5"/>
<stop offset="0.39" stop-color="#734DF5"/>
<stop offset="0.53" stop-color="#8C57F5"/>
<stop offset="0.68" stop-color="#9F5EF5"/>
<stop offset="0.83" stop-color="#A962F5"/>
<stop offset="1" stop-color="#AD63F5"/>
</linearGradient>
<radialGradient id="paint4_radial_5_689" cx="0" cy="0" r="1" gradientUnits="userSpaceOnUse" gradientTransform="translate(512.736 150.834) scale(34.8693 66.6917)">
<stop stop-color="#FFFF54"/>
<stop offset="0.08" stop-color="#FFE34E"/>
<stop offset="0.26" stop-color="#FFAD43"/>
<stop offset="0.43" stop-color="#FF7F3A"/>
<stop offset="0.59" stop-color="#FF5C32"/>
<stop offset="0.75" stop-color="#FF432D"/>
<stop offset="0.89" stop-color="#FF332A"/>
<stop offset="1" stop-color="#FF2E29"/>
</radialGradient>
</defs>
</svg>
