<svg width="31" height="31" viewBox="0 0 31 31" fill="none" xmlns="http://www.w3.org/2000/svg">
<g clip-path="url(#clip0_124_5746)">
<path d="M31 15.5C31 24.0605 24.0605 31 15.5 31C6.93948 31 0 24.0605 0 15.5C0 6.93948 6.93948 0 15.5 0C24.0605 0 31 6.93948 31 15.5Z" fill="#FA5D0F"/>
<path d="M31 15.4998C31 15.1479 30.987 14.7988 30.964 14.4525L23.6345 7.12305L7.4082 23.435L14.9628 30.9896C15.1412 30.9955 15.3202 30.9998 15.5 30.9998C24.0605 30.9998 31 24.0603 31 15.4998Z" fill="#E23A00"/>
<path d="M7.4082 23.435L15.6284 21.6368L23.6345 7.12305L9.12078 15.1292L7.4082 23.435Z" fill="#CDD2E1"/>
<path d="M7.4082 23.435L15.6284 21.6368L23.6345 7.12305L7.4082 23.435Z" fill="#BEC3D2"/>
<path d="M23.6349 7.12305L5.09668 12.6461L10.6197 18.1688L23.6349 7.12305Z" fill="white"/>
<path d="M23.6347 7.12305L18.1116 25.6613L12.5889 20.1383L23.6347 7.12305Z" fill="#E9EDF5"/>
<path d="M7.4082 23.435L10.6193 18.1688L23.6345 7.12305L12.5887 20.1383L7.4082 23.435Z" fill="#AFB4C8"/>
<path d="M7.4082 23.435L12.5887 20.1383L23.6345 7.12305L7.4082 23.435Z" fill="#9196AA"/>
</g>
<defs>
<clipPath id="clip0_124_5746">
<rect width="31" height="31" fill="white"/>
</clipPath>
</defs>
</svg>
