<svg width="29" height="29" viewBox="0 0 29 29" fill="none" xmlns="http://www.w3.org/2000/svg">
<path d="M14.0625 0C11.2812 0 8.56237 0.824751 6.2498 2.36996C3.93723 3.91517 2.13481 6.11143 1.07045 8.68101C0.0060932 11.2506 -0.272391 14.0781 0.270213 16.806C0.812818 19.5338 2.15214 22.0395 4.11882 24.0062C6.08549 25.9729 8.59119 27.3122 11.319 27.8548C14.0469 28.3974 16.8744 28.1189 19.444 27.0546C22.0136 25.9902 24.2098 24.1878 25.755 21.8752C27.3003 19.5626 28.125 16.8438 28.125 14.0625C28.1208 10.3342 26.6379 6.75979 24.0015 4.12347C21.3652 1.48715 17.7908 0.00421825 14.0625 0ZM17.8125 8.4375C18.1833 8.4375 18.5459 8.54747 18.8542 8.75349C19.1625 8.95952 19.4029 9.25236 19.5448 9.59497C19.6867 9.93758 19.7238 10.3146 19.6515 10.6783C19.5791 11.042 19.4006 11.3761 19.1383 11.6383C18.8761 11.9005 18.542 12.0791 18.1783 12.1515C17.8146 12.2238 17.4376 12.1867 17.095 12.0448C16.7524 11.9029 16.4595 11.6625 16.2535 11.3542C16.0475 11.0459 15.9375 10.6833 15.9375 10.3125C15.9375 9.81522 16.135 9.33831 16.4867 8.98668C16.8383 8.63504 17.3152 8.4375 17.8125 8.4375ZM10.3125 8.4375C10.6833 8.4375 11.0459 8.54747 11.3542 8.75349C11.6625 8.95952 11.9029 9.25236 12.0448 9.59497C12.1867 9.93758 12.2238 10.3146 12.1515 10.6783C12.0791 11.042 11.9006 11.3761 11.6383 11.6383C11.3761 11.9005 11.042 12.0791 10.6783 12.1515C10.3146 12.2238 9.93759 12.1867 9.59497 12.0448C9.25236 11.9029 8.95953 11.6625 8.7535 11.3542C8.54747 11.0459 8.43751 10.6833 8.43751 10.3125C8.43751 9.81522 8.63505 9.33831 8.98668 8.98668C9.33831 8.63504 9.81522 8.4375 10.3125 8.4375ZM21.375 18.2812C20.6346 19.5643 19.5694 20.6297 18.2866 21.3705C17.0038 22.1113 15.5485 22.5013 14.0672 22.5013C12.5859 22.5013 11.1306 22.1113 9.84782 21.3705C8.56501 20.6297 7.49983 19.5643 6.75938 18.2812C6.69336 18.1745 6.64943 18.0556 6.63021 17.9316C6.61098 17.8076 6.61685 17.681 6.64747 17.5593C6.67809 17.4376 6.73283 17.3233 6.80844 17.2231C6.88406 17.123 6.97901 17.039 7.08768 16.9762C7.19634 16.9135 7.31651 16.8731 7.44104 16.8577C7.56558 16.8422 7.69196 16.8519 7.81268 16.8862C7.9334 16.9204 8.04602 16.9786 8.14384 17.0572C8.24167 17.1358 8.32272 17.2332 8.38219 17.3438C8.95794 18.3422 9.78649 19.1714 10.7845 19.7479C11.7824 20.3244 12.9147 20.628 14.0672 20.628C15.2197 20.628 16.3519 20.3244 17.3499 19.7479C18.3479 19.1714 19.1764 18.3422 19.7522 17.3438C19.8117 17.2332 19.8927 17.1358 19.9905 17.0572C20.0884 16.9786 20.201 16.9204 20.3217 16.8862C20.4424 16.8519 20.5688 16.8422 20.6933 16.8577C20.8179 16.8731 20.938 16.9135 21.0467 16.9762C21.1554 17.039 21.2503 17.123 21.3259 17.2231C21.4016 17.3233 21.4563 17.4376 21.4869 17.5593C21.5175 17.681 21.5234 17.8076 21.5042 17.9316C21.485 18.0556 21.441 18.1745 21.375 18.2812Z" fill="#D7D7D7"/>
</svg>
