<svg width="52" height="52" viewBox="0 0 52 52" fill="none" xmlns="http://www.w3.org/2000/svg">
<g clip-path="url(#clip0_124_4507)">
<path d="M26 52C40.3594 52 52 40.3594 52 26C52 11.6406 40.3594 0 26 0C11.6406 0 0 11.6406 0 26C0 40.3594 11.6406 52 26 52Z" fill="#F0F0F0"/>
<path d="M7.61521 44.3849C-2.5384 34.2312 -2.5384 17.7689 7.61521 7.61523C7.6145 7.61635 22.6088 26.0001 22.6088 26.0001L7.61521 44.3849Z" fill="black"/>
<path d="M22.6088 25.9999L3.44839 13.052C2.85436 14.0846 2.3305 15.1624 1.88037 16.2779L11.5805 26L1.88068 35.7226C2.33039 36.8373 2.85375 37.9144 3.44738 38.9463L22.6088 25.9999Z" fill="#FFDA44"/>
<path d="M51.7798 22.6086H22.6079L7.61488 7.61548C5.99923 9.23113 4.59553 11.0583 3.44828 13.0521L16.371 25.9999L3.44727 38.9461C4.59452 40.9404 5.99882 42.7682 7.61488 44.3843L22.6079 29.3912H51.7798C51.9244 28.2811 51.9999 27.1493 51.9999 25.9999C51.9999 24.8505 51.9244 23.7187 51.7798 22.6086Z" fill="#6DA544"/>
<path d="M10.1702 46.6251C14.5545 49.9951 20.0427 52.0001 25.9999 52.0001C38.0126 52.0001 48.1207 43.8526 51.1042 32.7827H24.0126L10.1702 46.6251Z" fill="#0052B4"/>
<path d="M51.1042 19.2174C48.1207 8.14744 38.0126 0 25.9999 0C20.0427 0 14.5545 2.00495 10.1702 5.37499L24.0125 19.2174H51.1042Z" fill="#D80027"/>
</g>
<defs>
<clipPath id="clip0_124_4507">
<rect width="52" height="52" fill="white"/>
</clipPath>
</defs>
</svg>
