<svg width="52" height="52" viewBox="0 0 52 52" fill="none" xmlns="http://www.w3.org/2000/svg">
<g clip-path="url(#clip0_124_4371)">
<path d="M0 26.0001C0 29.1804 0.572102 32.2269 1.61718 35.0435L26 37.3044L50.3828 35.0435C51.4279 32.2269 52 29.1804 52 26.0001C52 22.8198 51.4279 19.7733 50.3828 16.9567L26 14.6958L1.61718 16.9567C0.572102 19.7733 0 22.8198 0 26.0001Z" fill="#FFDA44"/>
<path d="M50.3828 16.9566C46.7092 7.05585 37.1791 0 26 0C14.8209 0 5.2908 7.05585 1.61719 16.9566H50.3828Z" fill="#D80027"/>
<path d="M1.61719 35.0435C5.2908 44.9442 14.8209 52 26 52C37.1791 52 46.7092 44.9442 50.3828 35.0435H1.61719Z" fill="#D80027"/>
</g>
<defs>
<clipPath id="clip0_124_4371">
<rect width="52" height="52" fill="white"/>
</clipPath>
</defs>
</svg>
