<svg width="52" height="52" viewBox="0 0 52 52" fill="none" xmlns="http://www.w3.org/2000/svg">
<g clip-path="url(#clip0_124_4465)">
<path d="M26 52C40.3594 52 52 40.3594 52 26C52 11.6406 40.3594 0 26 0C11.6406 0 0 11.6406 0 26C0 40.3594 11.6406 52 26 52Z" fill="#FFDA44"/>
<path d="M20.3478 22.6087H51.7797C50.1179 9.85176 39.2097 0 25.9998 0C24.0585 0 22.1676 0.214602 20.3477 0.618008L20.3478 22.6087Z" fill="#0052B4"/>
<path d="M13.5651 22.6087V3.16138C6.42585 7.05671 1.31512 14.2017 0.219971 22.6088L13.5651 22.6087Z" fill="#0052B4"/>
<path d="M13.565 29.3914H0.219971C1.31512 37.7984 6.42585 44.9434 13.5651 48.8386L13.565 29.3914Z" fill="#0052B4"/>
<path d="M20.3477 29.3915V51.3821C22.1676 51.7855 24.0585 52.0001 25.9998 52.0001C39.2097 52.0001 50.1179 42.1483 51.7797 29.3914H20.3477V29.3915Z" fill="#0052B4"/>
</g>
<defs>
<clipPath id="clip0_124_4465">
<rect width="52" height="52" fill="white"/>
</clipPath>
</defs>
</svg>
