<svg width="52" height="52" viewBox="0 0 52 52" fill="none" xmlns="http://www.w3.org/2000/svg">
<g clip-path="url(#clip0_124_4363)">
<path d="M26 52C40.3594 52 52 40.3594 52 26C52 11.6406 40.3594 0 26 0C11.6406 0 0 11.6406 0 26C0 40.3594 11.6406 52 26 52Z" fill="#F0F0F0"/>
<path d="M24.8696 25.9999H52C52 23.6532 51.6872 21.3799 51.1043 19.2173H24.8696V25.9999Z" fill="#D80027"/>
<path d="M24.8696 12.4347H48.1839C46.5923 9.83759 44.5573 7.54197 42.1846 5.6521H24.8696V12.4347Z" fill="#D80027"/>
<path d="M26 52.0001C32.1191 52.0001 37.7433 49.8851 42.1846 46.3479H9.81543C14.2568 49.8851 19.881 52.0001 26 52.0001Z" fill="#D80027"/>
<path d="M3.81618 39.5651H48.184C49.4617 37.4801 50.4527 35.2011 51.1044 32.7825H0.895752C1.54748 35.2011 2.53842 37.4801 3.81618 39.5651Z" fill="#D80027"/>
<path d="M12.0437 4.06027H14.413L12.2091 5.6614L13.051 8.25216L10.8472 6.65102L8.64337 8.25216L9.37056 6.01402C7.43011 7.63039 5.72934 9.52413 4.32778 11.6342H5.08696L3.68408 12.6534C3.46552 13.018 3.25589 13.3884 3.055 13.7643L3.72491 15.8261L2.47508 14.918C2.1644 15.5762 1.88023 16.2493 1.6248 16.9364L2.36285 19.2081H5.08696L2.88305 20.8092L3.72491 23.4L1.5211 21.7989L0.200992 22.758C0.0688594 23.8202 0 24.902 0 26H26C26 11.6407 26 9.94784 26 0C20.8638 0 16.0758 1.48992 12.0437 4.06027ZM13.051 23.4L10.8472 21.7989L8.64337 23.4L9.48523 20.8092L7.28132 19.2081H10.0054L10.8472 16.6174L11.6889 19.2081H14.413L12.2091 20.8092L13.051 23.4ZM12.2091 13.2353L13.051 15.8261L10.8472 14.2249L8.64337 15.8261L9.48523 13.2353L7.28132 11.6342H10.0054L10.8472 9.04343L11.6889 11.6342H14.413L12.2091 13.2353ZM22.3771 23.4L20.1733 21.7989L17.9695 23.4L18.8113 20.8092L16.6074 19.2081H19.3315L20.1733 16.6174L21.015 19.2081H23.7391L21.5352 20.8092L22.3771 23.4ZM21.5352 13.2353L22.3771 15.8261L20.1733 14.2249L17.9695 15.8261L18.8113 13.2353L16.6074 11.6342H19.3315L20.1733 9.04343L21.015 11.6342H23.7391L21.5352 13.2353ZM21.5352 5.6614L22.3771 8.25216L20.1733 6.65102L17.9695 8.25216L18.8113 5.6614L16.6074 4.06027H19.3315L20.1733 1.46951L21.015 4.06027H23.7391L21.5352 5.6614Z" fill="#0052B4"/>
</g>
<defs>
<clipPath id="clip0_124_4363">
<rect width="52" height="52" fill="white"/>
</clipPath>
</defs>
</svg>
