<svg width="150" height="56" viewBox="0 0 150 56" fill="none" xmlns="http://www.w3.org/2000/svg">
<g filter="url(#filter0_bd_124_5790)">
<rect x="6" y="6" width="138" height="44" rx="22" fill="#CB8686"/>
</g>
<path d="M122.174 28.3183L124.473 30.6176L125.877 32.0287C126.472 32.6232 127.439 32.6232 128.033 32.0287L131.744 28.3183C132.231 27.8312 131.88 27.0003 131.199 27.0003H127.181H122.718C122.031 27.0003 121.687 27.8312 122.174 28.3183Z" fill="white"/>
<path d="M19.2 29.888C19.2 32.784 21.088 34.112 23.392 34.112C25.696 34.112 27.6 32.784 27.6 29.888V22.848H26.144V29.904C26.144 31.952 25.056 32.832 23.408 32.832C21.76 32.832 20.656 31.952 20.656 29.904V22.848H19.2V29.888ZM31.4849 29.232C31.4849 27.2 32.5409 26.576 33.9329 26.576H34.3169V25.072C32.9249 25.072 31.9809 25.68 31.4849 26.656V25.232H30.0289V34H31.4849V29.232ZM35.4536 29.584C35.4536 32.304 37.2616 34.144 39.6136 34.144C41.2136 34.144 42.3496 33.296 42.8776 32.352V34.192C42.8776 36.064 41.7096 37.056 40.1576 37.056C38.7176 37.056 37.6776 36.336 37.3576 35.28H35.9176C36.2056 37.152 37.8536 38.32 40.1576 38.32C42.7336 38.32 44.3496 36.608 44.3496 34.192V25.232H42.8776V26.832C42.3656 25.888 41.2136 25.088 39.6136 25.088C37.2616 25.088 35.4536 26.848 35.4536 29.584ZM42.8776 29.6C42.8776 31.664 41.5016 32.864 39.9016 32.864C38.3016 32.864 36.9416 31.648 36.9416 29.584C36.9416 27.52 38.3016 26.352 39.9016 26.352C41.5016 26.352 42.8776 27.568 42.8776 29.6ZM50.5381 26.32C52.0421 26.32 53.3221 27.264 53.3061 28.976H47.7701C47.9301 27.264 49.1141 26.32 50.5381 26.32ZM54.6341 31.296H53.0661C52.7461 32.24 51.9141 32.912 50.6021 32.912C49.1141 32.912 47.8661 31.936 47.7541 30.16H54.7621C54.7941 29.856 54.8101 29.6 54.8101 29.28C54.8101 26.88 53.1461 25.088 50.6021 25.088C48.0421 25.088 46.2661 26.832 46.2661 29.6C46.2661 32.384 48.1061 34.144 50.6021 34.144C52.7781 34.144 54.1861 32.896 54.6341 31.296ZM63.148 34H64.588V28.832C64.588 26.32 63.036 25.072 61.004 25.072C59.82 25.072 58.764 25.568 58.188 26.48V25.232H56.732V34H58.188V29.152C58.188 27.264 59.212 26.336 60.7 26.336C62.172 26.336 63.148 27.248 63.148 29.04V34ZM67.2864 31.6C67.2864 33.36 68.1664 34 69.7184 34H71.0304V32.768H69.9584C69.0624 32.768 68.7424 32.464 68.7424 31.6V26.432H71.0304V25.232H68.7424V23.024H67.2864V25.232H66.1504V26.432H67.2864V31.6Z" fill="white"/>
<defs>
<filter id="filter0_bd_124_5790" x="-14" y="-14" width="178" height="84" filterUnits="userSpaceOnUse" color-interpolation-filters="sRGB">
<feFlood flood-opacity="0" result="BackgroundImageFix"/>
<feGaussianBlur in="BackgroundImageFix" stdDeviation="10"/>
<feComposite in2="SourceAlpha" operator="in" result="effect1_backgroundBlur_124_5790"/>
<feColorMatrix in="SourceAlpha" type="matrix" values="0 0 0 0 0 0 0 0 0 0 0 0 0 0 0 0 0 0 127 0" result="hardAlpha"/>
<feOffset/>
<feGaussianBlur stdDeviation="3"/>
<feComposite in2="hardAlpha" operator="out"/>
<feColorMatrix type="matrix" values="0 0 0 0 0.371944 0 0 0 0 0.371944 0 0 0 0 0.433333 0 0 0 1 0"/>
<feBlend mode="normal" in2="effect1_backgroundBlur_124_5790" result="effect2_dropShadow_124_5790"/>
<feBlend mode="normal" in="SourceGraphic" in2="effect2_dropShadow_124_5790" result="shape"/>
</filter>
</defs>
</svg>
